<svg xmlns="http://www.w3.org/2000/svg" xmlns:xlink="http://www.w3.org/1999/xlink" width="551.453" height="416.788" viewBox="0 0 351.453 316.788">
  <defs>
    <clipPath id="clip-path">
      <rect id="Rectángulo_4092" data-name="Rectángulo 4092" width="92.84" height="116.174" fill="none"/>
    </clipPath>
    <clipPath id="clip-path-3">
      <rect id="Rectángulo_3983" data-name="Rectángulo 3983" width="5.235" height="3.592" fill="none"/>
    </clipPath>
    <clipPath id="clip-path-4">
      <rect id="Rectángulo_3984" data-name="Rectángulo 3984" width="5.596" height="3.332" fill="none"/>
    </clipPath>
    <clipPath id="clip-path-5">
      <rect id="Rectángulo_3985" data-name="Rectángulo 3985" width="38.442" height="44.175" fill="none"/>
    </clipPath>
    <clipPath id="clip-path-6">
      <rect id="Rectángulo_3986" data-name="Rectángulo 3986" width="9.051" height="6.165" fill="none"/>
    </clipPath>
    <clipPath id="clip-path-7">
      <rect id="Rectángulo_3987" data-name="Rectángulo 3987" width="24.299" height="12.741" fill="none"/>
    </clipPath>
    <clipPath id="clip-path-8">
      <rect id="Rectángulo_3990" data-name="Rectángulo 3990" width="6.9" height="3.391" fill="none"/>
    </clipPath>
    <clipPath id="clip-path-9">
      <rect id="Rectángulo_4087" data-name="Rectángulo 4087" width="44.996" height="25.916" fill="none"/>
    </clipPath>
    <clipPath id="clip-path-10">
      <path id="Trazado_16495" data-name="Trazado 16495" d="M0,2.243A6.3,6.3,0,0,0,.179,3.407l1.606-.116L1.548,0A3.565,3.565,0,0,0,0,2.243" transform="translate(0 0)" fill="none"/>
    </clipPath>
    <clipPath id="clip-path-11">
      <path id="Trazado_16496" data-name="Trazado 16496" d="M0,2.555.237,5.847,10.519,5.1,10.151,0C6.083.352,2.124,1.019,0,2.555" fill="none"/>
    </clipPath>
    <clipPath id="clip-path-12">
      <path id="Trazado_16497" data-name="Trazado 16497" d="M0,.62l.368,5.1L10.65,4.982,10.291,0C7.7.235,3.8.29,0,.62" transform="translate(0)" fill="none"/>
    </clipPath>
    <clipPath id="clip-path-13">
      <path id="Trazado_16498" data-name="Trazado 16498" d="M0,.167.359,5.15l2.47-.178L1.393,0C.989.066.522.12,0,.167" transform="translate(0 0)" fill="none"/>
    </clipPath>
    <clipPath id="clip-path-14">
      <path id="Trazado_16499" data-name="Trazado 16499" d="M0,.116A2.784,2.784,0,0,0,1.761,2.132L1.606,0Z" transform="translate(0 0)" fill="none"/>
    </clipPath>
    <clipPath id="clip-path-15">
      <path id="Trazado_16500" data-name="Trazado 16500" d="M0,.742.154,2.874a7.853,7.853,0,0,0,3.419.336l6.914-.375L10.282,0Z" transform="translate(0)" fill="none"/>
    </clipPath>
    <clipPath id="clip-path-16">
      <path id="Trazado_16501" data-name="Trazado 16501" d="M0,.743.2,3.578l10.3-.559L10.282,0Z" transform="translate(0)" fill="none"/>
    </clipPath>
    <clipPath id="clip-path-17">
      <path id="Trazado_16502" data-name="Trazado 16502" d="M0,.178.218,3.2l3.126-.17L2.47,0Z" transform="translate(0 0)" fill="none"/>
    </clipPath>
    <clipPath id="clip-path-18">
      <rect id="Rectángulo_4088" data-name="Rectángulo 4088" width="41.361" height="40.903" fill="none"/>
    </clipPath>
    <clipPath id="clip-path-19">
      <path id="Trazado_16519" data-name="Trazado 16519" d="M15.815.047.366,4.135a.492.492,0,0,0-.35.6L.326,5.906a.492.492,0,0,0,.6.35L16.376,2.168A7.594,7.594,0,0,0,18.716.41,5.209,5.209,0,0,0,16.369,0a2.44,2.44,0,0,0-.555.047" fill="none"/>
    </clipPath>
    <linearGradient id="linear-gradient" x1="-1.939" y1="5.295" x2="-1.901" y2="5.295" gradientUnits="objectBoundingBox">
      <stop offset="0" stop-color="#004593"/>
      <stop offset="1" stop-color="#006cac"/>
    </linearGradient>
    <clipPath id="clip-path-21">
      <rect id="Rectángulo_3957" data-name="Rectángulo 3957" width="32.595" height="32.595" fill="none"/>
    </clipPath>
    <clipPath id="clip-path-22">
      <rect id="Rectángulo_3963" data-name="Rectángulo 3963" width="14.181" height="12.064" fill="none"/>
    </clipPath>
    <clipPath id="clip-path-23">
      <rect id="Rectángulo_3966" data-name="Rectángulo 3966" width="55.345" height="74.278" fill="none"/>
    </clipPath>
    <clipPath id="clip-path-24">
      <rect id="Rectángulo_3967" data-name="Rectángulo 3967" width="15.473" height="8.981" fill="none"/>
    </clipPath>
    <clipPath id="clip-path-25">
      <rect id="Rectángulo_3968" data-name="Rectángulo 3968" width="42.133" height="13.727" fill="none"/>
    </clipPath>
    <clipPath id="clip-path-26">
      <rect id="Rectángulo_3971" data-name="Rectángulo 3971" width="39.002" height="63.526" fill="none"/>
    </clipPath>
    <clipPath id="clip-path-27">
      <rect id="Rectángulo_3972" data-name="Rectángulo 3972" width="10.908" height="6.88" fill="none"/>
    </clipPath>
    <clipPath id="clip-path-28">
      <rect id="Rectángulo_3973" data-name="Rectángulo 3973" width="11.294" height="5.912" fill="none"/>
    </clipPath>
  </defs>
  <g id="Grupo_5289" data-name="Grupo 5289" transform="translate(7.933)">
    <g id="Grupo_3853" data-name="Grupo 3853" transform="translate(-10.174 87.078) rotate(1)">
      <line id="Línea_278" data-name="Línea 278" y1="28.672" x2="4.623" transform="translate(39.919 173.918)" fill="none" stroke="#003f8a" stroke-miterlimit="10" stroke-width="0.454"/>
      <line id="Línea_281" data-name="Línea 281" x2="45.444" transform="translate(53.171 197.518)" fill="none" stroke="#a6b4d1" stroke-miterlimit="10" stroke-width="0.68"/>
      <line id="Línea_286" data-name="Línea 286" x2="33.541" transform="translate(56.652 121.724)" fill="none" stroke="#a6b4d1" stroke-miterlimit="10" stroke-width="0.68"/>
      <line id="Línea_287" data-name="Línea 287" x2="38.386" transform="translate(55.471 147.427)" fill="none" stroke="#a6b4d1" stroke-miterlimit="10" stroke-width="0.68"/>
      <line id="Línea_288" data-name="Línea 288" x2="41.594" transform="translate(54.339 172.09)" fill="none" stroke="#a6b4d1" stroke-miterlimit="10" stroke-width="0.68"/>
      <line id="Línea_289" data-name="Línea 289" x2="34.436" transform="translate(36.213 187.502)" fill="none" stroke="#a6b4d1" stroke-miterlimit="10" stroke-width="0.68"/>
      <line id="Línea_290" data-name="Línea 290" x2="31.685" transform="translate(42.98 156.165)" fill="none" stroke="#a6b4d1" stroke-miterlimit="10" stroke-width="0.68"/>
      <line id="Línea_291" data-name="Línea 291" x2="29.816" y2="0.249" transform="translate(48.415 130.998)" fill="none" stroke="#a6b4d1" stroke-miterlimit="10" stroke-width="0.68"/>
      <path id="Trazado_16302" data-name="Trazado 16302" d="M0,4.1S.021,2.611.247,0" transform="translate(4.216 96.074)" fill="none" stroke="#1e2e62" stroke-miterlimit="10" stroke-width="0.454"/>
      <g id="Grupo_3852" data-name="Grupo 3852" transform="translate(0 0)">
        <g id="Grupo_3851" data-name="Grupo 3851" transform="matrix(0.999, -0.035, 0.035, 0.999, 5.535, 123.448)">
          <path id="Trazado_16287" data-name="Trazado 16287" d="M21.023,97.558S-15.963,16.393,8.181,1.751,38.557,69.077,38.557,69.077,42.084,56.151,48.271,57.8s2.588,9.962,0,17.667c0,0,7.04-6.164,10.7-.514S57.5,92.421,44.4,97.558Z" transform="translate(0 0)" fill="#62c1f1"/>
          <line id="Línea_276" data-name="Línea 276" x1="21.144" y1="73.457" transform="translate(11.263 24.101)" fill="none" stroke="#003f8a" stroke-miterlimit="10" stroke-width="0.454"/>
          <line id="Línea_277" data-name="Línea 277" x2="7.51" y2="3.972" transform="translate(12.632 50.981)" fill="none" stroke="#003f8a" stroke-miterlimit="10" stroke-width="0.454"/>
        </g>
        <rect id="Rectángulo_3952" data-name="Rectángulo 3952" width="40.584" height="17.467" transform="translate(50.449 82.702)" fill="#a6b4d1"/>
        <line id="Línea_282" data-name="Línea 282" x1="5.137" y2="111.851" transform="translate(52.505 100.17)" fill="none" stroke="#a6b4d1" stroke-miterlimit="10" stroke-width="0.68"/>
        <line id="Línea_283" data-name="Línea 283" x2="12.843" y2="111.851" transform="translate(87.437 100.17)" fill="none" stroke="#a6b4d1" stroke-miterlimit="10" stroke-width="0.68"/>
        <line id="Línea_284" data-name="Línea 284" x1="21.683" y2="101.632" transform="translate(33.39 100.17)" fill="none" stroke="#a6b4d1" stroke-miterlimit="10" stroke-width="0.68"/>
        <line id="Línea_285" data-name="Línea 285" x1="16.438" y2="111.851" transform="translate(67.403 97.74)" fill="none" stroke="#a6b4d1" stroke-miterlimit="10" stroke-width="0.68"/>
        <line id="Línea_292" data-name="Línea 292" x2="29.317" transform="translate(52.505 112.064)" fill="none" stroke="#a6b4d1" stroke-miterlimit="10" stroke-width="0.68"/>
        <path id="Trazado_16290" data-name="Trazado 16290" d="M17.172.425,17.1,2.967,16.277.56l-2.6.394L12.8,3.617,11.786,1.239l-1.831.275.02,3.334L8.651,1.711l-2.687.405L5.583,3.622,4.777,2.3l-1.849.28L2.853,5.118,2.033,2.71,0,3.016,1.68,14,21.7,12.053,19.987,0Z" transform="translate(56.53 24.997)" fill="#ffd500"/>
        <path id="Trazado_16291" data-name="Trazado 16291" d="M0,3.016c.77,5.1,1.613,9.195,6.35,8.48l3.513-.531,3.91,25.907a1.541,1.541,0,0,0,3.047-.461l-3.91-25.9,3.041-.461C20.685,9.332,20.755,5.1,19.987,0Z" transform="translate(57.924 34.226)" fill="#b8d0ea"/>
        <rect id="Rectángulo_3953" data-name="Rectángulo 3953" width="20.109" height="4.124" transform="translate(57.732 35.972) rotate(-8.579)" fill="#3874ba"/>
        <path id="Trazado_16292" data-name="Trazado 16292" d="M3.069,37.949A1.536,1.536,0,0,1,0,37.772L2.112,1.448a1.536,1.536,0,1,1,3.067.177Z" transform="translate(81.821 33.618)" fill="#b8d0ea"/>
        <rect id="Rectángulo_3954" data-name="Rectángulo 3954" width="26.2" height="23.784" rx="2.525" transform="translate(64.833 58.92)" fill="#09b0e4"/>
        <path id="Trazado_16293" data-name="Trazado 16293" d="M8.734,17.465A8.733,8.733,0,1,1,8.734,0V1.027a7.7,7.7,0,1,0,0,15.41Z" transform="translate(58.603 60.617)" fill="#09b0e4"/>
        <path id="Trazado_16303" data-name="Trazado 16303" d="M0,87.673C3.972,63.131,20.026,10.129,84.807,0" transform="translate(5.517 0)" fill="none" stroke="#1e2e62" stroke-miterlimit="10" stroke-width="0.454" stroke-dasharray="3.739 3.739"/>
      </g>
    </g>
    <g id="Grupo_3864" data-name="Grupo 3864" transform="translate(104.691 298.528)">
      <path id="Trazado_16296" data-name="Trazado 16296" d="M26.3,229.268a1.35,1.35,0,1,1-1.315-1.043,1.2,1.2,0,0,1,1.315,1.043" transform="translate(-23.671 -226.895)" fill="#62c1f1"/>
      <path id="Trazado_16297" data-name="Trazado 16297" d="M53.663,231.287c0,.55-.81,1-1.808,1s-1.809-.447-1.809-1,.81-1,1.809-1,1.808.446,1.808,1" transform="translate(-34.89 -227.774)" fill="#62c1f1"/>
      <path id="Trazado_16298" data-name="Trazado 16298" d="M53.344,226.763a.636.636,0,1,1-.635-.59.614.614,0,0,1,.635.59" transform="translate(-35.754 -226.022)" fill="#62c1f1"/>
      <path id="Trazado_16299" data-name="Trazado 16299" d="M35.173,243.2a.553.553,0,1,1-.544-.453.5.5,0,0,1,.544.453" transform="translate(-28.101 -233.071)" fill="#62c1f1"/>
      <path id="Trazado_16300" data-name="Trazado 16300" d="M47.873,241.46a.853.853,0,0,0,.013-.086c0-.726-.864-1.315-1.929-1.315s-1.93.589-1.93,1.315.864,1.315,1.93,1.315c.057,0,.111-.009.168-.012a1.541,1.541,0,0,0,1.179.465c.745,0,1.348-.4,1.348-.884,0-.354-.319-.658-.779-.8" transform="translate(-32.33 -231.93)" fill="#62c1f1"/>
      <path id="Trazado_16301" data-name="Trazado 16301" d="M40.772,227.936c0-1.118-2.012-2.025-4.495-2.025s-4.5.907-4.5,2.025a1.42,1.42,0,0,0,.733,1.107c-2.452.217-4.269.992-4.269,1.916,0,1.093,2.537,1.98,5.667,1.98s5.667-.887,5.667-1.98c0-.464-.46-.891-1.226-1.228,1.436-.338,2.418-1.014,2.418-1.8" transform="translate(-25.617 -225.911)" fill="#62c1f1"/>
    </g>
    <g id="Grupo_3912" data-name="Grupo 3912" transform="translate(138.781 0) rotate(9)">
      <g id="Grupo_3911" data-name="Grupo 3911" clip-path="url(#clip-path)">
        <g id="Grupo_3906" data-name="Grupo 3906">
          <g id="Grupo_3905" data-name="Grupo 3905" clip-path="url(#clip-path)">
            <path id="Trazado_16451" data-name="Trazado 16451" d="M6.9,2.879c.682,1.3-3.859,2.484-4.434,3.042C1.106,6.724.59,3.814.069,3.182-.612,1.881,3.929.7,4.5.139c1.361-.8,1.877,2.108,2.4,2.74" transform="translate(58.177 107.771)" fill="#ea9867"/>
            <path id="Trazado_16452" data-name="Trazado 16452" d="M3.22,2.021a.83.83,0,0,1,.236,1.121.828.828,0,0,1-1.139-.108C1.91,2.472-.605,1.059.136.18c.786-.838,2.483,1.5,3.084,1.841" transform="translate(63.309 108.07)" fill="#ea9867"/>
            <path id="Trazado_16453" data-name="Trazado 16453" d="M1.39,3.069A.9.9,0,0,1,.131,2.922C-.637,1.8,2.2.745,2.742.186A.9.9,0,0,1,4,.331C4.768,1.455,1.933,2.509,1.39,3.069" transform="translate(57.458 112.919)" fill="#ea9867"/>
            <path id="Trazado_16454" data-name="Trazado 16454" d="M1.582,3.762A1,1,0,0,1,.2,3.925C-.788,2.9,2.138,1.078,2.6.373A1,1,0,0,1,3.977.21c.992,1.03-1.934,2.846-2.395,3.551" transform="translate(59.516 111.83)" fill="#ea9867"/>
            <path id="Trazado_16455" data-name="Trazado 16455" d="M1.435,3.525a.878.878,0,0,1-1.185.313c-1-.772,1.313-2.725,1.624-3.4A.881.881,0,0,1,3.059.124c1,.774-1.312,2.725-1.624,3.4" transform="translate(62.047 110.654)" fill="#ea9867"/>
            <path id="Trazado_16456" data-name="Trazado 16456" d="M6.9,2.878c.681,1.3-3.86,2.484-4.434,3.042C1.105,6.723.59,3.813.07,3.181-.613,1.881,3.929.7,4.5.139c1.361-.8,1.877,2.107,2.4,2.739" transform="translate(70.106 101.934)" fill="#ea9867"/>
            <path id="Trazado_16457" data-name="Trazado 16457" d="M3.22,2.021a.827.827,0,0,1,.237,1.12.829.829,0,0,1-1.14-.107C1.909,2.472-.606,1.058.136.18c.785-.838,2.483,1.5,3.084,1.841" transform="translate(75.237 102.234)" fill="#ea9867"/>
            <path id="Trazado_16458" data-name="Trazado 16458" d="M1.39,3.068A.9.9,0,0,1,.131,2.922C-.637,1.8,2.2.745,2.742.186A.9.9,0,0,1,4,.331C4.768,1.454,1.933,2.508,1.39,3.068" transform="translate(69.387 107.083)" fill="#ea9867"/>
            <path id="Trazado_16459" data-name="Trazado 16459" d="M1.583,3.761A1,1,0,0,1,.2,3.924C-.789,2.9,2.139,1.078,2.6.373A1,1,0,0,1,3.976.21c.993,1.03-1.933,2.846-2.393,3.551" transform="translate(71.445 105.994)" fill="#ea9867"/>
            <path id="Trazado_16460" data-name="Trazado 16460" d="M1.435,3.525A.878.878,0,0,1,.25,3.838c-1-.773,1.313-2.725,1.625-3.4A.881.881,0,0,1,3.059.124C4.065.9,1.747,2.85,1.435,3.525" transform="translate(73.975 104.818)" fill="#ea9867"/>
            <path id="Trazado_16461" data-name="Trazado 16461" d="M23.5,36.277c-5.041-8.2-12.2-24.73-16.714-33.337C5.075-.566,3.244-.345,1.314.6-1.3,1.877.48,7.745,2.38,11.629c3.364,7.22,10.575,20.916,13.609,28.324l.984-1.736,1.128.988.6-1.5,1.4.525-.044-1.5,1.732.671.22-1.455Z" transform="translate(41.586 72.404)" fill="#5e2f13"/>
            <path id="Trazado_16462" data-name="Trazado 16462" d="M23.5,36.277c-5.041-8.2-12.2-24.73-16.714-33.337C5.075-.566,3.244-.345,1.314.6-1.3,1.877.48,7.745,2.38,11.629c3.365,7.22,10.574,20.917,13.609,28.324l.984-1.736,1.128.989.6-1.5,1.4.526-.045-1.5,1.732.671.22-1.454Z" transform="translate(53.598 66.526)" fill="#5e2f13"/>
            <path id="Trazado_16463" data-name="Trazado 16463" d="M1.484,2.326a.559.559,0,0,1-.449.695.676.676,0,0,1-.693-.555C.336,1.85-.491.138.449.008c.923-.143.829,1.8,1.035,2.318" transform="translate(70.689 80.915)" fill="#ea9867"/>
            <path id="Trazado_16464" data-name="Trazado 16464" d="M5.931,2.736C6.6,3.93,2.766,4.862,2.253,5.361,1.081,6.028.537,3.271.079,2.728-.593,1.535,3.244.6,3.757.1,4.93-.564,5.473,2.192,5.931,2.736" transform="translate(70.691 77.852)" fill="#ea9867"/>
            <g id="Grupo_3867" data-name="Grupo 3867" transform="translate(70.46 78.442)" opacity="0.6" style="mix-blend-mode: multiply;isolation: isolate">
              <g id="Grupo_3866" data-name="Grupo 3866">
                <g id="Grupo_3865" data-name="Grupo 3865" clip-path="url(#clip-path-3)">
                  <path id="Trazado_16465" data-name="Trazado 16465" d="M0,2.608l.417.984.668-1.357,1.122.729L2.56,1.794l1.171.237,0-1.053,1.387.457L5.236.25,4.858,0C3.285.511.942,1.111,0,2.608" transform="translate(0 0)" fill="#171615"/>
                </g>
              </g>
            </g>
            <path id="Trazado_16466" data-name="Trazado 16466" d="M16.024,37.2C12.732,28.71,4.641,13.762.809,5.412-.813,2.1.245.944,1.862.153,4.052-.919,7.3,3.859,9.1,7.529c3.422,6.707,9.5,20,13.22,26.592l-1.708-.35.14,1.388-1.356-.481-.32,1.3-1.032-.931-.382,1.623-1.133-.72Z" transform="translate(54.538 44.903)" fill="#5e2f13"/>
            <path id="Trazado_16467" data-name="Trazado 16467" d="M2.512,3.017a.842.842,0,0,1-.423,1.128A.906.906,0,0,1,.994,3.577C.825,2.721-.774.53.47.057,1.7-.432,2.093,2.379,2.512,3.017" transform="translate(72.148 81.952)" fill="#ea9867"/>
            <path id="Trazado_16468" data-name="Trazado 16468" d="M2.687,3.428a.923.923,0,0,1-.362,1.25c-.416.2-1.009-.244-1.147-.671C.993,3.1-.811.583.436.049,1.7-.43,2.234,2.761,2.687,3.428" transform="translate(73.744 81.14)" fill="#ea9867"/>
            <path id="Trazado_16469" data-name="Trazado 16469" d="M2.577,2.955A.851.851,0,0,1,2.195,4.1a.9.9,0,0,1-1.108-.527C.886,2.724-.777.589.444.068c1.214-.537,1.7,2.267,2.133,2.887" transform="translate(75.144 80.116)" fill="#ea9867"/>
            <path id="Trazado_16470" data-name="Trazado 16470" d="M1.362,2.38a.56.56,0,0,0,.824.072C2.935,2.044.632-.636.167.14c-.679.641.917,1.762,1.2,2.24" transform="translate(42.219 95.078)" fill="#ea9867"/>
            <path id="Trazado_16471" data-name="Trazado 16471" d="M1.174,4.986C1.7,6.249,4.795,3.792,5.505,3.692c1.246-.516-.6-2.637-.746-3.333C4.231-.9,1.139,1.555.43,1.653c-1.247.517.6,2.637.744,3.333" transform="translate(37.581 94.357)" fill="#ea9867"/>
            <g id="Grupo_3870" data-name="Grupo 3870" transform="translate(37.828 94.747)" opacity="0.6" style="mix-blend-mode: multiply;isolation: isolate">
              <g id="Grupo_3869" data-name="Grupo 3869">
                <g id="Grupo_3868" data-name="Grupo 3868" clip-path="url(#clip-path-4)">
                  <path id="Trazado_16472" data-name="Trazado 16472" d="M5.074.014,5.6.947,4.114.641,4,1.974,2.86,1.535,2.33,2.6,1.5,1.957,1.01,3.332,0,2.7l.034-.452C1.4,1.321,3.315-.161,5.074.014" transform="translate(0 0)" fill="#171615"/>
                </g>
              </g>
            </g>
            <path id="Trazado_16473" data-name="Trazado 16473" d="M21.574,34.384C16.89,26.574,10.053,11.012,5.813,2.863,4.193-.449,2.63-.324,1.014.467-1.176,1.539.6,7.037,2.4,10.707c3.2,6.819,9.96,19.774,12.882,26.758l.772-1.562,1.011.961.452-1.365,1.222.546-.1-1.386,1.516.694.126-1.335Z" transform="translate(22.098 61.104)" fill="#5e2f13"/>
            <path id="Trazado_16474" data-name="Trazado 16474" d="M1.437,3.547a.842.842,0,0,0,1.15.358.887.887,0,0,0,.225-1.211C2.3,2.145,1.479-.6.352.119-.79.793,1.19,2.825,1.437,3.547" transform="translate(41.983 96.934)" fill="#ea9867"/>
            <path id="Trazado_16475" data-name="Trazado 16475" d="M1.621,3.943a.922.922,0,0,0,1.209.481C3.986,3.719,1.791,1.339,1.544.572A.924.924,0,0,0,.334.092C-.821.8,1.373,3.176,1.621,3.943" transform="translate(40.395 97.691)" fill="#ea9867"/>
            <path id="Trazado_16476" data-name="Trazado 16476" d="M1.345,3.56a.851.851,0,0,0,1.141.4.876.876,0,0,0,.266-1.2C2.261,2.2,1.526-.567.375.1c-1.169.629.749,2.73.97,3.456" transform="translate(38.696 98.174)" fill="#ea9867"/>
            <g id="Grupo_3873" data-name="Grupo 3873" transform="translate(28.967 45.574)" opacity="0.5" style="mix-blend-mode: multiply;isolation: isolate">
              <g id="Grupo_3872" data-name="Grupo 3872">
                <g id="Grupo_3871" data-name="Grupo 3871" clip-path="url(#clip-path-5)">
                  <path id="Trazado_16477" data-name="Trazado 16477" d="M30.891,2.186c-1.263-1.518-2.649-.145-4.2,1.521-5.759-4.816-13.025-4.715-18.929-1C-4.412,9.26-.115,23.334,6.1,33.768,12.477,47.629,30.38,47.207,36.73,35.1c-.391-.737-1.364-2.268-.4-2.871-.278-.461-.558-1.156.029-1.515-.092-.67-.7-1.662-.131-2.254-.991-.848-.318-2.743.769-1.691.48.818.712,1.363,1.311,2.588.967-5.872-3.715-13.566-6.22-18.825-.549-1.124-1.7-3.537-2.92-4.531l.338-3.687Z" transform="translate(0 0)" fill="#171615"/>
                </g>
              </g>
            </g>
            <path id="Trazado_16478" data-name="Trazado 16478" d="M35.75,19.236C46.314,40.488,16.439,55.108,6.143,33.721-1,21.652-4.522,7.264,10.454,1.368,22.9-4.143,31.361,8.044,35.75,19.236" transform="translate(28.38 45.371)" fill="#5e2f13"/>
            <path id="Trazado_16479" data-name="Trazado 16479" d="M26.261,11.792c3.291,6.581-.7,13.873-7.365,16.152-8.9,4.1-14.871-2.8-17.72-10.571C-2.115,10.792,1.873,3.5,8.54,1.221c8.9-4.1,14.872,2.8,17.721,10.571" transform="translate(36.58 59.417)" fill="#ea9867"/>
            <g id="Grupo_3876" data-name="Grupo 3876" transform="translate(24.637 62.268)" opacity="0.5" style="mix-blend-mode: multiply;isolation: isolate">
              <g id="Grupo_3875" data-name="Grupo 3875">
                <g id="Grupo_3874" data-name="Grupo 3874" clip-path="url(#clip-path-6)">
                  <path id="Trazado_16480" data-name="Trazado 16480" d="M0,2.615l5.343,3.55L9.051.238S6.922-.327,6.423.284L3.938,5.153Z" transform="translate(0 0)" fill="#171615"/>
                </g>
              </g>
            </g>
            <g id="Grupo_3879" data-name="Grupo 3879" transform="translate(33.582 49.807)" opacity="0.5" style="mix-blend-mode: multiply;isolation: isolate">
              <g id="Grupo_3878" data-name="Grupo 3878">
                <g id="Grupo_3877" data-name="Grupo 3877" clip-path="url(#clip-path-7)">
                  <path id="Trazado_16481" data-name="Trazado 16481" d="M0,12.741l12.917-.2,6.514-9.785c.685.015,4.272.031,4.868.137A3,3,0,0,1,23.306,0s-5.5,2.135-6,2.746L11.31,12.505Z" transform="translate(0 0)" fill="#171615"/>
                </g>
              </g>
            </g>
            <path id="Trazado_16482" data-name="Trazado 16482" d="M2.656.192C3.842-.933,6.044,3.232,6.774,3.681c1.119,1.163-1.917,2.6-2.411,3.292C3.179,8.1.973,3.932.245,3.484-.872,2.319,2.161.883,2.656.192" transform="translate(81.534 26.522)" fill="#e99866"/>
            <path id="Trazado_16483" data-name="Trazado 16483" d="M.837.567A.718.718,0,0,1,1.75.045.84.84,0,0,1,2.1,1.112c-.347.538-.646,3.223-1.712,2.767C-.659,3.437.737,1.25.837.567" transform="translate(81.822 25.309)" fill="#e99866"/>
            <rect id="Rectángulo_3988" data-name="Rectángulo 3988" width="2.655" height="25.996" transform="translate(76.21 15.657) rotate(-33.694)" fill="#2e2e2d"/>
            <rect id="Rectángulo_3989" data-name="Rectángulo 3989" width="2.655" height="5.934" transform="translate(76.236 15.696) rotate(-33.694)" fill="#fff"/>
            <path id="Trazado_16484" data-name="Trazado 16484" d="M0,.676.958.87,1.4,0l.111.971.965.154-.889.405.151.965-.66-.72-.871.442L.69,1.368Z" transform="translate(74.712 8.164)" fill="#fff7ba"/>
            <path id="Trazado_16485" data-name="Trazado 16485" d="M2.614,0,2.423,1.5l1.4.588-1.488.283L2.2,3.882,1.475,2.555,0,2.9,1.038,1.8.254.5l1.37.646Z" transform="translate(70.409 8.156)" fill="#fff7ba"/>
            <path id="Trazado_16486" data-name="Trazado 16486" d="M5.832.958,4.488,2.989,6.083,4.83,3.736,4.179,2.478,6.264,2.372,3.831,0,3.28l2.281-.854L2.073,0,3.589,1.906Z" transform="translate(69.365 0)" fill="#fff7ba"/>
            <path id="Trazado_16487" data-name="Trazado 16487" d="M1.805.509,1.295,1l.338.624-.627-.333-.489.514.123-.7L0,.8.7.7.8,0l.311.638Z" transform="translate(74.495 12.018)" fill="#fff7ba"/>
            <path id="Trazado_16488" data-name="Trazado 16488" d="M3,.225A1,1,0,0,1,4.43.382a1.058,1.058,0,0,1-.336,1.433C3.277,2.17,1.055,4.782.172,3.456-.761,2.171,2.383.9,3,.225" transform="translate(84.301 28.698)" fill="#e99866"/>
            <path id="Trazado_16489" data-name="Trazado 16489" d="M3.679.327A1.163,1.163,0,0,1,5.3.326c.916,1.357-2.879,3.058-3.538,3.806a1.162,1.162,0,0,1-1.625,0C-.773,2.772,3.019,1.074,3.679.327" transform="translate(83.226 26.765)" fill="#e99866"/>
            <path id="Trazado_16490" data-name="Trazado 16490" d="M3.294.3A1.1,1.1,0,0,1,4.84.328a1.134,1.134,0,0,1-.387,1.518c-.855.4-3.3,3.373-4.285,2.083C-.8,2.635,2.679,1.029,3.294.3" transform="translate(83.126 24.923)" fill="#e99866"/>
            <g id="Grupo_3882" data-name="Grupo 3882" transform="translate(81.823 29.054)" opacity="0.6" style="mix-blend-mode: multiply;isolation: isolate">
              <g id="Grupo_3881" data-name="Grupo 3881">
                <g id="Grupo_3880" data-name="Grupo 3880" clip-path="url(#clip-path-8)">
                  <path id="Trazado_16491" data-name="Trazado 16491" d="M6.426,3.3,6.9,2.109,5.192,2.7,4.85,1.142l-1.282.7L2.773.654l-.88.9L1.1,0,0,.9l.112.531C1.876,2.32,4.37,3.776,6.426,3.3" transform="translate(0 0)" fill="#161614"/>
                </g>
              </g>
            </g>
            <path id="Trazado_16492" data-name="Trazado 16492" d="M0,19.276,6.033,1.245,6.25,0,7.407,1.732,8.455.435,9.2,1.983l1.362-.837.1,1.658,1.686-1.058L12.7,3.307l1.479-.637C13.5,2.888,7.8,20.635,7.375,21.758,2.558,27.231,0,19.276,0,19.276" transform="translate(74.866 28.7)" fill="#5e2f13"/>
            <path id="Trazado_16493" data-name="Trazado 16493" d="M27.15,7.761,5.358,9.334C.963,9.651.154,7.963,0,5.817,1.491-.485,20.826,1.119,26.59,0" transform="translate(52.301 44.578)" fill="#5e2f13"/>
            <path id="Trazado_16494" data-name="Trazado 16494" d="M25.693,8,5.359,9.1C.963,9.42.155,7.732,0,5.586,1.056-.212,18,.876,23.383,0Z" transform="translate(52.301 44.809)" fill="#102469"/>
            <g id="Grupo_3901" data-name="Grupo 3901" transform="translate(41.871 37.742)" opacity="0.5" style="mix-blend-mode: darken;isolation: isolate">
              <g id="Grupo_3900" data-name="Grupo 3900">
                <g id="Grupo_3899" data-name="Grupo 3899" clip-path="url(#clip-path-9)">
                  <g id="Grupo_3884" data-name="Grupo 3884" transform="translate(10.43 10.409)">
                    <g id="Grupo_3883" data-name="Grupo 3883" transform="translate(0 0)" clip-path="url(#clip-path-10)">
                      <rect id="Rectángulo_3991" data-name="Rectángulo 3991" width="2.577" height="2.577" transform="matrix(0.997, -0.072, 0.072, 0.997, 0.222, -0.471)" fill="#1a1819"/>
                      <rect id="Rectángulo_3992" data-name="Rectángulo 3992" width="2.577" height="2.577" transform="translate(-0.149 -5.613) rotate(-4.119)" fill="#1a1819"/>
                      <rect id="Rectángulo_3993" data-name="Rectángulo 3993" width="2.577" height="2.578" transform="matrix(0.997, -0.072, 0.072, 0.997, -2.534, -2.856)" fill="#1a1819"/>
                      <rect id="Rectángulo_3994" data-name="Rectángulo 3994" width="2.577" height="2.577" transform="matrix(0.997, -0.072, 0.072, 0.997, -2.905, -7.997)" fill="#1a1819"/>
                      <rect id="Rectángulo_3995" data-name="Rectángulo 3995" width="2.577" height="2.577" transform="matrix(0.997, -0.072, 0.072, 0.997, -4.919, -0.1)" fill="#1a1819"/>
                      <rect id="Rectángulo_3996" data-name="Rectángulo 3996" width="2.577" height="2.577" transform="matrix(0.997, -0.072, 0.072, 0.997, -5.29, -5.241)" fill="#1a1819"/>
                      <rect id="Rectángulo_3997" data-name="Rectángulo 3997" width="2.577" height="2.577" transform="translate(-7.674 -2.486) rotate(-4.119)" fill="#1a1819"/>
                      <rect id="Rectángulo_3998" data-name="Rectángulo 3998" width="2.577" height="2.577" transform="matrix(0.997, -0.072, 0.072, 0.997, -8.045, -7.626)" fill="#1a1819"/>
                      <rect id="Rectángulo_3999" data-name="Rectángulo 3999" width="2.577" height="2.577" transform="translate(-2.162 2.284) rotate(-4.119)" fill="#1a1819"/>
                      <rect id="Rectángulo_4000" data-name="Rectángulo 4000" width="2.577" height="2.577" transform="matrix(0.997, -0.072, 0.072, 0.997, -7.304, 2.655)" fill="#1a1819"/>
                      <rect id="Rectángulo_4001" data-name="Rectángulo 4001" width="2.577" height="2.577" transform="matrix(0.997, -0.072, 0.072, 0.997, -10.059, 0.271)" fill="#1a1819"/>
                      <rect id="Rectángulo_4002" data-name="Rectángulo 4002" width="2.577" height="2.577" transform="matrix(0.997, -0.072, 0.072, 0.997, -10.43, -4.87)" fill="#1a1819"/>
                    </g>
                  </g>
                  <g id="Grupo_3886" data-name="Grupo 3886" transform="translate(11.979 7.854)">
                    <g id="Grupo_3885" data-name="Grupo 3885" transform="translate(0 0)" clip-path="url(#clip-path-11)">
                      <rect id="Rectángulo_4003" data-name="Rectángulo 4003" width="2.577" height="2.577" transform="matrix(0.997, -0.072, 0.072, 0.997, 8.955, 1.343)" fill="#1a1819"/>
                      <rect id="Rectángulo_4004" data-name="Rectángulo 4004" width="2.577" height="2.577" transform="translate(8.585 -3.799) rotate(-4.119)" fill="#1a1819"/>
                      <rect id="Rectángulo_4005" data-name="Rectángulo 4005" width="2.577" height="2.578" transform="matrix(0.997, -0.072, 0.072, 0.997, 6.2, -1.043)" fill="#1a1819"/>
                      <rect id="Rectángulo_4006" data-name="Rectángulo 4006" width="2.577" height="2.577" transform="matrix(0.997, -0.072, 0.072, 0.997, 5.829, -6.184)" fill="#1a1819"/>
                      <rect id="Rectángulo_4007" data-name="Rectángulo 4007" width="2.577" height="2.577" transform="translate(3.815 1.713) rotate(-4.119)" fill="#1a1819"/>
                      <rect id="Rectángulo_4008" data-name="Rectángulo 4008" width="2.577" height="2.577" transform="matrix(0.997, -0.072, 0.072, 0.997, 3.444, -3.428)" fill="#1a1819"/>
                      <rect id="Rectángulo_4009" data-name="Rectángulo 4009" width="2.577" height="2.578" transform="matrix(0.997, -0.072, 0.072, 0.997, 1.059, -0.672)" fill="#1a1819"/>
                      <rect id="Rectángulo_4010" data-name="Rectángulo 4010" width="2.577" height="2.577" transform="matrix(0.997, -0.072, 0.072, 0.997, 0.688, -5.813)" fill="#1a1819"/>
                      <rect id="Rectángulo_4011" data-name="Rectángulo 4011" width="2.577" height="2.577" transform="matrix(0.997, -0.072, 0.072, 0.997, 6.571, 4.098)" fill="#1a1819"/>
                      <rect id="Rectángulo_4012" data-name="Rectángulo 4012" width="2.577" height="2.577" transform="matrix(0.997, -0.072, 0.072, 0.997, 1.43, 4.469)" fill="#1a1819"/>
                      <rect id="Rectángulo_4013" data-name="Rectángulo 4013" width="2.577" height="2.577" transform="matrix(0.997, -0.072, 0.072, 0.997, -1.326, 2.085)" fill="#1a1819"/>
                      <rect id="Rectángulo_4014" data-name="Rectángulo 4014" width="2.577" height="2.577" transform="translate(-1.696 -3.057) rotate(-4.119)" fill="#1a1819"/>
                    </g>
                  </g>
                  <g id="Grupo_3888" data-name="Grupo 3888" transform="translate(22.129 7.234)">
                    <g id="Grupo_3887" data-name="Grupo 3887" transform="translate(0 0)" clip-path="url(#clip-path-12)">
                      <rect id="Rectángulo_4015" data-name="Rectángulo 4015" width="2.577" height="2.577" transform="matrix(0.997, -0.072, 0.072, 0.997, 9.087, 1.221)" fill="#1a1819"/>
                      <rect id="Rectángulo_4016" data-name="Rectángulo 4016" width="2.577" height="2.577" transform="matrix(0.997, -0.072, 0.072, 0.997, 8.716, -3.921)" fill="#1a1819"/>
                      <rect id="Rectángulo_4017" data-name="Rectángulo 4017" width="2.577" height="2.578" transform="matrix(0.997, -0.072, 0.072, 0.997, 6.331, -1.165)" fill="#1a1819"/>
                      <rect id="Rectángulo_4018" data-name="Rectángulo 4018" width="2.577" height="2.577" transform="matrix(0.997, -0.072, 0.072, 0.997, 5.96, -6.306)" fill="#1a1819"/>
                      <rect id="Rectángulo_4019" data-name="Rectángulo 4019" width="2.577" height="2.577" transform="translate(3.946 1.591) rotate(-4.119)" fill="#1a1819"/>
                      <rect id="Rectángulo_4020" data-name="Rectángulo 4020" width="2.577" height="2.577" transform="matrix(0.997, -0.072, 0.072, 0.997, 3.575, -3.55)" fill="#1a1819"/>
                      <rect id="Rectángulo_4021" data-name="Rectángulo 4021" width="2.577" height="2.578" transform="matrix(0.997, -0.072, 0.072, 0.997, 1.19, -0.794)" fill="#1a1819"/>
                      <rect id="Rectángulo_4022" data-name="Rectángulo 4022" width="2.577" height="2.577" transform="matrix(0.997, -0.072, 0.072, 0.997, 0.819, -5.935)" fill="#1a1819"/>
                      <rect id="Rectángulo_4023" data-name="Rectángulo 4023" width="2.577" height="2.577" transform="matrix(0.997, -0.072, 0.072, 0.997, 6.702, 3.976)" fill="#1a1819"/>
                      <rect id="Rectángulo_4024" data-name="Rectángulo 4024" width="2.577" height="2.577" transform="matrix(0.997, -0.072, 0.072, 0.997, 1.561, 4.347)" fill="#1a1819"/>
                      <rect id="Rectángulo_4025" data-name="Rectángulo 4025" width="2.577" height="2.577" transform="matrix(0.997, -0.072, 0.072, 0.997, -1.195, 1.963)" fill="#1a1819"/>
                      <rect id="Rectángulo_4026" data-name="Rectángulo 4026" width="2.577" height="2.577" transform="translate(-1.566 -3.179) rotate(-4.119)" fill="#1a1819"/>
                    </g>
                  </g>
                  <g id="Grupo_3890" data-name="Grupo 3890" transform="translate(32.42 7.066)">
                    <g id="Grupo_3889" data-name="Grupo 3889" transform="translate(0 0)" clip-path="url(#clip-path-13)">
                      <rect id="Rectángulo_4027" data-name="Rectángulo 4027" width="2.577" height="2.577" transform="matrix(0.997, -0.072, 0.072, 0.997, 9.078, 0.646)" fill="#1a1819"/>
                      <rect id="Rectángulo_4028" data-name="Rectángulo 4028" width="2.577" height="2.577" transform="matrix(0.997, -0.072, 0.072, 0.997, 8.707, -4.495)" fill="#1a1819"/>
                      <rect id="Rectángulo_4029" data-name="Rectángulo 4029" width="2.577" height="2.577" transform="translate(6.322 -1.74) rotate(-4.119)" fill="#1a1819"/>
                      <rect id="Rectángulo_4030" data-name="Rectángulo 4030" width="2.577" height="2.577" transform="matrix(0.997, -0.072, 0.072, 0.997, 5.951, -6.88)" fill="#1a1819"/>
                      <rect id="Rectángulo_4031" data-name="Rectángulo 4031" width="2.577" height="2.577" transform="matrix(0.997, -0.072, 0.072, 0.997, 3.937, 1.017)" fill="#1a1819"/>
                      <rect id="Rectángulo_4032" data-name="Rectángulo 4032" width="2.577" height="2.577" transform="matrix(0.997, -0.072, 0.072, 0.997, 3.566, -4.124)" fill="#1a1819"/>
                      <rect id="Rectángulo_4033" data-name="Rectángulo 4033" width="2.577" height="2.578" transform="matrix(0.997, -0.072, 0.072, 0.997, 1.181, -1.368)" fill="#1a1819"/>
                      <rect id="Rectángulo_4034" data-name="Rectángulo 4034" width="2.577" height="2.577" transform="translate(0.81 -6.51) rotate(-4.119)" fill="#1a1819"/>
                      <rect id="Rectángulo_4035" data-name="Rectángulo 4035" width="2.577" height="2.577" transform="matrix(0.997, -0.072, 0.072, 0.997, 6.693, 3.401)" fill="#1a1819"/>
                      <rect id="Rectángulo_4036" data-name="Rectángulo 4036" width="2.577" height="2.577" transform="matrix(0.997, -0.072, 0.072, 0.997, 1.552, 3.772)" fill="#1a1819"/>
                      <rect id="Rectángulo_4037" data-name="Rectángulo 4037" width="2.577" height="2.577" transform="matrix(0.997, -0.072, 0.072, 0.997, -1.204, 1.388)" fill="#1a1819"/>
                      <rect id="Rectángulo_4038" data-name="Rectángulo 4038" width="2.577" height="2.577" transform="matrix(0.997, -0.072, 0.072, 0.997, -1.575, -3.753)" fill="#1a1819"/>
                    </g>
                  </g>
                  <g id="Grupo_3892" data-name="Grupo 3892" transform="translate(10.61 13.7)">
                    <g id="Grupo_3891" data-name="Grupo 3891" transform="translate(0 0)" clip-path="url(#clip-path-14)">
                      <rect id="Rectángulo_4039" data-name="Rectángulo 4039" width="2.577" height="2.577" transform="matrix(0.997, -0.072, 0.072, 0.997, 0.785, 6.519)" fill="#1a1819"/>
                      <rect id="Rectángulo_4040" data-name="Rectángulo 4040" width="2.577" height="2.577" transform="matrix(0.997, -0.072, 0.072, 0.997, 0.414, 1.378)" fill="#1a1819"/>
                      <rect id="Rectángulo_4041" data-name="Rectángulo 4041" width="2.577" height="2.578" transform="matrix(0.997, -0.072, 0.072, 0.997, -1.971, 4.134)" fill="#1a1819"/>
                      <rect id="Rectángulo_4042" data-name="Rectángulo 4042" width="2.577" height="2.577" transform="translate(-2.342 -1.007) rotate(-4.119)" fill="#1a1819"/>
                      <rect id="Rectángulo_4043" data-name="Rectángulo 4043" width="2.577" height="2.577" transform="matrix(0.997, -0.072, 0.072, 0.997, -4.356, 6.89)" fill="#1a1819"/>
                      <rect id="Rectángulo_4044" data-name="Rectángulo 4044" width="2.577" height="2.577" transform="matrix(0.997, -0.072, 0.072, 0.997, -4.727, 1.749)" fill="#1a1819"/>
                      <rect id="Rectángulo_4045" data-name="Rectángulo 4045" width="2.577" height="2.577" transform="translate(-7.111 4.505) rotate(-4.119)" fill="#1a1819"/>
                      <rect id="Rectángulo_4046" data-name="Rectángulo 4046" width="2.577" height="2.577" transform="matrix(0.997, -0.072, 0.072, 0.997, -7.483, -0.636)" fill="#1a1819"/>
                      <rect id="Rectángulo_4047" data-name="Rectángulo 4047" width="2.577" height="2.577" transform="translate(-1.6 9.274) rotate(-4.119)" fill="#1a1819"/>
                      <rect id="Rectángulo_4048" data-name="Rectángulo 4048" width="2.577" height="2.577" transform="matrix(0.997, -0.072, 0.072, 0.997, -6.741, 9.646)" fill="#1a1819"/>
                      <rect id="Rectángulo_4049" data-name="Rectángulo 4049" width="2.577" height="2.577" transform="matrix(0.997, -0.072, 0.072, 0.997, -9.497, 7.261)" fill="#1a1819"/>
                      <rect id="Rectángulo_4050" data-name="Rectángulo 4050" width="2.577" height="2.577" transform="matrix(0.997, -0.072, 0.072, 0.997, -9.868, 2.12)" fill="#1a1819"/>
                    </g>
                  </g>
                  <g id="Grupo_3894" data-name="Grupo 3894" transform="translate(12.216 12.959)">
                    <g id="Grupo_3893" data-name="Grupo 3893" transform="translate(0 0)" clip-path="url(#clip-path-15)">
                      <rect id="Rectángulo_4051" data-name="Rectángulo 4051" width="2.577" height="2.577" transform="matrix(0.997, -0.072, 0.072, 0.997, 9.46, 6.519)" fill="#1a1819"/>
                      <rect id="Rectángulo_4052" data-name="Rectángulo 4052" width="2.577" height="2.577" transform="translate(9.09 1.377) rotate(-4.119)" fill="#1a1819"/>
                      <rect id="Rectángulo_4053" data-name="Rectángulo 4053" width="2.577" height="2.578" transform="matrix(0.997, -0.072, 0.072, 0.997, 6.704, 4.134)" fill="#1a1819"/>
                      <rect id="Rectángulo_4054" data-name="Rectángulo 4054" width="2.577" height="2.577" transform="matrix(0.997, -0.072, 0.072, 0.997, 6.333, -1.007)" fill="#1a1819"/>
                      <rect id="Rectángulo_4055" data-name="Rectángulo 4055" width="2.577" height="2.577" transform="translate(4.32 6.889) rotate(-4.119)" fill="#1a1819"/>
                      <rect id="Rectángulo_4056" data-name="Rectángulo 4056" width="2.577" height="2.577" transform="matrix(0.997, -0.072, 0.072, 0.997, 3.948, 1.749)" fill="#1a1819"/>
                      <rect id="Rectángulo_4057" data-name="Rectángulo 4057" width="2.577" height="2.578" transform="matrix(0.997, -0.072, 0.072, 0.997, 1.564, 4.505)" fill="#1a1819"/>
                      <rect id="Rectángulo_4058" data-name="Rectángulo 4058" width="2.577" height="2.577" transform="matrix(0.997, -0.072, 0.072, 0.997, 1.193, -0.636)" fill="#1a1819"/>
                      <rect id="Rectángulo_4059" data-name="Rectángulo 4059" width="2.577" height="2.577" transform="matrix(0.997, -0.072, 0.072, 0.997, 7.075, 9.275)" fill="#1a1819"/>
                      <rect id="Rectángulo_4060" data-name="Rectángulo 4060" width="2.577" height="2.577" transform="matrix(0.997, -0.072, 0.072, 0.997, 1.935, 9.646)" fill="#1a1819"/>
                      <rect id="Rectángulo_4061" data-name="Rectángulo 4061" width="2.577" height="2.577" transform="matrix(0.997, -0.072, 0.072, 0.997, -0.821, 7.261)" fill="#1a1819"/>
                      <rect id="Rectángulo_4062" data-name="Rectángulo 4062" width="2.577" height="2.577" transform="matrix(0.997, -0.072, 0.072, 0.997, -1.192, 2.12)" fill="#1a1819"/>
                    </g>
                  </g>
                  <g id="Grupo_3896" data-name="Grupo 3896" transform="translate(22.497 12.216)">
                    <g id="Grupo_3895" data-name="Grupo 3895" transform="translate(0 0)" clip-path="url(#clip-path-16)">
                      <rect id="Rectángulo_4063" data-name="Rectángulo 4063" width="2.577" height="2.577" transform="matrix(0.997, -0.072, 0.072, 0.997, 9.461, 6.52)" fill="#1a1819"/>
                      <rect id="Rectángulo_4064" data-name="Rectángulo 4064" width="2.577" height="2.577" transform="translate(9.09 1.378) rotate(-4.119)" fill="#1a1819"/>
                      <rect id="Rectángulo_4065" data-name="Rectángulo 4065" width="2.577" height="2.578" transform="matrix(0.997, -0.072, 0.072, 0.997, 6.705, 4.134)" fill="#1a1819"/>
                      <rect id="Rectángulo_4066" data-name="Rectángulo 4066" width="2.577" height="2.577" transform="matrix(0.997, -0.072, 0.072, 0.997, 6.334, -1.006)" fill="#1a1819"/>
                      <rect id="Rectángulo_4067" data-name="Rectángulo 4067" width="2.577" height="2.577" transform="translate(4.32 6.89) rotate(-4.119)" fill="#1a1819"/>
                      <rect id="Rectángulo_4068" data-name="Rectángulo 4068" width="2.577" height="2.577" transform="matrix(0.997, -0.072, 0.072, 0.997, 3.949, 1.75)" fill="#1a1819"/>
                      <rect id="Rectángulo_4069" data-name="Rectángulo 4069" width="2.577" height="2.578" transform="matrix(0.997, -0.072, 0.072, 0.997, 1.564, 4.505)" fill="#1a1819"/>
                      <rect id="Rectángulo_4070" data-name="Rectángulo 4070" width="2.577" height="2.577" transform="matrix(0.997, -0.072, 0.072, 0.997, 1.193, -0.635)" fill="#1a1819"/>
                      <rect id="Rectángulo_4071" data-name="Rectángulo 4071" width="2.577" height="2.577" transform="matrix(0.997, -0.072, 0.072, 0.997, 7.076, 9.275)" fill="#1a1819"/>
                      <rect id="Rectángulo_4072" data-name="Rectángulo 4072" width="2.577" height="2.577" transform="matrix(0.997, -0.072, 0.072, 0.997, 1.935, 9.646)" fill="#1a1819"/>
                      <rect id="Rectángulo_4073" data-name="Rectángulo 4073" width="2.577" height="2.577" transform="matrix(0.997, -0.072, 0.072, 0.997, -0.821, 7.262)" fill="#1a1819"/>
                      <rect id="Rectángulo_4074" data-name="Rectángulo 4074" width="2.577" height="2.577" transform="translate(-1.192 2.12) rotate(-4.119)" fill="#1a1819"/>
                    </g>
                  </g>
                  <g id="Grupo_3898" data-name="Grupo 3898" transform="translate(32.779 12.038)">
                    <g id="Grupo_3897" data-name="Grupo 3897" transform="translate(0 0)" clip-path="url(#clip-path-17)">
                      <rect id="Rectángulo_4075" data-name="Rectángulo 4075" width="2.577" height="2.577" transform="matrix(0.997, -0.072, 0.072, 0.997, 9.461, 5.956)" fill="#1a1819"/>
                      <rect id="Rectángulo_4076" data-name="Rectángulo 4076" width="2.577" height="2.577" transform="matrix(0.997, -0.072, 0.072, 0.997, 9.09, 0.814)" fill="#1a1819"/>
                      <rect id="Rectángulo_4077" data-name="Rectángulo 4077" width="2.577" height="2.577" transform="translate(6.705 3.57) rotate(-4.119)" fill="#1a1819"/>
                      <rect id="Rectángulo_4078" data-name="Rectángulo 4078" width="2.577" height="2.577" transform="matrix(0.997, -0.072, 0.072, 0.997, 6.334, -1.571)" fill="#1a1819"/>
                      <rect id="Rectángulo_4079" data-name="Rectángulo 4079" width="2.577" height="2.577" transform="matrix(0.997, -0.072, 0.072, 0.997, 4.32, 6.327)" fill="#1a1819"/>
                      <rect id="Rectángulo_4080" data-name="Rectángulo 4080" width="2.577" height="2.577" transform="matrix(0.997, -0.072, 0.072, 0.997, 3.949, 1.185)" fill="#1a1819"/>
                      <rect id="Rectángulo_4081" data-name="Rectángulo 4081" width="2.577" height="2.578" transform="matrix(0.997, -0.072, 0.072, 0.997, 1.564, 3.941)" fill="#1a1819"/>
                      <rect id="Rectángulo_4082" data-name="Rectángulo 4082" width="2.577" height="2.577" transform="matrix(0.997, -0.072, 0.072, 0.997, 1.193, -1.2)" fill="#1a1819"/>
                      <rect id="Rectángulo_4083" data-name="Rectángulo 4083" width="2.577" height="2.577" transform="matrix(0.997, -0.072, 0.072, 0.997, 7.076, 8.711)" fill="#1a1819"/>
                      <rect id="Rectángulo_4084" data-name="Rectángulo 4084" width="2.577" height="2.577" transform="matrix(0.997, -0.072, 0.072, 0.997, 1.935, 9.082)" fill="#1a1819"/>
                      <rect id="Rectángulo_4085" data-name="Rectángulo 4085" width="2.577" height="2.577" transform="matrix(0.997, -0.072, 0.072, 0.997, -0.821, 6.698)" fill="#1a1819"/>
                      <rect id="Rectángulo_4086" data-name="Rectángulo 4086" width="2.577" height="2.577" transform="translate(-1.192 1.556) rotate(-4.119)" fill="#1a1819"/>
                    </g>
                  </g>
                </g>
              </g>
            </g>
            <path id="Trazado_16503" data-name="Trazado 16503" d="M12.518,5.4s2.009,1.183.861,1.971C8.57,10.674-3.011,19.806.733,28.91,5.9,41.486,17.41,58.083,17.41,58.083l1.173-1.058.217,3.749L20.964,58.6l1.221,3.139,1.808-2.66,5.019,2.624,2.08-5.187,14.064-1.524,5.2-10.494,6.168-.535L56.5,39.034l2.538-.473-2.414-2.812,2.566-1.427L55.74,31.793l3.213-.024S47.584,12.016,40.261,3.751c-5.733-6.473-15-3.178-20.33-.414-.5.259-2.121-.5-2.544-.255,0,0,.212,1.9-.261,1.853a19.959,19.959,0,0,0-4.607.461" transform="translate(0 7.198)" fill="#603012"/>
            <g id="Grupo_3904" data-name="Grupo 3904" transform="translate(6.774 16.677)" opacity="0.42" style="mix-blend-mode: multiply;isolation: isolate">
              <g id="Grupo_3903" data-name="Grupo 3903">
                <g id="Grupo_3902" data-name="Grupo 3902" clip-path="url(#clip-path-18)">
                  <path id="Trazado_16504" data-name="Trazado 16504" d="M1.406,25.392s-4.118-7.325,1.742-11.444C9.61,9.407,14.263,10.7,16.487,11.893,16.3,9.3,17.035,4.4,24.25.968c7.131-3.388,11.91,3.211,11.91,3.211s5.437,7.743,1.825,12.015l2.652,4.328s4.077,8.949-7.13,16.621l.005.009c-.2.129-.388.253-.58.374s-.379.245-.574.366l-.005-.008c-11.649,7-18.146-.35-18.146-.35l-2.765-4.309C6.32,34.229,1.406,25.392,1.406,25.392" transform="translate(0 0)" fill="#040506"/>
                </g>
              </g>
            </g>
            <path id="Trazado_16505" data-name="Trazado 16505" d="M1.406,25.392s-4.119-7.325,1.742-11.444C9.611,9.407,14.263,10.7,16.487,11.893,16.3,9.3,17.036,4.4,24.251.968c7.13-3.388,11.91,3.211,11.91,3.211S41.6,11.92,37.986,16.193l2.652,4.327s4.077,8.95-7.13,16.622l.005.008c-.2.129-.388.253-.58.375s-.379.245-.574.366l-.005-.008c-11.648,6.995-18.147-.351-18.147-.351l-2.764-4.308C6.32,34.23,1.406,25.392,1.406,25.392" transform="translate(6.991 15.681)" fill="#f29c68"/>
            <path id="Trazado_16506" data-name="Trazado 16506" d="M.249,2.43A1.578,1.578,0,1,1,2.43,2.9,1.579,1.579,0,0,1,.249,2.43" transform="translate(33.579 30.934)" fill="#603012"/>
            <path id="Trazado_16507" data-name="Trazado 16507" d="M.238,2.313a1.5,1.5,0,1,1,2.077.455A1.5,1.5,0,0,1,.238,2.313" transform="translate(23.847 36.739)" fill="#603012"/>
            <path id="Trazado_16508" data-name="Trazado 16508" d="M.695,1.678s1.449.428,1.43-.74L1.538,0,0,.965Z" transform="translate(31.278 39.757)" fill="#341f13"/>
            <path id="Trazado_16509" data-name="Trazado 16509" d="M1.877.935S1.647,2.427.6,1.911L0,.981,1.529,0Z" transform="translate(33.89 38.075)" fill="#341f13"/>
            <path id="Trazado_16510" data-name="Trazado 16510" d="M37.112.61C32.605,2.024,4.811,19.209.006,23.395c-.12-2.349,1.682-5.358,1.682-5.358L31.882.314s3.683-.876,5.231.3" transform="translate(0.219 7.975)" fill="#2a3671"/>
            <path id="Trazado_16511" data-name="Trazado 16511" d="M36.561,1.086C32.054,2.5,3.146,20.614,0,23.281c.1-2.4,2.582-5.9,2.582-5.9L31.207,0s3.806-.086,5.354,1.085" transform="translate(0.253 7.232)" fill="#66529a"/>
            <path id="Trazado_16512" data-name="Trazado 16512" d="M0,5.65,2.118,0l4.1,7.041Z" transform="translate(17.988 10.494)" fill="#2a3671"/>
            <path id="Trazado_16513" data-name="Trazado 16513" d="M0,5.232,1.832,0,5.016,6.228Z" transform="translate(18.402 10.747)" fill="#66529a"/>
            <path id="Trazado_16514" data-name="Trazado 16514" d="M5.3.939,0,0,3.55,6.346Z" transform="translate(12.264 15.412)" fill="#2a3671"/>
            <path id="Trazado_16515" data-name="Trazado 16515" d="M4.907,1.059,0,0,3.23,5.2Z" transform="translate(12.341 15.538)" fill="#66529a"/>
            <path id="Trazado_16516" data-name="Trazado 16516" d="M2.936.762A1.583,1.583,0,1,1,.761.23,1.584,1.584,0,0,1,2.936.762" transform="translate(16.513 14.757)" fill="#2a3671"/>
            <path id="Trazado_16517" data-name="Trazado 16517" d="M2.658.689A1.433,1.433,0,1,1,.689.208,1.434,1.434,0,0,1,2.658.689" transform="translate(16.427 14.875)" fill="#66529a"/>
            <path id="Trazado_16518" data-name="Trazado 16518" d="M4.224.563C3.769-.167,2.49-.19,1.368.51S-.294,2.37.162,3.1s1.733.753,2.856.052S4.68,1.292,4.224.563" transform="translate(38.437 42.428)" fill="#341f13"/>
          </g>
        </g>
        <g id="Grupo_3908" data-name="Grupo 3908" transform="translate(37.737 39.501)">
          <g id="Grupo_3907" data-name="Grupo 3907" transform="translate(0 0)" clip-path="url(#clip-path-19)">
            <rect id="Rectángulo_4090" data-name="Rectángulo 4090" width="19.306" height="15.326" transform="translate(-2.895 1.774) rotate(-31.973)" fill="url(#linear-gradient)"/>
          </g>
        </g>
        <g id="Grupo_3910" data-name="Grupo 3910">
          <g id="Grupo_3909" data-name="Grupo 3909" clip-path="url(#clip-path)">
            <path id="Trazado_16520" data-name="Trazado 16520" d="M0,0a1.79,1.79,0,0,0,.03.462A3.13,3.13,0,0,0,.26.969S.923.45.941.295,0,0,0,0" transform="translate(55.507 39.619)" fill="#d1d1d0"/>
            <path id="Trazado_16521" data-name="Trazado 16521" d="M0,3.877a8.757,8.757,0,0,0,3.032-1.1A12.533,12.533,0,0,0,5.694,0" transform="translate(30.833 28.937)" fill="#f29c68"/>
            <path id="Trazado_16522" data-name="Trazado 16522" d="M0,3.249A8.766,8.766,0,0,1,2.334,1.021,11.9,11.9,0,0,1,6.329,0" transform="translate(32.79 32.333)" fill="#f29c68"/>
          </g>
        </g>
      </g>
    </g>
    <g id="Grupo_3859" data-name="Grupo 3859" transform="translate(123.463 54.905)">
      <rect id="Rectángulo_3955" data-name="Rectángulo 3955" width="143.349" height="252.297" rx="7.574" transform="translate(0)" fill="#09b0e4"/>
      <path id="Trazado_16308" data-name="Trazado 16308" d="M208.679,239.12a10.021,10.021,0,0,1-9.879,10.158H99.194a10.02,10.02,0,0,1-9.878-10.158V51.609a10.02,10.02,0,0,1,9.878-10.158H198.8a10.021,10.021,0,0,1,9.879,10.158Z" transform="translate(-76.899 -19.217)" fill="#fff"/>
      <rect id="Rectángulo_3956" data-name="Rectángulo 3956" width="45.713" height="76.612" transform="translate(78.447 125.006)" fill="#b8d0ea"/>
      <g id="Grupo_3823" data-name="Grupo 3823" transform="translate(86.49 156.539)" opacity="0.3">
        <g id="Grupo_3822" data-name="Grupo 3822">
          <g id="Grupo_3821" data-name="Grupo 3821" clip-path="url(#clip-path-21)">
            <path id="Trazado_16309" data-name="Trazado 16309" d="M177.142,157.89a16.3,16.3,0,1,1-16.3-16.3,16.3,16.3,0,0,1,16.3,16.3" transform="translate(-144.547 -141.592)" fill="#ea7567"/>
          </g>
        </g>
      </g>
      <path id="Trazado_16310" data-name="Trazado 16310" d="M161,34.2a2.428,2.428,0,0,1-2.427,2.427H113.2a2.427,2.427,0,0,1,0-4.855h45.374A2.428,2.428,0,0,1,161,34.2" transform="translate(-69.578 -22.518)" fill="#1e2e62"/>
      <path id="Trazado_16311" data-name="Trazado 16311" d="M156.254,34.228a2.54,2.54,0,1,1-2.54-2.54,2.542,2.542,0,0,1,2.54,2.54" transform="translate(-55.796 -22.548)" fill="#1e2e62"/>
      <path id="Trazado_16312" data-name="Trazado 16312" d="M143.854,206.181a8.254,8.254,0,1,1-8.253-8.253,8.253,8.253,0,0,1,8.253,8.253" transform="translate(-63.925 34.166)" fill="#1e2e62"/>
      <rect id="Rectángulo_3958" data-name="Rectángulo 3958" width="104.126" height="13.122" transform="translate(20.034 206.274)" fill="none" stroke="#1e2e62" stroke-miterlimit="10" stroke-width="0.454"/>
      <rect id="Rectángulo_3959" data-name="Rectángulo 3959" width="100.74" height="6.773" transform="translate(21.728 26.381)" fill="#62c1f1"/>
      <line id="Línea_300" data-name="Línea 300" x1="3.386" transform="translate(84.373 38.882)" fill="none" stroke="#1e2e62" stroke-miterlimit="10" stroke-width="0.454"/>
      <line id="Línea_301" data-name="Línea 301" x1="50.792" transform="translate(26.808 38.882)" fill="none" stroke="#1e2e62" stroke-miterlimit="10" stroke-width="0.454" stroke-dasharray="3.629 3.629"/>
      <path id="Trazado_16313" data-name="Trazado 16313" d="M98.383,53.864H95v3.386" transform="translate(-74.962 -14.981)" fill="none" stroke="#1e2e62" stroke-miterlimit="10" stroke-width="0.454"/>
      <path id="Trazado_16314" data-name="Trazado 16314" d="M95,90.622v3.386h3.386" transform="translate(-74.961 -2.442)" fill="none" stroke="#1e2e62" stroke-miterlimit="10" stroke-width="0.454"/>
      <line id="Línea_303" data-name="Línea 303" x2="50.792" transform="translate(30.194 91.566)" fill="none" stroke="#1e2e62" stroke-miterlimit="10" stroke-width="0.454" stroke-dasharray="3.629 3.629"/>
      <line id="Línea_304" data-name="Línea 304" x2="3.386" transform="translate(84.373 91.566)" fill="none" stroke="#1e2e62" stroke-miterlimit="10" stroke-width="0.454"/>
      <rect id="Rectángulo_3960" data-name="Rectángulo 3960" width="49.946" height="77.46" transform="translate(20.036 124.158)" fill="#a6b4d1"/>
      <rect id="Rectángulo_3961" data-name="Rectángulo 3961" width="49.946" height="9.03" transform="translate(20.036 106.946)" fill="#ffd500"/>
      <rect id="Rectángulo_3962" data-name="Rectángulo 3962" width="46.137" height="9.03" transform="translate(78.447 106.946)" fill="#003f8a"/>
      <path id="Trazado_16315" data-name="Trazado 16315" d="M172.629,156.974a12.7,12.7,0,1,1-12.7-12.7,12.7,12.7,0,0,1,12.7,12.7" transform="translate(-57.142 15.863)" fill="#ffd500"/>
      <path id="Trazado_16316" data-name="Trazado 16316" d="M173.47,178.844a28.5,28.5,0,0,1-.4,4.757H138.55V151.383a28.253,28.253,0,0,1,34.92,27.462" transform="translate(-60.103 18.015)" fill="#003f8a"/>
      <path id="Trazado_16317" data-name="Trazado 16317" d="M183.609,156.205v25.836h-43.14a35.634,35.634,0,0,1,34.572-26.878,35.236,35.236,0,0,1,8.567,1.042" transform="translate(-59.448 19.577)" fill="#3874ba"/>
      <g id="Grupo_3826" data-name="Grupo 3826" transform="translate(93.615 118.974)" opacity="0.6">
        <g id="Grupo_3825" data-name="Grupo 3825">
          <g id="Grupo_3824" data-name="Grupo 3824" clip-path="url(#clip-path-22)">
            <path id="Trazado_16318" data-name="Trazado 16318" d="M164.041,125.645H152.4l-2.54-12.064H161.5Z" transform="translate(-149.86 -113.582)" fill="#a6b4d1"/>
          </g>
        </g>
      </g>
      <line id="Línea_305" data-name="Línea 305" x2="40.634" transform="translate(24.691 150.19)" fill="none" stroke="#1e2e62" stroke-miterlimit="10" stroke-width="0.454"/>
      <line id="Línea_306" data-name="Línea 306" x2="20.317" transform="translate(45.008 141.725)" fill="none" stroke="#1e2e62" stroke-miterlimit="10" stroke-width="0.454"/>
      <line id="Línea_307" data-name="Línea 307" x2="20.317" transform="translate(45.008 133.259)" fill="none" stroke="#1e2e62" stroke-miterlimit="10" stroke-width="0.454"/>
      <line id="Línea_308" data-name="Línea 308" x2="40.634" transform="translate(24.691 158.655)" fill="none" stroke="#1e2e62" stroke-miterlimit="10" stroke-width="0.454"/>
      <line id="Línea_309" data-name="Línea 309" x2="40.634" transform="translate(24.691 167.121)" fill="none" stroke="#1e2e62" stroke-miterlimit="10" stroke-width="0.454"/>
      <line id="Línea_310" data-name="Línea 310" x2="40.634" transform="translate(24.691 175.587)" fill="none" stroke="#1e2e62" stroke-miterlimit="10" stroke-width="0.454"/>
      <line id="Línea_311" data-name="Línea 311" x2="40.634" transform="translate(24.691 184.052)" fill="none" stroke="#1e2e62" stroke-miterlimit="10" stroke-width="0.454"/>
      <line id="Línea_312" data-name="Línea 312" x2="40.634" transform="translate(24.691 192.517)" fill="none" stroke="#1e2e62" stroke-miterlimit="10" stroke-width="0.454"/>
      <rect id="Rectángulo_3964" data-name="Rectángulo 3964" width="17.777" height="17.777" transform="translate(23.633 127.968)" fill="#3874ba"/>
      <path id="Trazado_16319" data-name="Trazado 16319" d="M169.766,184.024a1.8,1.8,0,1,1-1.8-1.8,1.8,1.8,0,0,1,1.8,1.8" transform="translate(-50.681 28.809)" fill="#1e2e62"/>
      <path id="Trazado_16320" data-name="Trazado 16320" d="M163.453,184.024a1.8,1.8,0,1,1-1.8-1.8,1.8,1.8,0,0,1,1.8,1.8" transform="translate(-52.835 28.809)" fill="#1e2e62"/>
      <path id="Trazado_16321" data-name="Trazado 16321" d="M157.141,184.024a1.8,1.8,0,1,1-1.8-1.8,1.8,1.8,0,0,1,1.8,1.8" transform="translate(-54.988 28.809)" fill="#1e2e62"/>
    </g>
    <g id="Grupo_3858" data-name="Grupo 3858" transform="translate(175.543 92.48)">
      <path id="Trazado_16305" data-name="Trazado 16305" d="M265.107,118.932a23.661,23.661,0,0,1,2.534,1.861" transform="translate(-126.824 -36.8)" fill="none" stroke="#1e2e62" stroke-miterlimit="10" stroke-width="0.454"/>
      <path id="Trazado_16306" data-name="Trazado 16306" d="M270.836,123.931c10.241,11.059,26.893,38.353,17.6,93.721" transform="translate(-125.408 -35.565)" fill="none" stroke="#1e2e62" stroke-miterlimit="10" stroke-width="0.454" stroke-dasharray="3.666 3.666"/>
      <path id="Trazado_16307" data-name="Trazado 16307" d="M284.628,201.6q-.279,1.532-.584,3.094" transform="translate(-122.146 -16.38)" fill="none" stroke="#1e2e62" stroke-miterlimit="10" stroke-width="0.454"/>
      <line id="Línea_297" data-name="Línea 297" x2="11.414" transform="translate(122.212)" fill="none" stroke="#1e2e62" stroke-miterlimit="10" stroke-width="0.454"/>
      <line id="Línea_298" data-name="Línea 298" x2="9.838" y2="4.247" transform="translate(120.013 3.143)" fill="none" stroke="#1e2e62" stroke-miterlimit="10" stroke-width="0.454"/>
      <line id="Línea_299" data-name="Línea 299" x2="3.474" y2="6.499" transform="translate(118.283 4.907)" fill="none" stroke="#1e2e62" stroke-miterlimit="10" stroke-width="0.454"/>
      <path id="Trazado_16328" data-name="Trazado 16328" d="M266.057,215.709a1.453,1.453,0,0,1-1.565,1.3l-7.229.034a1.455,1.455,0,0,1-1.579-1.288l-.021-4.517a1.457,1.457,0,0,1,1.566-1.3l7.23-.034a1.454,1.454,0,0,1,1.576,1.291Z" transform="translate(-127.75 -14.329)" fill="#e89767"/>
      <path id="Trazado_16329" data-name="Trazado 16329" d="M266.82,215.727a1.372,1.372,0,0,1-.455,1.839c-.574.237-1.3-.2-1.62-.981L263.1,212.6a1.373,1.373,0,0,1,.456-1.839c.572-.237,1.3.2,1.621.98Z" transform="translate(-127.358 -14.132)" fill="#e89767"/>
      <path id="Trazado_16330" data-name="Trazado 16330" d="M253.827,218a1.376,1.376,0,1,1-.378-2.691l4.467-.629a1.377,1.377,0,1,1,.379,2.692Z" transform="translate(-128.344 -13.154)" fill="#e89767"/>
      <path id="Trazado_16331" data-name="Trazado 16331" d="M256.831,219.044a1.453,1.453,0,1,1-.905-2.666l4.86-1.649a1.453,1.453,0,1,1,.905,2.666Z" transform="translate(-127.881 -13.167)" fill="#e89767"/>
      <path id="Trazado_16332" data-name="Trazado 16332" d="M260.469,218.745a1.287,1.287,0,1,1-1.137-2.226l4.017-2.056a1.288,1.288,0,1,1,1.139,2.227Z" transform="translate(-127.112 -13.255)" fill="#e89767"/>
      <path id="Trazado_16333" data-name="Trazado 16333" d="M248.01,215.747a1.454,1.454,0,0,1-1.565,1.3l-7.23.034a1.453,1.453,0,0,1-1.577-1.288l-.021-4.517a1.455,1.455,0,0,1,1.565-1.3l7.23-.034a1.456,1.456,0,0,1,1.578,1.291Z" transform="translate(-131.19 -14.318)" fill="#e89767"/>
      <path id="Trazado_16334" data-name="Trazado 16334" d="M248.77,215.766a1.37,1.37,0,0,1-.455,1.839c-.571.237-1.3-.2-1.62-.981l-1.646-3.982a1.372,1.372,0,0,1,.455-1.839c.572-.237,1.3.2,1.62.98Z" transform="translate(-129.6 -14.122)" fill="#e89767"/>
      <path id="Trazado_16335" data-name="Trazado 16335" d="M235.779,218.037a1.376,1.376,0,1,1-.379-2.691l4.468-.629a1.377,1.377,0,1,1,.378,2.692Z" transform="translate(-131.801 -13.144)" fill="#e89767"/>
      <path id="Trazado_16336" data-name="Trazado 16336" d="M238.785,219.082a1.453,1.453,0,1,1-.907-2.666l4.858-1.649a1.453,1.453,0,1,1,.905,2.666Z" transform="translate(-131.334 -13.157)" fill="#e89767"/>
      <path id="Trazado_16337" data-name="Trazado 16337" d="M242.42,218.783a1.288,1.288,0,1,1-1.139-2.226L245.3,214.5a1.288,1.288,0,1,1,1.139,2.227Z" transform="translate(-130.573 -13.246)" fill="#e89767"/>
      <path id="Trazado_16338" data-name="Trazado 16338" d="M254.616,226.025l.612-3.361.122-26.321.15-32.006c.03-6.455,2.916-7.446,6.47-7.429,4.815.022,6.388,10.042,6.355,17.2l-.1,22.3-.077,27.852.309,1.833-2.716-1.877-.969,2.285-1.98-1.806-1.7,1.789-1.013-2.262-2.1,2.247-1.377-2.009Z" transform="translate(-128.078 -27.419)" fill="#5e2f12"/>
      <path id="Trazado_16339" data-name="Trazado 16339" d="M236.875,225.943l.612-3.361.122-26.321.15-32.006c.03-6.455,2.916-7.446,6.47-7.428,4.815.022,6.39,10.042,6.356,17.2l-.1,22.3-.077,27.852.309,1.833L248,224.131l-.968,2.285-1.979-1.806-1.7,1.788-1.013-2.261-2.1,2.247-1.376-2.009Z" transform="translate(-131.438 -27.44)" fill="#5e2f12"/>
      <g id="Grupo_3829" data-name="Grupo 3829" transform="translate(93.515 91.376)" opacity="0.5" style="mix-blend-mode: multiply;isolation: isolate">
        <g id="Grupo_3828" data-name="Grupo 3828">
          <g id="Grupo_3827" data-name="Grupo 3827" clip-path="url(#clip-path-23)">
            <path id="Trazado_16340" data-name="Trazado 16340" d="M232.377,144.264c4.3-9.065,12.362-17.962,21.838-17.919l5.427.025c13.834.065,24.987,13.238,24.911,29.427l-.072,15.631c-.076,16.189-11.35,29.259-25.184,29.194l-5.427-.025a22.477,22.477,0,0,1-14.053-5.13c.052-1.378.4-4.36-1.478-4.559l.005-.966a1.3,1.3,0,0,0-1.139-1.268c-.135-.859-.355-1.685-.58-2.593a1.2,1.2,0,0,0-.849-.86c.031-.456.086-.894.142-1.274.241-1.61-2.372-2.327-2.5-.691-.127,1.564-2.7-33.027-1.6-35.384l-2.6-3.453a27.656,27.656,0,0,1,3.17-.155" transform="translate(-229.207 -126.345)" fill="#161615"/>
          </g>
        </g>
      </g>
      <path id="Trazado_16341" data-name="Trazado 16341" d="M230.309,170.563c-.075,16.188,10.876,29.362,24.464,29.425l5.329.025c13.588.064,24.661-13.009,24.736-29.2l.072-15.633c.076-16.188-10.875-29.362-24.462-29.426l-5.33-.025c-13.588-.062-24.661,13.009-24.737,29.2Z" transform="translate(-135.42 -35.12)" fill="#5e2f12"/>
      <path id="Trazado_16342" data-name="Trazado 16342" d="M234.335,171.484c-.04,10.893,6.935,19.764,15.579,19.815l3.391.02c8.644.051,15.685-8.738,15.725-19.632l.039-10.519c.041-10.894-6.935-19.765-15.579-19.816l-3.391-.02c-8.644-.051-15.684,8.738-15.725,19.633Z" transform="translate(-132.656 -31.267)" fill="#e89767"/>
      <g id="Grupo_3832" data-name="Grupo 3832" transform="translate(137.023 108.681)" opacity="0.5" style="mix-blend-mode: multiply;isolation: isolate">
        <g id="Grupo_3831" data-name="Grupo 3831">
          <g id="Grupo_3830" data-name="Grupo 3830" clip-path="url(#clip-path-24)">
            <path id="Trazado_16343" data-name="Trazado 16343" d="M279.569,141.049l-6.793,8.154-8.68-7.643s3.109-1.9,4.187-1.17l6.243,6.544Z" transform="translate(-264.096 -140.222)" fill="#161615"/>
          </g>
        </g>
      </g>
      <g id="Grupo_3835" data-name="Grupo 3835" transform="translate(97.617 102.318)" opacity="0.5" style="mix-blend-mode: multiply;isolation: isolate">
        <g id="Grupo_3834" data-name="Grupo 3834">
          <g id="Grupo_3833" data-name="Grupo 3833" clip-path="url(#clip-path-25)">
            <path id="Trazado_16344" data-name="Trazado 16344" d="M273.286,143.2l-20.075,5.649-14.593-12.13-6.089,1.913-1.377.545c.177-.476.454-1.191.839-2.044.254-.565.494-1.055.545-1.148.875-1.614,7.843-.515,9.371-.262l13.772,12.331Z" transform="translate(-231.153 -135.12)" fill="#161615"/>
          </g>
        </g>
      </g>
      <path id="Trazado_16345" data-name="Trazado 16345" d="M275.127,75.5s-2.144,2.77-.1,3.231c8.557,1.929,29.814,8.212,29.669,23.005-.2,20.435-6.99,50.013-6.99,50.013l-2.228-.822,1.789,5.351-4.23-1.822.049,5.06-4.009-2.7-5.538,6.462-5.8-6.078-20.479,5.723L244.15,151.18l-8.907,2.695-2.72-6.895-3.806.758,1.8-5.272-4.376-.56,3.406-5.449-4.5,1.757s4.84-33.907,10.446-49.528c4.39-12.232,19.157-12.806,28.14-11.925.839.084,2.682-1.874,3.408-1.775,0,0,.768,2.773,1.4,2.44a30.027,30.027,0,0,1,6.687-1.928" transform="translate(-136.719 -47.657)" fill="#5e2f12"/>
      <path id="Trazado_16346" data-name="Trazado 16346" d="M235.3,99.132s2.825-12.311,12.808-11.171c11,1.255,14.539,7.291,15.671,10.832,2.3-3.106,7.781-7.9,18.491-4.651C292.856,97.353,291.4,109.5,291.4,109.5s-1.872,14.079-9.693,15.33l-1.443,7.487S275.837,146.405,256.944,144l0,.015c-.324-.046-.643-.1-.955-.148s-.625-.1-.943-.156l0-.012c-18.693-3.6-18.29-18.276-18.29-18.276l1.311-7.577c-6.23-3.916-2.765-18.713-2.765-18.713" transform="translate(-134.423 -44.469)" fill="#e89767"/>
      <path id="Trazado_16347" data-name="Trazado 16347" d="M259.567,110.209a2.37,2.37,0,1,1,1.948,2.727,2.37,2.37,0,0,1-1.948-2.727" transform="translate(-126.805 -39.445)" fill="#5e2f12"/>
      <path id="Trazado_16348" data-name="Trazado 16348" d="M243.973,106.84a2.257,2.257,0,1,1,1.856,2.6,2.258,2.258,0,0,1-1.856-2.6" transform="translate(-129.799 -40.254)" fill="#5e2f12"/>
      <path id="Trazado_16349" data-name="Trazado 16349" d="M271.275,123.629s-19.52,9.976-29.218-7.042c7.8,7.95,29.223,7.02,29.223,7.02Z" transform="translate(-131.026 -37.38)" fill="#341e13"/>
      <path id="Trazado_16350" data-name="Trazado 16350" d="M249.718,115.157s1.086,1.994,2.308.732l.37-1.621-2.66-.607Z" transform="translate(-128.628 -38.102)" fill="#341e13"/>
      <path id="Trazado_16351" data-name="Trazado 16351" d="M255.493,116.41s-1.831,1.342-2.4-.32l.353-1.624,2.666.581Z" transform="translate(-127.987 -37.903)" fill="#341e13"/>
      <rect id="Rectángulo_3969" data-name="Rectángulo 3969" width="120.956" height="48.987" transform="translate(0 0.99)" fill="#62c1f1"/>
      <rect id="Rectángulo_3970" data-name="Rectángulo 3970" width="58.641" height="4.33" transform="translate(52.437 12.193)" fill="#008dd1"/>
      <line id="Línea_316" data-name="Línea 316" x2="58.641" transform="translate(52.437 22.507)" fill="none" stroke="#1e2e62" stroke-miterlimit="10" stroke-width="0.454"/>
      <line id="Línea_317" data-name="Línea 317" x2="58.641" transform="translate(52.437 30.379)" fill="none" stroke="#1e2e62" stroke-miterlimit="10" stroke-width="0.454"/>
      <line id="Línea_318" data-name="Línea 318" x2="58.641" transform="translate(52.437 38.25)" fill="none" stroke="#1e2e62" stroke-miterlimit="10" stroke-width="0.454"/>
      <path id="Trazado_16352" data-name="Trazado 16352" d="M191.652,76.595a15.609,15.609,0,1,1-15.609-15.609,15.541,15.541,0,0,1,15.609,15.609" transform="translate(-145.213 -51.114)" fill="#008dd1"/>
      <path id="Trazado_16353" data-name="Trazado 16353" d="M179.391,78.568l-.006,0a6.822,6.822,0,1,0-8.252,0l-.007,0a12.566,12.566,0,0,0-7.517,7.1,15.595,15.595,0,0,0,23.3,0,12.566,12.566,0,0,0-7.517-7.1" transform="translate(-144.428 -49.797)" fill="#ffd500"/>
      <g id="Grupo_3838" data-name="Grupo 3838" transform="translate(104.884 57.297)" opacity="0.5" style="mix-blend-mode: multiply;isolation: isolate">
        <g id="Grupo_3837" data-name="Grupo 3837">
          <g id="Grupo_3836" data-name="Grupo 3836" clip-path="url(#clip-path-26)">
            <path id="Trazado_16354" data-name="Trazado 16354" d="M277.326,162.544A25.491,25.491,0,0,1,273.118,160a27.041,27.041,0,0,1-4.133-3.856,209.11,209.11,0,0,1-13.725-18.8,57.61,57.61,0,0,1-3.992-4.8c-.64-.86-1.231-1.707-1.781-2.535a189.2,189.2,0,0,1-9.008-23.468q-1.184-3.827-2.156-7.522c.157.16.425.435.753.779,14.549,15.256,15.1,28.8,25.733,44.884A82.046,82.046,0,0,0,276.463,158.6q.432,1.973.863,3.946" transform="translate(-238.324 -99.017)" fill="#161615"/>
          </g>
        </g>
      </g>
      <path id="Trazado_16355" data-name="Trazado 16355" d="M198.772,91.813a1.527,1.527,0,0,0-2.061.616l-3.666,6.234a1.524,1.524,0,0,0,.465,2.1l4.4,2.585a1.523,1.523,0,0,0,2.059-.616l3.666-6.234a1.529,1.529,0,0,0-.461-2.1Z" transform="translate(-139.74 -43.545)" fill="#e89767"/>
      <path id="Trazado_16356" data-name="Trazado 16356" d="M200.847,91.075a1.187,1.187,0,0,0-1.559-.771,1.392,1.392,0,0,0-.47,1.8l1.544,3.631a1.181,1.181,0,0,0,1.563.766,1.4,1.4,0,0,0,.469-1.793Z" transform="translate(-138.503 -43.897)" fill="#e89767"/>
      <path id="Trazado_16357" data-name="Trazado 16357" d="M190.918,95.729a1.662,1.662,0,0,0-1.871,1.474,1.75,1.75,0,0,0,1.726,1.716l5.074.338a1.658,1.658,0,0,0,1.871-1.473A1.747,1.747,0,0,0,196,96.066Z" transform="translate(-140.424 -42.534)" fill="#e89767"/>
      <path id="Trazado_16358" data-name="Trazado 16358" d="M190.15,93.182c-1.2-.183-2.267.377-2.381,1.251s.762,1.733,1.96,1.913l6.152.932c1.195.182,2.268-.377,2.378-1.252s-.764-1.733-1.962-1.915Z" transform="translate(-140.695 -43.17)" fill="#e89767"/>
      <path id="Trazado_16359" data-name="Trazado 16359" d="M192.176,90.83a1.814,1.814,0,0,0-2.184,1.336A1.877,1.877,0,0,0,191.82,94l5.673.707a1.814,1.814,0,0,0,2.185-1.338,1.874,1.874,0,0,0-1.828-1.837Z" transform="translate(-140.259 -43.747)" fill="#e89767"/>
      <g id="Grupo_3841" data-name="Grupo 3841" transform="translate(53.528 51.519)" opacity="0.6" style="mix-blend-mode: multiply;isolation: isolate">
        <g id="Grupo_3840" data-name="Grupo 3840">
          <g id="Grupo_3839" data-name="Grupo 3839" clip-path="url(#clip-path-27)">
            <path id="Trazado_16360" data-name="Trazado 16360" d="M194.3,101.263l-1.107-1.8,2.952.488.116-2.642,2.287.774.961-2.156,1.69,1.216.854-2.755,2.046,1.159-.032.9-2.69,2-3.9,2.438Z" transform="translate(-193.193 -94.384)" fill="#161514"/>
          </g>
        </g>
      </g>
      <path id="Trazado_16361" data-name="Trazado 16361" d="M220.623,123.17,205.7,95.482l-.706-1.969-1.4,3.15-2.075-1.817-.779,2.732-2.457-.98.311,2.73-3.047-1.248-.143,2.647-2.591-.621,2.338,3.055L209.3,129.3a4.884,4.884,0,0,0,1.367,1.5,5.928,5.928,0,0,0,4.843.637c2.792-.767,4.923-4.1,5.11-8.263" transform="translate(-140.026 -43.08)" fill="#5e2f12"/>
      <path id="Trazado_16362" data-name="Trazado 16362" d="M206.508,124.2l24.939,26.161c5.03,5.276,7.9,4.109,10.474,1.652,3.484-3.321-3.145-12.622-8.718-18.467L215.826,115.32" transform="translate(-137.734 -37.693)" fill="#5e2f12"/>
      <path id="Trazado_16363" data-name="Trazado 16363" d="M245.228,91.613a1.526,1.526,0,0,0-2.12.368l-4.378,5.755a1.523,1.523,0,0,0,.211,2.14l4.06,3.088a1.523,1.523,0,0,0,2.116-.367l4.38-5.756a1.526,1.526,0,0,0-.21-2.139Z" transform="translate(-131.076 -43.618)" fill="#e89767"/>
      <path id="Trazado_16364" data-name="Trazado 16364" d="M246.273,90.515a1.188,1.188,0,0,0-1.553-.783,1.391,1.391,0,0,0-.484,1.794l1.515,3.643a1.18,1.18,0,0,0,1.555.779,1.4,1.4,0,0,0,.484-1.789Z" transform="translate(-129.747 -44.038)" fill="#e89767"/>
      <path id="Trazado_16365" data-name="Trazado 16365" d="M239.32,94.038a1.663,1.663,0,0,0-2.351.383,1.752,1.752,0,0,0,.68,2.338l4.275,2.753a1.658,1.658,0,0,0,2.351-.384,1.748,1.748,0,0,0-.675-2.337Z" transform="translate(-131.276 -43.028)" fill="#e89767"/>
      <path id="Trazado_16366" data-name="Trazado 16366" d="M240.421,92.185c-1.011-.668-2.217-.606-2.686.14a2.011,2.011,0,0,0,.981,2.559l5.2,3.419c1.009.665,2.218.606,2.684-.142a2.016,2.016,0,0,0-.979-2.56Z" transform="translate(-131.169 -43.522)" fill="#e89767"/>
      <path id="Trazado_16367" data-name="Trazado 16367" d="M241.364,89.827a1.813,1.813,0,0,0-2.553.177,1.873,1.873,0,0,0,.772,2.472l4.7,3.247a1.815,1.815,0,0,0,2.556-.178,1.874,1.874,0,0,0-.773-2.473Z" transform="translate(-130.947 -44.097)" fill="#e89767"/>
      <g id="Grupo_3844" data-name="Grupo 3844" transform="translate(107.067 51.748)" opacity="0.6" style="mix-blend-mode: multiply;isolation: isolate">
        <g id="Grupo_3843" data-name="Grupo 3843">
          <g id="Grupo_3842" data-name="Grupo 3842" clip-path="url(#clip-path-28)">
            <path id="Trazado_16368" data-name="Trazado 16368" d="M239.064,100.479l-.887-1.922,2.874.833.428-2.61,2.18,1.041,1.21-2.028L246.4,97.2l1.175-2.635,1.894,1.394-.138.887-2.908,1.67-4.16,1.959Z" transform="translate(-238.178 -94.567)" fill="#161514"/>
          </g>
        </g>
      </g>
      <path id="Trazado_16369" data-name="Trazado 16369" d="M262.639,125.273,251.1,96.012l-.469-2.039-1.759,2.963-1.844-2.051-1.1,2.621-2.323-1.266-.015,2.748-2.878-1.6L240.26,100l-2.5-.924,1.958,3.311,10.953,27.63a4.868,4.868,0,0,0,1.181,1.649,5.931,5.931,0,0,0,4.732,1.207c2.863-.431,5.375-3.483,6.054-7.6" transform="translate(-131.649 -42.966)" fill="#5e2f12"/>
      <path id="Trazado_16370" data-name="Trazado 16370" d="M248.555,124.692l21.663,28.932c4.37,5.836,7.355,5.017,10.2,2.883,3.853-2.884-1.626-12.905-6.467-19.371L258.86,116.977" transform="translate(-130.912 -37.283)" fill="#5e2f12"/>
    </g>
    <ellipse id="Elipse_142" data-name="Elipse 142" cx="103.129" cy="3.523" rx="103.129" ry="3.523" transform="translate(90.091 309.741)" fill="#36a9e1" opacity="0.123"/>
  </g>
</svg>
