<svg width="351" height="260" viewBox="0 0 351 300" fill="none" xmlns="http://www.w3.org/2000/svg">
<path d="M36.7031 284.411L41.3261 255.739" stroke="#003F8A" stroke-width="0.454" stroke-miterlimit="10"/>
<path d="M49.9551 279.339H95.3991" stroke="#A6B4D1" stroke-width="0.68" stroke-miterlimit="10"/>
<path d="M53.4355 203.545H86.9765" stroke="#A6B4D1" stroke-width="0.68" stroke-miterlimit="10"/>
<path d="M52.2549 229.248H90.6409" stroke="#A6B4D1" stroke-width="0.68" stroke-miterlimit="10"/>
<path d="M51.123 253.911H92.717" stroke="#A6B4D1" stroke-width="0.68" stroke-miterlimit="10"/>
<path d="M32.9971 269.323H67.4331" stroke="#A6B4D1" stroke-width="0.68" stroke-miterlimit="10"/>
<path d="M39.7637 237.986H71.4487" stroke="#A6B4D1" stroke-width="0.68" stroke-miterlimit="10"/>
<path d="M45.1992 212.819L75.0152 213.068" stroke="#A6B4D1" stroke-width="0.68" stroke-miterlimit="10"/>
<path d="M1 181.995C1 181.995 1.021 180.506 1.247 177.895" stroke="#1E2E62" stroke-width="0.454" stroke-miterlimit="10"/>
<path d="M26.205 298.662C26.205 298.662 -9.81469 214.715 14.4897 199.922C38.7941 185.128 44.0643 269.551 44.0643 269.551C44.0643 269.551 47.7409 256.289 53.9058 258.057C60.0707 259.824 56.3761 268.338 53.6991 276.238C53.6991 276.238 60.8081 269.974 64.4003 275.83C67.9926 281.686 62.7256 293.79 49.5714 298.927L26.205 298.662Z" fill="#62C1F1"/>
<path d="M37.5836 298.791L17.3086 222.957" stroke="#003F8A" stroke-width="0.453824" stroke-miterlimit="10"/>
<path d="M18.3633 250.634L25.8234 254.807" stroke="#003F8A" stroke-width="0.453824" stroke-miterlimit="10"/>
<path d="M89.5156 158.702H48.9316V176.169H89.5156V158.702Z" fill="#A6B4D1"/>
<path d="M56.1253 176.17L50.9883 288.021" stroke="#A6B4D1" stroke-width="0.68" stroke-miterlimit="10"/>
<path d="M85.9199 176.17L98.7629 288.021" stroke="#A6B4D1" stroke-width="0.68" stroke-miterlimit="10"/>
<path d="M53.556 176.17L31.873 277.802" stroke="#A6B4D1" stroke-width="0.68" stroke-miterlimit="10"/>
<path d="M82.3237 173.74L65.8857 285.591" stroke="#A6B4D1" stroke-width="0.68" stroke-miterlimit="10"/>
<path d="M50.9883 188.064H80.3053" stroke="#A6B4D1" stroke-width="0.68" stroke-miterlimit="10"/>
<path d="M72.1847 101.422L72.1127 103.964L71.2897 101.557L68.6897 101.951L67.8127 104.614L66.7987 102.236L64.9677 102.511L64.9877 105.845L63.6637 102.708L60.9767 103.113L60.5957 104.619L59.7897 103.297L57.9407 103.577L57.8657 106.115L57.0457 103.707L55.0127 104.013L56.6927 114.997L76.7127 113.05L74.9997 100.997L72.1847 101.422Z" fill="#FFD500"/>
<path d="M56.4072 113.242C57.1772 118.342 58.0202 122.437 62.7572 121.722L66.2702 121.191L70.1802 147.098C70.2466 147.497 70.4674 147.855 70.795 148.092C71.1226 148.33 71.5306 148.43 71.9309 148.369C72.3312 148.308 72.6916 148.093 72.9341 147.769C73.1767 147.445 73.282 147.038 73.2272 146.637L69.3172 120.737L72.3582 120.276C77.0922 119.558 77.1622 115.326 76.3942 110.226L56.4072 113.242Z" fill="#B8D0EA"/>
<path d="M76.0988 108.972L56.2148 111.972L56.83 116.05L76.714 113.05L76.0988 108.972Z" fill="#3874BA"/>
<path d="M83.3733 147.567C83.3498 147.974 83.1657 148.355 82.8613 148.626C82.5569 148.897 82.1573 149.036 81.7503 149.013C81.3433 148.989 80.9624 148.805 80.6912 148.501C80.42 148.197 80.2808 147.797 80.3043 147.39L82.4163 111.066C82.4398 110.659 82.6239 110.279 82.928 110.008C83.0787 109.873 83.2542 109.77 83.4447 109.704C83.6352 109.637 83.8369 109.609 84.0383 109.621C84.2397 109.633 84.4368 109.684 84.6184 109.772C84.8 109.859 84.9626 109.982 85.0967 110.133C85.2309 110.283 85.3341 110.459 85.4004 110.649C85.4668 110.84 85.4949 111.042 85.4833 111.243L83.3733 147.567Z" fill="#B8D0EA"/>
<path d="M86.9914 134.92H65.8414C64.4469 134.92 63.3164 136.051 63.3164 137.445V156.179C63.3164 157.574 64.4469 158.704 65.8414 158.704H86.9914C88.3859 158.704 89.5164 157.574 89.5164 156.179V137.445C89.5164 136.051 88.3859 134.92 86.9914 134.92Z" fill="#09B0E4"/>
<path d="M65.8196 154.082C64.665 154.094 63.5194 153.878 62.449 153.444C61.3787 153.011 60.405 152.37 59.5841 151.558C58.7633 150.745 58.1116 149.779 57.6669 148.713C57.2222 147.647 56.9932 146.504 56.9932 145.349C56.9932 144.195 57.2222 143.052 57.6669 141.986C58.1116 140.92 58.7633 139.953 59.5841 139.141C60.405 138.329 61.3787 137.688 62.449 137.255C63.5194 136.821 64.665 136.605 65.8196 136.617V137.644C64.8078 137.644 63.8059 137.843 62.871 138.23C61.9362 138.618 61.0868 139.185 60.3714 139.901C59.6559 140.616 59.0883 141.466 58.7011 142.4C58.3139 143.335 58.1146 144.337 58.1146 145.349C58.1146 146.361 58.3139 147.363 58.7011 148.298C59.0883 149.232 59.6559 150.082 60.3714 150.797C61.0868 151.513 61.9362 152.08 62.871 152.467C63.8059 152.855 64.8078 153.054 65.8196 153.054V154.082Z" fill="#09B0E4"/>
<path d="M4 163.673C7.972 139.131 24.026 86.129 88.807 76" stroke="#1E2E62" stroke-width="0.454" stroke-miterlimit="10" stroke-dasharray="3.74 3.74"/>
<path d="M113.77 289.373C113.834 289.646 113.811 289.932 113.705 290.191C113.599 290.45 113.415 290.67 113.178 290.82C112.941 290.97 112.664 291.043 112.384 291.028C112.104 291.013 111.836 290.912 111.617 290.738C111.397 290.564 111.237 290.325 111.159 290.056C111.081 289.787 111.088 289.501 111.181 289.236C111.273 288.971 111.445 288.742 111.673 288.58C111.902 288.417 112.175 288.33 112.455 288.33C112.767 288.297 113.079 288.388 113.325 288.583C113.571 288.778 113.731 289.062 113.77 289.373Z" fill="#62C1F1"/>
<path d="M129.914 290.513C129.914 291.063 129.104 291.513 128.106 291.513C127.108 291.513 126.297 291.066 126.297 290.513C126.297 289.96 127.107 289.513 128.106 289.513C129.105 289.513 129.914 289.959 129.914 290.513Z" fill="#62C1F1"/>
<path d="M128.731 287.741C128.741 287.868 128.711 287.996 128.647 288.106C128.583 288.217 128.487 288.305 128.372 288.36C128.257 288.416 128.128 288.435 128.001 288.416C127.875 288.397 127.758 288.34 127.664 288.253C127.57 288.166 127.505 288.053 127.477 287.928C127.448 287.804 127.458 287.674 127.505 287.555C127.551 287.436 127.633 287.334 127.738 287.262C127.844 287.19 127.969 287.151 128.096 287.151C128.259 287.145 128.417 287.204 128.536 287.315C128.655 287.425 128.725 287.579 128.731 287.741Z" fill="#62C1F1"/>
<path d="M118.213 297.129C118.234 297.241 118.219 297.356 118.172 297.459C118.125 297.563 118.046 297.649 117.948 297.706C117.85 297.764 117.737 297.789 117.624 297.78C117.51 297.771 117.403 297.727 117.315 297.654C117.228 297.581 117.165 297.483 117.135 297.374C117.106 297.264 117.111 297.148 117.149 297.041C117.188 296.934 117.258 296.842 117.352 296.776C117.445 296.711 117.555 296.676 117.669 296.676C117.735 296.67 117.801 296.677 117.863 296.696C117.926 296.716 117.985 296.748 118.035 296.79C118.086 296.832 118.127 296.883 118.158 296.942C118.188 297 118.207 297.063 118.213 297.129Z" fill="#62C1F1"/>
<path d="M126.684 296.53C126.69 296.502 126.694 296.473 126.697 296.444C126.697 295.718 125.833 295.129 124.768 295.129C123.703 295.129 122.838 295.718 122.838 296.444C122.838 297.17 123.702 297.759 124.768 297.759C124.825 297.759 124.879 297.75 124.936 297.747C125.088 297.904 125.272 298.026 125.475 298.106C125.679 298.187 125.897 298.223 126.115 298.212C126.86 298.212 127.463 297.812 127.463 297.328C127.463 296.974 127.144 296.67 126.684 296.528" fill="#62C1F1"/>
<path d="M126.296 289.025C126.296 287.907 124.284 287 121.801 287C119.318 287 117.301 287.907 117.301 289.025C117.323 289.255 117.402 289.477 117.53 289.669C117.658 289.862 117.831 290.021 118.034 290.132C115.582 290.349 113.765 291.124 113.765 292.048C113.765 293.141 116.302 294.028 119.432 294.028C122.562 294.028 125.099 293.141 125.099 292.048C125.099 291.584 124.639 291.157 123.873 290.82C125.309 290.482 126.291 289.806 126.291 289.02" fill="#62C1F1"/>
<mask id="mask0_802_2224" style="mask-type:luminance" maskUnits="userSpaceOnUse" x="149" y="0" width="85" height="100">
<path d="M233.415 11.1353L163.109 0L149.127 88.2841L219.432 99.4194L233.415 11.1353Z" fill="white"/>
</mask>
<g mask="url(#mask0_802_2224)">
<mask id="mask1_802_2224" style="mask-type:luminance" maskUnits="userSpaceOnUse" x="149" y="0" width="85" height="100">
<path d="M233.416 11.1353L163.11 0L149.128 88.2841L219.433 99.4194L233.416 11.1353Z" fill="white"/>
</mask>
<g mask="url(#mask1_802_2224)">
<path d="M199.074 91.8915C199.434 92.9613 195.853 93.3164 195.351 93.6714C194.224 94.1185 194.183 91.8453 193.865 91.3025C193.506 90.2321 197.087 89.8793 197.587 89.5215C198.714 89.0768 198.754 91.3485 199.074 91.8915Z" fill="#EA9867"/>
<path d="M200.241 91.6411C200.36 91.754 200.43 91.9084 200.438 92.0722C200.447 92.2361 200.392 92.3969 200.285 92.5213C200.142 92.6016 199.974 92.6236 199.816 92.5829C199.658 92.5422 199.521 92.4418 199.435 92.3026C199.195 91.8267 197.46 90.4513 198.127 89.8722C198.823 89.3297 199.827 91.3099 200.241 91.6411Z" fill="#EA9867"/>
<path d="M193.714 95.2011C193.555 95.29 193.367 95.3123 193.192 95.2631C193.016 95.2139 192.868 95.0972 192.778 94.9384C192.331 93.9936 194.607 93.5322 195.085 93.1724C195.243 93.0835 195.431 93.061 195.606 93.1099C195.781 93.1588 195.93 93.2751 196.02 93.4334C196.466 94.3797 194.192 94.8407 193.714 95.2011Z" fill="#EA9867"/>
<path d="M195.466 95.1699C195.317 95.3032 195.123 95.3734 194.924 95.3656C194.725 95.3578 194.537 95.2726 194.399 95.128C193.775 94.2306 196.21 93.197 196.644 92.7166C196.793 92.5844 196.986 92.5148 197.184 92.5225C197.382 92.5302 197.57 92.6146 197.707 92.7579C198.334 93.6596 195.9 94.6887 195.466 95.1692" fill="#EA9867"/>
<path d="M197.44 94.3822C197.328 94.5173 197.167 94.6029 196.992 94.6208C196.817 94.6387 196.643 94.5874 196.505 94.4779C195.841 93.7713 197.828 92.5646 198.144 92.0889C198.258 91.9541 198.418 91.8687 198.593 91.8507C198.767 91.8327 198.942 91.8835 199.08 91.9924C199.744 92.7005 197.758 93.9059 197.441 94.3814" fill="#EA9867"/>
<path d="M208.809 88.886C209.169 89.9556 205.587 90.3107 205.086 90.6659C203.958 91.1129 203.918 88.8397 203.601 88.297C203.24 87.2272 206.822 86.8745 207.322 86.5167C208.449 86.072 208.489 88.343 208.809 88.886Z" fill="#EA9867"/>
<path d="M209.976 88.6369C210.095 88.7493 210.166 88.9036 210.174 89.0675C210.182 89.2314 210.127 89.3922 210.02 89.5164C209.878 89.5968 209.71 89.6191 209.551 89.5784C209.393 89.5378 209.256 89.4375 209.17 89.2984C208.928 88.8224 207.194 87.4462 207.862 86.868C208.557 86.3253 209.561 88.3057 209.976 88.6369Z" fill="#EA9867"/>
<path d="M203.449 92.1961C203.29 92.2851 203.103 92.3075 202.927 92.2584C202.752 92.2094 202.603 92.0928 202.513 91.9341C202.067 90.9893 204.342 90.5279 204.82 90.1681C204.979 90.0792 205.166 90.0567 205.341 90.1056C205.516 90.1545 205.665 90.2708 205.755 90.4292C206.202 91.3747 203.928 91.8356 203.449 92.1961Z" fill="#EA9867"/>
<path d="M205.202 92.1652C205.054 92.2987 204.859 92.369 204.66 92.3611C204.461 92.3533 204.273 92.2679 204.135 92.1232C203.51 91.2264 205.946 90.193 206.38 89.7125C206.528 89.5805 206.721 89.511 206.919 89.5187C207.117 89.5264 207.304 89.6106 207.442 89.7537C208.07 90.6555 205.635 91.6846 205.202 92.1652Z" fill="#EA9867"/>
<path d="M207.177 91.3779C207.064 91.513 206.903 91.5987 206.729 91.6166C206.554 91.6344 206.379 91.5832 206.242 91.4737C205.578 90.7663 207.564 89.5603 207.882 89.0848C207.995 88.9502 208.155 88.8649 208.33 88.8469C208.504 88.8289 208.678 88.8795 208.816 88.9882C209.484 89.6986 207.494 90.9024 207.177 91.3779Z" fill="#EA9867"/>
<path d="M199.317 90.3965C196.486 83.5604 193.054 70.1401 190.672 63.058C189.798 60.1885 188.385 60.1368 186.81 60.6234C184.677 61.2804 185.318 65.9531 186.29 69.1326C187.968 75.0227 191.78 86.2956 193.186 92.2891L194.14 91.0879L194.876 91.974L195.511 90.9061L196.508 91.4729L196.655 90.3278L197.886 91.0454L198.227 89.9661L199.317 90.3965Z" fill="#5E2F13"/>
<path d="M209.121 87.3704C206.291 80.5343 202.859 67.114 200.477 60.0319C199.603 57.1623 198.19 57.1107 196.614 57.5973C194.481 58.2542 195.123 62.927 196.094 66.1064C197.773 71.9967 201.584 83.2702 202.991 89.263L203.945 88.0618L204.68 88.9486L205.315 87.8807L206.312 88.4483L206.458 87.303L207.689 88.0207L208.031 86.9421L209.121 87.3704Z" fill="#5E2F13"/>
<path d="M207.746 71.9138C207.752 71.9735 207.746 72.0337 207.727 72.0907C207.709 72.1477 207.679 72.2003 207.639 72.2449C207.599 72.2896 207.55 72.3254 207.496 72.35C207.441 72.3747 207.382 72.3877 207.323 72.3881C207.198 72.3737 207.083 72.3146 206.999 72.2218C206.915 72.129 206.867 72.0088 206.865 71.8832C206.934 71.4144 206.514 70.0142 207.241 70.0282C207.958 70.0302 207.653 71.4955 207.746 71.9138Z" fill="#EA9867"/>
<path d="M211.435 70.4314C211.798 71.419 208.782 71.6674 208.334 71.9851C207.366 72.3514 207.286 70.191 207.004 69.7234C206.639 68.7362 209.657 68.4859 210.106 68.1675C211.074 67.8036 211.154 69.963 211.435 70.4314Z" fill="#EA9867"/>
<g style="mix-blend-mode:multiply" opacity="0.6">
<mask id="mask2_802_2224" style="mask-type:luminance" maskUnits="userSpaceOnUse" x="206" y="68" width="5" height="4">
<path d="M210.989 68.6894L207.024 68.0615L206.592 70.7912L210.556 71.4191L210.989 68.6894Z" fill="white"/>
</mask>
<g mask="url(#mask2_802_2224)">
<path d="M206.711 70.0434L206.908 70.8412L207.577 69.8901L208.339 70.5787L208.747 69.7319L209.605 70.0524L209.732 69.2522L210.727 69.7659L210.959 68.8795L210.703 68.6442C209.451 68.8439 207.604 69.0188 206.711 70.0434Z" fill="#171615"/>
</g>
</g>
<path d="M206.663 70.8559C205.192 64.0093 200.864 51.6794 198.967 44.8744C198.138 42.1629 199.078 41.4113 200.398 41.0042C202.185 40.4522 204.07 44.4727 204.991 47.4776C206.775 52.9848 209.778 63.8156 211.802 69.2712L210.55 68.8004L210.489 69.872L209.52 69.3438L209.121 70.2933L208.452 69.4621L207.967 70.6496L207.196 69.9666L206.663 70.8559Z" fill="#5E2F13"/>
<path d="M209.421 73.5253C209.445 73.6082 209.452 73.6951 209.442 73.7809C209.432 73.8667 209.405 73.9495 209.362 74.0247C209.32 74.0998 209.263 74.1657 209.195 74.2184C209.126 74.2711 209.048 74.3097 208.965 74.3317C208.791 74.3517 208.615 74.3048 208.474 74.2004C208.333 74.0959 208.237 73.9417 208.204 73.7688C208.179 73.098 207.232 71.2412 208.231 71.031C209.221 70.8069 209.181 72.9902 209.421 73.5253Z" fill="#EA9867"/>
<path d="M210.812 73.4328C210.875 73.6094 210.865 73.8038 210.786 73.9737C210.706 74.1435 210.563 74.275 210.387 74.3393C210.048 74.4414 209.653 74.0328 209.599 73.6918C209.569 72.9804 208.505 70.8512 209.514 70.595C210.529 70.3826 210.549 72.8716 210.812 73.4328Z" fill="#EA9867"/>
<path d="M211.968 72.45C211.994 72.5322 212.004 72.6188 211.996 72.7048C211.989 72.7908 211.965 72.8745 211.925 72.9511C211.885 73.0277 211.831 73.0957 211.765 73.1512C211.699 73.2066 211.623 73.2485 211.541 73.2743C211.368 73.3004 211.192 73.2599 211.048 73.1609C210.904 73.0619 210.803 72.9119 210.765 72.7409C210.715 72.0716 209.713 70.2497 210.7 70.0003C211.684 69.7378 211.715 71.9269 211.968 72.45Z" fill="#EA9867"/>
<path d="M184.383 79.2884C184.412 79.341 184.451 79.3872 184.498 79.4238C184.545 79.4605 184.599 79.4869 184.657 79.5014C184.715 79.5158 184.775 79.518 184.834 79.5078C184.893 79.4975 184.949 79.4751 184.999 79.4419C185.615 79.2217 184.194 76.9089 183.748 77.4428C183.157 77.8485 184.23 78.8918 184.387 79.289" fill="#EA9867"/>
<path d="M180.501 80.142C180.747 81.1649 183.387 79.6689 183.936 79.6781C184.942 79.4354 183.8 77.6022 183.773 77.0558C183.524 76.0357 180.887 77.5305 180.339 77.5199C179.332 77.7632 180.476 79.5958 180.501 80.142Z" fill="#EA9867"/>
<g style="mix-blend-mode:multiply" opacity="0.6">
<mask id="mask3_802_2224" style="mask-type:luminance" maskUnits="userSpaceOnUse" x="179" y="76" width="6" height="4">
<path d="M184.59 77.2095L180.353 76.5383L179.951 79.0704L184.189 79.7416L184.59 77.2095Z" fill="white"/>
</mask>
<g mask="url(#mask3_802_2224)">
<path d="M184.193 77.1577L184.479 77.9298L183.391 77.519L183.144 78.5184L182.334 78.048L181.804 78.7938L181.253 78.2056L180.716 79.1917L180.028 78.5903L180.108 78.2509C181.254 77.7103 182.882 76.8137 184.193 77.1577Z" fill="#171615"/>
</g>
</g>
<path d="M184.689 77.8023C182.082 71.3055 178.778 58.6594 176.548 51.9582C175.72 49.247 174.521 49.1545 173.202 49.5618C171.414 50.1138 172.098 54.5049 173.019 57.5097C174.622 63.0755 178.182 73.7312 179.554 79.389L180.326 78.2946L180.976 79.1461L181.483 78.163L182.343 78.7245L182.434 77.6593L183.498 78.3685L183.754 77.3691L184.689 77.8023Z" fill="#5E2F13"/>
<path d="M183.897 81.5666C183.923 81.6487 183.966 81.7246 184.022 81.7898C184.079 81.8551 184.147 81.9083 184.224 81.9465C184.301 81.9847 184.385 82.0071 184.471 82.0122C184.557 82.0174 184.643 82.0053 184.724 81.9766C184.882 81.8977 185.003 81.7604 185.062 81.5938C185.121 81.4272 185.113 81.2442 185.041 81.0833C184.719 80.6047 184.428 78.4202 183.488 78.8314C182.542 79.2067 183.797 80.9883 183.897 81.5666Z" fill="#EA9867"/>
<path d="M182.695 82.2742C182.742 82.4559 182.858 82.6116 183.019 82.7073C183.18 82.8029 183.372 82.8308 183.553 82.7847C184.513 82.3876 183.137 80.3157 183.043 79.7032C182.996 79.5217 182.879 79.3662 182.718 79.2707C182.558 79.1752 182.366 79.1474 182.184 79.1933C181.224 79.5928 182.6 81.6616 182.695 82.2742Z" fill="#EA9867"/>
<path d="M181.188 82.1131C181.213 82.1961 181.253 82.2734 181.307 82.3405C181.362 82.4076 181.429 82.4633 181.504 82.5043C181.58 82.5453 181.664 82.5708 181.749 82.5793C181.835 82.5878 181.922 82.5792 182.004 82.554C182.165 82.4821 182.292 82.3495 182.357 82.1848C182.421 82.0202 182.419 81.8367 182.35 81.6739C182.046 81.1895 181.822 78.9986 180.87 79.3674C179.909 79.7052 181.109 81.5319 181.189 82.1101" fill="#EA9867"/>
<g style="mix-blend-mode:multiply" opacity="0.5">
<mask id="mask4_802_2224" style="mask-type:luminance" maskUnits="userSpaceOnUse" x="174" y="38" width="35" height="39">
<path d="M208.674 42.7181L179.562 38.1073L174.246 71.6772L203.357 76.288L208.674 42.7181Z" fill="white"/>
</mask>
<g mask="url(#mask4_802_2224)">
<path d="M202.693 43.4739C201.919 42.1688 200.704 43.0459 199.329 44.126C195.548 39.7754 190.033 38.9807 185.115 41.0957C175.107 44.6153 176.667 55.826 180.118 64.5005C183.279 75.7988 196.887 77.6254 203.153 69.1865C202.946 68.5796 202.393 67.2994 203.196 66.9568C203.041 66.5731 202.912 66.0114 203.4 65.809C203.411 65.2888 203.07 64.462 203.572 64.0804C202.924 63.3171 203.662 61.9578 204.358 62.8876C204.623 63.5668 204.733 64.0088 205.039 65.0115C206.479 60.6652 203.859 54.2567 202.595 49.9598C202.315 49.0398 201.733 47.068 200.929 46.1663L201.629 43.405L202.693 43.4739Z" fill="#171615"/>
</g>
</g>
<path d="M203.899 56.7885C209.341 74.2056 184.958 81.7325 179.735 64.245C175.778 54.2167 174.843 42.8604 186.894 40.1761C196.982 37.4809 201.922 47.757 203.899 56.7885Z" fill="#5E2F13"/>
<path d="M202.127 61.651C203.828 67.0468 199.928 72.1095 194.606 73.042C187.373 75.0903 183.682 69.1306 182.459 62.8834C180.759 57.4876 184.657 52.4245 189.98 51.4923C197.213 49.4441 200.905 55.4039 202.127 61.651Z" fill="#EA9867"/>
<g style="mix-blend-mode:multiply" opacity="0.5">
<mask id="mask5_802_2224" style="mask-type:luminance" maskUnits="userSpaceOnUse" x="173" y="50" width="9" height="7">
<path d="M181.128 51.36L174.273 50.2744L173.531 54.9594L180.386 56.045L181.128 51.36Z" fill="white"/>
</mask>
<g mask="url(#mask5_802_2224)">
<path d="M173.959 52.2616L177.578 55.6002L181.099 51.5409C181.099 51.5409 179.555 50.8562 179.103 51.2606L176.635 54.6627L173.959 52.2616Z" fill="#171615"/>
</g>
</g>
<g style="mix-blend-mode:multiply" opacity="0.5">
<mask id="mask6_802_2224" style="mask-type:luminance" maskUnits="userSpaceOnUse" x="181" y="41" width="20" height="14">
<path d="M200.949 44.792L182.548 41.8776L181.014 51.5598L199.415 54.4743L200.949 44.792Z" fill="white"/>
</mask>
<g mask="url(#mask6_802_2224)">
<path d="M181.014 51.5598L190.82 52.9571L196.931 46.3025C197.448 46.3961 200.162 46.8385 200.601 46.9905C200.332 46.6763 200.153 46.2953 200.082 45.8876C200.011 45.4798 200.051 45.0603 200.197 44.6729C200.197 44.6729 195.775 45.6357 195.323 46.04L189.608 52.737L181.014 51.5598Z" fill="#171615"/>
</g>
</g>
<path d="M223.65 30.3988C224.683 29.6861 225.849 33.1153 226.348 33.5441C227.055 34.5621 224.583 35.29 224.126 35.7566C223.094 36.471 221.925 33.039 221.427 32.6113C220.722 31.592 223.191 30.8645 223.65 30.3988Z" fill="#E99866"/>
<path d="M222.592 29.5782C222.621 29.5078 222.663 29.4441 222.717 29.3911C222.772 29.338 222.836 29.2967 222.907 29.2698C222.978 29.2428 223.053 29.2308 223.129 29.2345C223.204 29.2381 223.278 29.2573 223.346 29.291C223.47 29.3911 223.552 29.5335 223.577 29.6909C223.603 29.8484 223.569 30.0097 223.483 30.1438C223.155 30.511 222.606 32.5156 221.853 32.0412C221.114 31.5797 222.434 30.0852 222.592 29.5782Z" fill="#E99866"/>
<path d="M220.788 20.1847L218.938 21.0391L227.255 39.2053L229.105 38.351L220.788 20.1847Z" fill="#2E2E2D"/>
<path d="M220.802 20.2173L218.952 21.0717L220.851 25.2184L222.701 24.3641L220.802 20.2173Z" fill="white"/>
<path d="M218.624 15.6788L219.326 15.9411L219.765 15.333L219.732 16.0842L220.445 16.3169L219.723 16.5181L219.721 17.2695L219.308 16.6432L218.595 16.8746L219.063 16.2874L218.624 15.6788Z" fill="#FFF7BA"/>
<path d="M217.427 14.9565L217.102 16.0735L218.091 16.6882L216.93 16.7248L216.646 17.8569L216.257 16.7615L215.098 16.8467L216.017 16.1353L215.579 15.0534L216.539 15.7086L217.427 14.9565Z" fill="#FFF7BA"/>
<path d="M219.94 9.74721L218.678 11.1294L219.664 12.7198L217.965 11.9435L216.761 13.3771L216.974 11.5155L215.244 10.8123L217.074 10.4369L217.209 8.56834L218.127 10.1986L219.94 9.74721Z" fill="#FFF7BA"/>
<path d="M219.382 18.6712L218.936 18.9831L219.117 19.4979L218.683 19.1696L218.25 19.5016L218.428 18.9844L217.98 18.6758L218.522 18.6838L218.682 18.1638L218.841 18.686L219.382 18.6712Z" fill="#FFF7BA"/>
<path d="M225.74 32.4505C225.828 32.3976 225.927 32.3632 226.029 32.3493C226.131 32.3353 226.234 32.3421 226.334 32.3692C226.433 32.3964 226.526 32.4433 226.607 32.5072C226.687 32.5711 226.754 32.6507 226.804 32.7413C226.882 32.9373 226.882 33.1564 226.802 33.3521C226.722 33.5478 226.57 33.7048 226.377 33.79C225.716 33.9617 223.719 35.6802 223.209 34.5666C222.658 33.4782 225.191 32.8894 225.74 32.4505Z" fill="#E99866"/>
<path d="M225.66 31.0115C225.85 30.8771 226.084 30.8221 226.313 30.8583C226.542 30.8945 226.749 31.0189 226.888 31.2051C227.418 32.3462 224.339 33.1837 223.75 33.6731C223.56 33.8084 223.325 33.8638 223.095 33.8274C222.865 33.7909 222.659 33.6656 222.52 33.4782C221.994 32.3355 225.07 31.5 225.66 31.0115Z" fill="#E99866"/>
<path d="M225.518 29.5331C225.701 29.4065 225.926 29.3572 226.145 29.3959C226.363 29.4345 226.557 29.5581 226.686 29.7398C226.763 29.9501 226.757 30.1826 226.669 30.3888C226.58 30.595 226.416 30.7591 226.21 30.8469C225.514 31.0483 223.305 33.0144 222.714 31.9159C222.137 30.8165 224.965 30.0133 225.518 29.5331Z" fill="#E99866"/>
<g style="mix-blend-mode:multiply" opacity="0.6">
<mask id="mask7_802_2224" style="mask-type:luminance" maskUnits="userSpaceOnUse" x="221" y="31" width="6" height="5">
<path d="M226.801 32.7207L221.576 31.8931L221.168 34.47L226.393 35.2976L226.801 32.7207Z" fill="white"/>
</mask>
<g mask="url(#mask7_802_2224)">
<path d="M226.045 35.1716L226.548 34.3234L225.183 34.5676L225.112 33.3426L224.056 33.7208L223.597 32.7227L222.823 33.301L222.409 32.025L221.468 32.577L221.489 32.994C222.718 33.8811 224.431 35.2867 226.045 35.1716Z" fill="#161614"/>
</g>
</g>
<path d="M214.03 45.4378L220.768 32.4591L221.083 31.5391L221.75 32.994L222.7 32.1341L223.078 33.3998L224.21 32.9271L224.086 34.1991L225.49 33.5973L225.569 34.8258L226.766 34.5191C226.225 34.6033 219.773 47.4061 219.316 48.2085C215.009 51.7899 214.03 45.4378 214.03 45.4378Z" fill="#5E2F13"/>
<path d="M216.977 49.3034L200.285 47.885C196.918 47.5988 196.509 46.219 196.65 44.5697C198.538 39.9594 212.987 43.4974 217.487 43.3384" fill="#5E2F13"/>
<path d="M215.817 49.4858L200.286 47.8828C196.919 47.5988 196.51 46.2191 196.651 44.5697C198.148 40.2903 210.849 43.1493 215.031 43.1293L215.817 49.4858Z" fill="#102469"/>
<g style="mix-blend-mode:darken" opacity="0.5">
<mask id="mask8_802_2224" style="mask-type:luminance" maskUnits="userSpaceOnUse" x="187" y="33" width="38" height="26">
<path d="M224.351 39.1001L190.276 33.7032L187.157 53.3976L221.232 58.7945L224.351 39.1001Z" fill="white"/>
</mask>
<g mask="url(#mask8_802_2224)">
<mask id="mask9_802_2224" style="mask-type:luminance" maskUnits="userSpaceOnUse" x="196" y="43" width="3" height="3">
<path d="M196.651 44.5693C196.621 44.8705 196.62 45.1738 196.646 45.4753L197.877 45.5798L198.093 43.0504C197.431 43.3453 196.912 43.8915 196.651 44.5693Z" fill="white"/>
</mask>
<g mask="url(#mask9_802_2224)">
<path d="M199.114 42.7005L197.146 42.5333L196.978 44.508L198.946 44.6752L199.114 42.7005Z" fill="#1A1819"/>
<path d="M196.979 44.5086L195.01 44.3409L194.841 46.3164L196.809 46.4841L196.979 44.5086Z" fill="#1A1819"/>
</g>
<mask id="mask10_802_2224" style="mask-type:luminance" maskUnits="userSpaceOnUse" x="197" y="42" width="10" height="5">
<path d="M198.094 43.0501L197.877 45.5803L205.753 46.2458L206.089 42.326C202.966 42.1056 199.887 42.1376 198.094 43.0501Z" fill="white"/>
</mask>
<g mask="url(#mask10_802_2224)">
<path d="M206.989 43.3704L205.021 43.2032L204.853 45.178L206.821 45.3451L206.989 43.3704Z" fill="#1A1819"/>
<path d="M205.192 41.2267L203.224 41.0596L203.055 43.0351L205.023 43.2022L205.192 41.2267Z" fill="#1A1819"/>
<path d="M203.054 43.0355L201.085 42.8679L200.916 44.8434L202.885 45.011L203.054 43.0355Z" fill="#1A1819"/>
<path d="M201.252 40.8921L199.284 40.725L199.115 42.7005L201.083 42.8676L201.252 40.8921Z" fill="#1A1819"/>
<path d="M204.853 45.178L202.885 45.0109L202.716 46.9856L204.684 47.1527L204.853 45.178Z" fill="#1A1819"/>
<path d="M200.914 44.8433L198.946 44.6761L198.778 46.6509L200.746 46.818L200.914 44.8433Z" fill="#1A1819"/>
<path d="M199.115 42.7011L197.147 42.5339L196.979 44.5087L198.947 44.6758L199.115 42.7011Z" fill="#1A1819"/>
</g>
<mask id="mask11_802_2224" style="mask-type:luminance" maskUnits="userSpaceOnUse" x="205" y="42" width="9" height="5">
<path d="M206.089 42.3261L205.754 46.2459L213.629 46.9183L213.957 43.0893C211.967 42.9571 209.007 42.5311 206.089 42.3261Z" fill="white"/>
</mask>
<g mask="url(#mask11_802_2224)">
<path d="M214.867 44.0398L212.899 43.8727L212.731 45.8474L214.699 46.0146L214.867 44.0398Z" fill="#1A1819"/>
<path d="M213.067 41.8962L211.099 41.729L210.93 43.7045L212.898 43.8716L213.067 41.8962Z" fill="#1A1819"/>
<path d="M210.93 43.7049L208.961 43.5372L208.792 45.5127L210.76 45.6803L210.93 43.7049Z" fill="#1A1819"/>
<path d="M209.129 41.5614L207.161 41.3943L206.992 43.3698L208.96 43.5369L209.129 41.5614Z" fill="#1A1819"/>
<path d="M212.728 45.8473L210.76 45.6802L210.591 47.6549L212.559 47.8221L212.728 45.8473Z" fill="#1A1819"/>
<path d="M208.79 45.5126L206.822 45.3455L206.654 47.3202L208.622 47.4873L208.79 45.5126Z" fill="#1A1819"/>
<path d="M206.991 43.3704L205.023 43.2032L204.855 45.178L206.823 45.3451L206.991 43.3704Z" fill="#1A1819"/>
</g>
<mask id="mask12_802_2224" style="mask-type:luminance" maskUnits="userSpaceOnUse" x="213" y="43" width="3" height="5">
<path d="M213.955 43.0883L213.628 46.9181L215.519 47.0791L215.03 43.1285C214.717 43.1302 214.356 43.1152 213.955 43.0883Z" fill="white"/>
</mask>
<g mask="url(#mask12_802_2224)">
<path d="M217.004 42.2306L215.036 42.0635L214.867 44.039L216.835 44.2061L217.004 42.2306Z" fill="#1A1819"/>
<path d="M216.667 46.1811L214.699 46.0139L214.53 47.9886L216.498 48.1558L216.667 46.1811Z" fill="#1A1819"/>
<path d="M214.867 44.039L212.899 43.8718L212.731 45.8465L214.699 46.0137L214.867 44.039Z" fill="#1A1819"/>
</g>
<mask id="mask13_802_2224" style="mask-type:luminance" maskUnits="userSpaceOnUse" x="196" y="45" width="2" height="3">
<path d="M196.649 45.4755C196.67 45.8348 196.781 46.1828 196.972 46.4875C197.163 46.7922 197.427 47.0437 197.74 47.2187L197.879 45.58L196.649 45.4755Z" fill="white"/>
</mask>
<g mask="url(#mask13_802_2224)">
<path d="M198.779 46.6514L196.811 46.4843L196.642 48.459L198.61 48.6261L198.779 46.6514Z" fill="#1A1819"/>
<path d="M196.979 44.5087L195.011 44.3411L194.842 46.3165L196.81 46.4842L196.979 44.5087Z" fill="#1A1819"/>
</g>
<mask id="mask14_802_2224" style="mask-type:luminance" maskUnits="userSpaceOnUse" x="197" y="45" width="9" height="4">
<path d="M197.879 45.5803L197.739 47.219C198.529 47.6269 199.4 47.8541 200.288 47.8844L205.569 48.4287L205.755 46.2497L197.879 45.5803Z" fill="white"/>
</mask>
<g mask="url(#mask14_802_2224)">
<path d="M206.656 47.3207L204.688 47.1531L204.518 49.1286L206.487 49.2962L206.656 47.3207Z" fill="#1A1819"/>
<path d="M204.854 45.1779L202.886 45.0107L202.717 46.9855L204.685 47.1526L204.854 45.1779Z" fill="#1A1819"/>
<path d="M202.716 46.9861L200.748 46.819L200.579 48.7937L202.547 48.9608L202.716 46.9861Z" fill="#1A1819"/>
<path d="M200.916 44.8432L198.948 44.676L198.78 46.6507L200.747 46.8179L200.916 44.8432Z" fill="#1A1819"/>
<path d="M198.78 46.6515L196.812 46.4844L196.643 48.4591L198.611 48.6263L198.78 46.6515Z" fill="#1A1819"/>
</g>
<mask id="mask15_802_2224" style="mask-type:luminance" maskUnits="userSpaceOnUse" x="205" y="46" width="9" height="4">
<path d="M205.755 46.2496L205.566 48.428L213.433 49.2385L213.631 46.9182L205.755 46.2496Z" fill="white"/>
</mask>
<g mask="url(#mask15_802_2224)">
<path d="M214.531 47.99L212.562 47.8224L212.393 49.7979L214.362 49.9655L214.531 47.99Z" fill="#1A1819"/>
<path d="M212.73 45.8472L210.762 45.6801L210.593 47.6548L212.561 47.8219L212.73 45.8472Z" fill="#1A1819"/>
<path d="M210.592 47.6557L208.624 47.4885L208.455 49.4632L210.423 49.6304L210.592 47.6557Z" fill="#1A1819"/>
<path d="M208.792 45.5126L206.824 45.3455L206.655 47.3202L208.623 47.4873L208.792 45.5126Z" fill="#1A1819"/>
<path d="M206.656 47.3206L204.688 47.153L204.518 49.1284L206.487 49.2961L206.656 47.3206Z" fill="#1A1819"/>
</g>
<mask id="mask16_802_2224" style="mask-type:luminance" maskUnits="userSpaceOnUse" x="213" y="46" width="3" height="4">
<path d="M213.63 46.9185L213.431 49.2411L215.819 49.4869L215.522 47.0795L213.63 46.9185Z" fill="white"/>
</mask>
<g mask="url(#mask16_802_2224)">
<path d="M216.666 46.1816L214.698 46.0144L214.53 47.9891L216.497 48.1563L216.666 46.1816Z" fill="#1A1819"/>
<path d="M214.53 47.9904L212.562 47.8228L212.392 49.7982L214.361 49.9659L214.53 47.9904Z" fill="#1A1819"/>
</g>
</g>
</g>
<path d="M171.074 11.0748C171.074 11.0748 172.453 12.2148 171.488 12.6759C167.449 14.6092 157.58 20.1598 159.319 27.5273C161.719 37.7039 168.437 51.697 168.437 51.697L169.453 51.0337L169.166 53.9087L171.066 52.5161L171.613 55.048L173.303 53.2434L176.788 55.8395L178.987 52.1472L189.821 52.6759L195.022 45.3249L199.757 45.6581L200.332 41.9096L202.311 41.8545L200.821 39.4281L202.936 38.6514L200.628 36.3157L203.064 36.6829C203.064 36.6829 196.832 20.3084 192.281 13.1492C188.719 7.54258 181.305 8.93505 176.936 10.3962C176.526 10.5331 175.39 9.76185 175.04 9.8973C175.04 9.8973 174.972 11.3666 174.619 11.2741C173.45 11.069 172.26 11.0011 171.075 11.0719" fill="#603012"/>
<g style="mix-blend-mode:multiply" opacity="0.42">
<mask id="mask17_802_2224" style="mask-type:luminance" maskUnits="userSpaceOnUse" x="161" y="13" width="37" height="37">
<path d="M197.557 18.4465L166.235 13.4856L161.312 44.569L192.634 49.5299L197.557 18.4465Z" fill="white"/>
</mask>
<g mask="url(#mask17_802_2224)">
<path d="M164.244 32.9505C164.244 32.9505 162.007 26.8901 166.94 24.4628C172.38 21.787 175.748 23.3277 177.289 24.5011C177.46 22.5081 178.606 18.8726 184.483 17.1299C190.291 15.4106 193.115 20.9986 193.115 20.9986C193.115 20.9986 196.301 27.5348 193.051 30.348L194.539 33.9551C194.539 33.9551 196.549 41.2447 187.139 45.7307L187.142 45.7381C186.975 45.8122 186.817 45.8838 186.657 45.9528C186.497 46.0217 186.341 46.0935 186.179 46.1621L186.176 46.1554C176.512 50.0777 172.476 43.7129 172.476 43.7129L170.901 40.1068C166.901 40.2554 164.244 32.9505 164.244 32.9505Z" fill="#040506"/>
</g>
</g>
<path d="M164.525 32.2197C164.525 32.2197 162.288 26.1592 167.222 23.732C172.663 21.0564 176.03 22.5969 177.571 23.7703C177.741 21.7773 178.888 18.142 184.765 16.3993C190.572 14.6798 193.398 20.2679 193.398 20.2679C193.398 20.2679 196.585 26.8029 193.334 29.6166L194.821 33.2229C194.821 33.2229 196.832 40.5133 187.421 44.9993L187.424 45.0059C187.257 45.08 187.1 45.1517 186.94 45.2213C186.78 45.291 186.623 45.3621 186.461 45.4306L186.458 45.4239C176.795 49.3426 172.758 42.9806 172.758 42.9806L171.184 39.3753C167.183 39.5254 164.525 32.2197 164.525 32.2197Z" fill="#F29C68"/>
<path d="M184.712 29.4117C184.615 29.1921 184.585 28.9487 184.627 28.7121C184.668 28.4755 184.778 28.2564 184.944 28.0826C185.109 27.9088 185.322 27.788 185.555 27.7355C185.789 27.683 186.033 27.7012 186.256 27.7878C186.479 27.8744 186.672 28.0254 186.809 28.2218C186.947 28.4183 187.023 28.6512 187.028 28.8913C187.034 29.1314 186.968 29.3677 186.84 29.5705C186.711 29.7733 186.526 29.9334 186.307 30.0305C186.013 30.1604 185.68 30.1683 185.381 30.0523C185.082 29.9363 184.841 29.7059 184.712 29.4117Z" fill="#603012"/>
<path d="M176.648 32.5656C176.558 32.3566 176.531 32.1253 176.572 31.9008C176.612 31.6764 176.718 31.469 176.875 31.3046C177.033 31.1403 177.236 31.0265 177.458 30.9776C177.68 30.9287 177.911 30.9468 178.123 31.0297C178.334 31.1126 178.517 31.2566 178.647 31.4435C178.777 31.6304 178.849 31.8518 178.853 32.0797C178.858 32.3077 178.795 32.532 178.673 32.7243C178.551 32.9167 178.375 33.0685 178.167 33.1605C178.028 33.2219 177.879 33.2552 177.727 33.2585C177.576 33.2617 177.425 33.235 177.284 33.1797C177.143 33.1244 177.014 33.0417 176.905 32.9363C176.796 32.831 176.709 32.705 176.648 32.5656Z" fill="#603012"/>
<path d="M182.336 35.3226C182.336 35.3226 183.382 35.8217 183.508 34.9318L183.176 34.1486L181.896 34.6974L182.336 35.3226Z" fill="#341F13"/>
<path d="M185.5 33.9348C185.5 33.9348 185.147 35.041 184.416 34.5233L184.073 33.7446L185.349 33.1825L185.5 33.9348Z" fill="#341F13"/>
<path d="M190.347 11.0017C186.764 11.5356 163.648 21.2614 159.505 23.8661C159.697 22.0667 161.424 19.9962 161.424 19.9962L186.422 10.1494C186.422 10.1494 189.317 9.92548 190.347 11.0048" fill="#2A3671"/>
<path d="M189.989 10.7367C186.405 11.2706 162.334 21.5688 159.63 23.2182C159.995 21.4063 162.296 19.0443 162.296 19.0443L186.065 9.26922C186.065 9.26922 188.957 9.66112 189.989 10.7367Z" fill="#66529A"/>
<path d="M174.79 14.4258L177.074 10.3862L179.331 16.2287L174.79 14.4258Z" fill="#2A3671"/>
<path d="M175.122 14.3501L177.139 10.5939L178.801 15.7086L175.122 14.3501Z" fill="#66529A"/>
<path d="M174.443 14.5322L170.542 13.183L172.467 18.4313L174.443 14.5322Z" fill="#2A3671"/>
<path d="M174.174 14.6812L170.586 13.2878L172.406 17.6269L174.174 14.6812Z" fill="#66529A"/>
<path d="M175.971 14.126C176.062 14.3489 176.084 14.5938 176.036 14.8298C175.988 15.0659 175.872 15.2824 175.701 15.4521C175.531 15.6217 175.314 15.7369 175.078 15.783C174.843 15.8291 174.599 15.804 174.377 15.711C174.156 15.618 173.967 15.4612 173.835 15.2605C173.702 15.0597 173.632 14.824 173.633 14.5832C173.634 14.3423 173.707 14.1072 173.841 13.9074C173.975 13.7076 174.166 13.5522 174.388 13.4608C174.686 13.3385 175.02 13.3398 175.317 13.4645C175.614 13.5892 175.849 13.8271 175.971 14.126Z" fill="#2A3671"/>
<path d="M175.69 14.1165C175.772 14.3183 175.793 14.54 175.749 14.7537C175.706 14.9674 175.6 15.1634 175.446 15.317C175.292 15.4707 175.095 15.575 174.882 15.6168C174.669 15.6586 174.448 15.636 174.247 15.5518C174.047 15.4677 173.876 15.3258 173.756 15.1441C173.636 14.9624 173.573 14.7491 173.574 14.531C173.575 14.313 173.64 14.1001 173.762 13.9192C173.883 13.7383 174.055 13.5976 174.256 13.5148C174.526 13.404 174.829 13.4051 175.097 13.518C175.366 13.6308 175.579 13.8461 175.69 14.1165Z" fill="#66529A"/>
<path d="M190.241 37.787C189.985 37.1777 189.019 37.0068 188.085 37.4042C187.151 37.8015 186.602 38.6183 186.86 39.2277C187.117 39.8372 188.082 40.0078 189.016 39.6098C189.951 39.2118 190.499 38.3957 190.241 37.787Z" fill="#341F13"/>
</g>
<mask id="mask18_802_2224" style="mask-type:luminance" maskUnits="userSpaceOnUse" x="186" y="36" width="16" height="4">
<path d="M198.906 36.4768L186.715 37.7304C186.616 37.7407 186.524 37.79 186.461 37.8676C186.398 37.9452 186.368 38.0447 186.378 38.1444L186.471 39.0715C186.482 39.1711 186.531 39.2626 186.608 39.326C186.685 39.3893 186.784 39.4193 186.884 39.4094L199.076 38.1559C199.799 37.9364 200.472 37.578 201.059 37.1006C200.537 36.7716 199.945 36.5686 199.331 36.5075C199.191 36.481 199.049 36.4707 198.906 36.4768Z" fill="white"/>
</mask>
<g mask="url(#mask18_802_2224)">
<path d="M198.161 29.7408L184.528 35.5452L189.109 46.3984L202.742 40.594L198.161 29.7408Z" fill="url(#paint0_linear_802_2224)"/>
</g>
<mask id="mask19_802_2224" style="mask-type:luminance" maskUnits="userSpaceOnUse" x="149" y="0" width="85" height="100">
<path d="M233.416 11.1353L163.11 0L149.128 88.2841L219.433 99.4194L233.416 11.1353Z" fill="white"/>
</mask>
<g mask="url(#mask19_802_2224)">
<path d="M200.376 36.7652C200.35 36.8815 200.339 37.0008 200.343 37.1199C200.368 37.2606 200.406 37.3988 200.456 37.5328C200.456 37.5328 201.021 37.2179 201.053 37.1023C201.085 36.9866 200.376 36.7652 200.376 36.7652Z" fill="#D1D1D0"/>
<path d="M182.51 28.6345C183.341 28.6292 184.165 28.4691 184.938 28.1622C185.809 27.69 186.602 27.0859 187.289 26.3712" fill="#F29C68"/>
<path d="M183.659 30.9727C184.244 30.3794 184.935 29.9002 185.694 29.5595C186.719 29.2776 187.784 29.1771 188.843 29.2628" fill="#F29C68"/>
</g>
</g>
<path d="M266.277 45.905H138.076C133.893 45.905 130.502 49.296 130.502 53.479V290.628C130.502 294.811 133.893 298.202 138.076 298.202H266.277C270.46 298.202 273.851 294.811 273.851 290.628V53.479C273.851 49.296 270.46 45.905 266.277 45.905Z" fill="#09B0E4"/>
<path d="M262.282 265.808C262.319 268.465 261.298 271.028 259.446 272.933C257.593 274.838 255.06 275.929 252.403 275.966H152.797C150.14 275.929 147.607 274.837 145.754 272.933C143.902 271.028 142.882 268.465 142.919 265.808V78.297C142.882 75.6402 143.902 73.0775 145.754 71.1725C147.607 69.2676 150.14 68.1764 152.797 68.139H252.403C255.06 68.1764 257.593 69.2676 259.446 71.1725C261.298 73.0774 262.319 75.6401 262.282 78.297V265.808Z" fill="white"/>
<path d="M254.662 170.911H208.949V247.523H254.662V170.911Z" fill="#B8D0EA"/>
<g opacity="0.3">
<mask id="mask20_802_2224" style="mask-type:luminance" maskUnits="userSpaceOnUse" x="216" y="202" width="34" height="34">
<path d="M249.587 202.444H216.992V235.039H249.587V202.444Z" fill="white"/>
</mask>
<g mask="url(#mask20_802_2224)">
<path d="M249.587 218.742C249.587 221.966 248.631 225.117 246.84 227.798C245.049 230.478 242.503 232.568 239.525 233.801C236.547 235.035 233.269 235.358 230.107 234.729C226.945 234.1 224.041 232.548 221.761 230.268C219.482 227.988 217.929 225.084 217.301 221.922C216.672 218.76 216.994 215.483 218.228 212.504C219.462 209.526 221.551 206.98 224.232 205.189C226.912 203.398 230.063 202.442 233.287 202.442C237.61 202.442 241.756 204.159 244.813 207.216C247.87 210.273 249.587 214.419 249.587 218.742Z" fill="#EA7567"/>
</g>
</g>
<path d="M221.924 57.5871C221.924 58.2307 221.668 58.8478 221.213 59.3029C220.758 59.758 220.14 60.0138 219.497 60.0141H174.124C173.48 60.0141 172.863 59.7583 172.407 59.3031C171.952 58.8478 171.696 58.2304 171.696 57.5866C171.696 56.9427 171.952 56.3253 172.407 55.8701C172.863 55.4148 173.48 55.1591 174.124 55.1591H219.498C220.141 55.1596 220.758 55.4156 221.213 55.8709C221.668 56.3262 221.924 56.9435 221.924 57.5871Z" fill="#1E2E62"/>
<path d="M230.96 57.585C230.96 58.0874 230.811 58.5785 230.532 58.9962C230.253 59.4139 229.856 59.7395 229.392 59.9317C228.928 60.1239 228.417 60.1742 227.924 60.0762C227.432 59.9782 226.979 59.7363 226.624 59.3811C226.269 59.0259 226.027 58.5733 225.929 58.0806C225.831 57.5879 225.881 57.0772 226.073 56.613C226.265 56.1489 226.591 55.7522 227.009 55.4731C227.426 55.194 227.918 55.045 228.42 55.045C229.093 55.0456 229.739 55.3133 230.215 55.7896C230.692 56.2658 230.959 56.9116 230.96 57.585Z" fill="#1E2E62"/>
<path d="M210.431 286.252C210.431 287.885 209.947 289.481 209.04 290.838C208.133 292.196 206.844 293.254 205.336 293.879C203.828 294.503 202.168 294.667 200.567 294.348C198.966 294.03 197.495 293.244 196.34 292.089C195.186 290.935 194.4 289.464 194.081 287.863C193.763 286.262 193.926 284.602 194.551 283.094C195.176 281.586 196.234 280.297 197.592 279.39C198.949 278.483 200.545 277.999 202.178 277.999C204.367 277.999 206.466 278.869 208.014 280.416C209.561 281.964 210.431 284.063 210.431 286.252Z" fill="#1E2E62"/>
<path d="M254.662 252.179H150.536V265.301H254.662V252.179Z" stroke="#1E2E62" stroke-width="0.454" stroke-miterlimit="10"/>
<path d="M252.969 72.286H152.229V79.059H252.969V72.286Z" fill="#62C1F1"/>
<path d="M218.261 90.787H214.875" stroke="#1E2E62" stroke-width="0.454" stroke-miterlimit="10"/>
<path d="M208.102 90.787H157.31" stroke="#1E2E62" stroke-width="0.454" stroke-miterlimit="10" stroke-dasharray="3.63 3.63"/>
<path d="M153.923 90.7881H150.54V94.1741" stroke="#1E2E62" stroke-width="0.454" stroke-miterlimit="10"/>
<path d="M150.541 140.085V143.471H153.927" stroke="#1E2E62" stroke-width="0.454" stroke-miterlimit="10"/>
<path d="M160.696 143.471H211.488" stroke="#1E2E62" stroke-width="0.454" stroke-miterlimit="10" stroke-dasharray="3.63 3.63"/>
<path d="M214.875 137.471H218.261" stroke="#1E2E62" stroke-width="0.454" stroke-miterlimit="10"/>
<path d="M200.484 170.063H150.538V247.523H200.484V170.063Z" fill="#A6B4D1"/>
<path d="M200.484 152.851H150.538V161.881H200.484V152.851Z" fill="#FFD500"/>
<path d="M255.086 152.851H208.949V161.881H255.086V152.851Z" fill="#003F8A"/>
<path d="M245.989 218.742C245.989 221.254 245.244 223.709 243.849 225.798C242.453 227.886 240.47 229.514 238.149 230.475C235.828 231.436 233.275 231.688 230.811 231.198C228.348 230.708 226.085 229.498 224.309 227.722C222.532 225.946 221.323 223.683 220.833 221.22C220.343 218.756 220.594 216.203 221.556 213.882C222.517 211.561 224.145 209.578 226.233 208.182C228.322 206.787 230.777 206.042 233.289 206.042C236.657 206.042 239.887 207.38 242.269 209.762C244.651 212.143 245.989 215.374 245.989 218.742Z" fill="#FFD500"/>
<path d="M243.869 242.764C243.869 244.358 243.735 245.949 243.469 247.521H208.949V215.303C213.106 214.294 217.439 214.241 221.619 215.15C225.799 216.059 229.719 217.905 233.081 220.55C236.444 223.194 239.162 226.568 241.031 230.416C242.9 234.265 243.87 238.487 243.869 242.765" fill="#003F8A"/>
<path d="M254.663 221.687V247.523H211.523C213.473 239.834 217.931 233.015 224.194 228.147C230.456 223.278 238.163 220.638 246.095 220.645C248.983 220.64 251.861 220.99 254.663 221.687Z" fill="#3874BA"/>
<g opacity="0.6">
<mask id="mask21_802_2224" style="mask-type:luminance" maskUnits="userSpaceOnUse" x="224" y="164" width="15" height="13">
<path d="M238.298 164.879H224.117V176.943H238.298V164.879Z" fill="white"/>
</mask>
<g mask="url(#mask21_802_2224)">
<path d="M238.298 176.942H226.657L224.117 164.878H235.757L238.298 176.942Z" fill="#A6B4D1"/>
</g>
</g>
<path d="M155.193 196.095H195.827" stroke="#1E2E62" stroke-width="0.454" stroke-miterlimit="10"/>
<path d="M175.51 187.63H195.827" stroke="#1E2E62" stroke-width="0.454" stroke-miterlimit="10"/>
<path d="M175.51 179.164H195.827" stroke="#1E2E62" stroke-width="0.454" stroke-miterlimit="10"/>
<path d="M155.193 204.56H195.827" stroke="#1E2E62" stroke-width="0.454" stroke-miterlimit="10"/>
<path d="M155.193 213.026H195.827" stroke="#1E2E62" stroke-width="0.454" stroke-miterlimit="10"/>
<path d="M155.193 221.492H195.827" stroke="#1E2E62" stroke-width="0.454" stroke-miterlimit="10"/>
<path d="M155.193 229.957H195.827" stroke="#1E2E62" stroke-width="0.454" stroke-miterlimit="10"/>
<path d="M155.193 238.422H195.827" stroke="#1E2E62" stroke-width="0.454" stroke-miterlimit="10"/>
<path d="M171.912 173.873H154.135V191.65H171.912V173.873Z" fill="#3874BA"/>
<path d="M249.587 258.738C249.587 259.094 249.482 259.442 249.284 259.738C249.086 260.034 248.805 260.265 248.476 260.401C248.147 260.537 247.785 260.573 247.436 260.503C247.087 260.434 246.766 260.263 246.515 260.011C246.263 259.759 246.091 259.438 246.022 259.089C245.952 258.74 245.988 258.378 246.124 258.049C246.261 257.72 246.491 257.439 246.787 257.241C247.083 257.044 247.431 256.938 247.787 256.938C248.024 256.938 248.258 256.985 248.476 257.075C248.695 257.165 248.893 257.298 249.06 257.465C249.227 257.632 249.36 257.831 249.45 258.049C249.541 258.268 249.587 258.502 249.587 258.738Z" fill="#1E2E62"/>
<path d="M241.12 258.738C241.12 259.094 241.014 259.442 240.816 259.738C240.618 260.034 240.337 260.265 240.008 260.401C239.679 260.537 239.318 260.573 238.968 260.503C238.619 260.434 238.298 260.263 238.047 260.011C237.795 259.759 237.624 259.438 237.554 259.089C237.485 258.74 237.52 258.378 237.657 258.049C237.793 257.72 238.023 257.439 238.319 257.241C238.616 257.044 238.964 256.938 239.32 256.938C239.556 256.938 239.79 256.985 240.008 257.075C240.227 257.165 240.425 257.298 240.592 257.465C240.759 257.632 240.892 257.831 240.983 258.049C241.073 258.268 241.12 258.502 241.12 258.738Z" fill="#1E2E62"/>
<path d="M232.655 258.738C232.655 259.094 232.549 259.442 232.351 259.738C232.154 260.034 231.872 260.265 231.544 260.401C231.215 260.537 230.853 260.573 230.504 260.503C230.154 260.434 229.834 260.263 229.582 260.011C229.33 259.759 229.159 259.438 229.089 259.089C229.02 258.74 229.055 258.378 229.192 258.049C229.328 257.72 229.559 257.439 229.855 257.241C230.151 257.044 230.499 256.938 230.855 256.938C231.091 256.938 231.325 256.985 231.544 257.075C231.762 257.165 231.96 257.298 232.127 257.465C232.295 257.632 232.427 257.831 232.518 258.049C232.608 258.268 232.655 258.502 232.655 258.738Z" fill="#1E2E62"/>
<path d="M321.283 175.132C322.168 175.695 323.015 176.317 323.817 176.993" stroke="#1E2E62" stroke-width="0.454" stroke-miterlimit="10"/>
<path d="M328.428 181.366C338.669 192.425 355.321 219.719 346.028 275.087" stroke="#1E2E62" stroke-width="0.454" stroke-miterlimit="10" stroke-dasharray="3.67 3.67"/>
<path d="M345.482 278.22C345.296 279.241 345.102 280.273 344.898 281.314" stroke="#1E2E62" stroke-width="0.454" stroke-miterlimit="10"/>
<path d="M305.212 93H316.626" stroke="#1E2E62" stroke-width="0.454" stroke-miterlimit="10"/>
<path d="M303.013 96.1429L312.851 100.39" stroke="#1E2E62" stroke-width="0.454" stroke-miterlimit="10"/>
<path d="M301.283 97.907L304.757 104.406" stroke="#1E2E62" stroke-width="0.454" stroke-miterlimit="10"/>
<path d="M321.307 294.38C321.268 294.758 321.083 295.107 320.79 295.35C320.497 295.593 320.121 295.711 319.742 295.68L312.513 295.714C312.134 295.749 311.756 295.633 311.46 295.393C311.165 295.152 310.976 294.805 310.934 294.426L310.913 289.909C310.953 289.531 311.139 289.183 311.431 288.94C311.724 288.697 312.1 288.578 312.479 288.609L319.709 288.575C320.089 288.541 320.466 288.657 320.761 288.898C321.056 289.14 321.244 289.487 321.285 289.866L321.307 294.38Z" fill="#E89767"/>
<path d="M322.462 294.595C322.637 294.901 322.687 295.263 322.603 295.606C322.518 295.948 322.305 296.245 322.007 296.434C321.433 296.671 320.707 296.234 320.387 295.453L318.742 291.468C318.567 291.162 318.517 290.8 318.602 290.457C318.687 290.115 318.9 289.818 319.198 289.629C319.77 289.392 320.498 289.829 320.819 290.609L322.462 294.595Z" fill="#E89767"/>
<path d="M308.483 297.846C308.293 297.905 308.092 297.921 307.895 297.894C307.698 297.868 307.509 297.799 307.341 297.692C307.173 297.585 307.03 297.443 306.922 297.276C306.814 297.108 306.744 296.919 306.717 296.722C306.689 296.525 306.704 296.324 306.762 296.134C306.819 295.943 306.917 295.767 307.049 295.618C307.181 295.469 307.344 295.351 307.527 295.271C307.709 295.191 307.906 295.151 308.105 295.155L312.572 294.526C312.763 294.467 312.964 294.45 313.162 294.476C313.359 294.503 313.549 294.572 313.718 294.679C313.886 294.785 314.029 294.927 314.137 295.095C314.245 295.263 314.316 295.452 314.344 295.649C314.371 295.847 314.356 296.048 314.298 296.239C314.241 296.43 314.142 296.606 314.01 296.755C313.878 296.905 313.714 297.023 313.532 297.103C313.349 297.183 313.151 297.222 312.951 297.218L308.483 297.846Z" fill="#E89767"/>
<path d="M311.95 298.877C311.765 298.998 311.554 299.075 311.334 299.102C311.115 299.129 310.891 299.105 310.682 299.033C310.473 298.961 310.283 298.841 310.127 298.684C309.971 298.527 309.852 298.336 309.781 298.127C309.71 297.917 309.688 297.694 309.716 297.474C309.744 297.255 309.822 297.044 309.944 296.859C310.066 296.675 310.229 296.52 310.42 296.408C310.611 296.295 310.825 296.228 311.045 296.211L315.905 294.562C316.091 294.441 316.302 294.364 316.522 294.337C316.741 294.31 316.964 294.334 317.174 294.406C317.383 294.478 317.573 294.598 317.729 294.755C317.885 294.912 318.003 295.103 318.075 295.312C318.146 295.522 318.168 295.745 318.14 295.965C318.112 296.184 318.034 296.395 317.912 296.58C317.79 296.764 317.627 296.919 317.436 297.031C317.245 297.144 317.031 297.211 316.81 297.228L311.95 298.877Z" fill="#E89767"/>
<path d="M316.357 298.49C316.209 298.618 316.034 298.71 315.846 298.76C315.657 298.811 315.46 298.817 315.268 298.78C315.077 298.743 314.896 298.662 314.74 298.545C314.584 298.427 314.457 298.276 314.368 298.102C314.28 297.928 314.232 297.737 314.228 297.542C314.224 297.346 314.265 297.153 314.347 296.976C314.429 296.799 314.55 296.643 314.701 296.519C314.852 296.396 315.03 296.309 315.22 296.264L319.237 294.208C319.384 294.08 319.559 293.987 319.748 293.937C319.936 293.887 320.134 293.88 320.326 293.917C320.518 293.954 320.698 294.035 320.855 294.152C321.011 294.27 321.138 294.421 321.227 294.595C321.316 294.769 321.364 294.961 321.368 295.156C321.372 295.351 321.331 295.545 321.249 295.722C321.167 295.899 321.046 296.056 320.895 296.179C320.743 296.303 320.566 296.39 320.376 296.435L316.357 298.49Z" fill="#E89767"/>
<path d="M299.82 294.429C299.781 294.807 299.595 295.155 299.302 295.398C299.01 295.641 298.634 295.76 298.255 295.729L291.025 295.763C290.646 295.798 290.268 295.682 289.973 295.441C289.678 295.201 289.489 294.854 289.448 294.475L289.427 289.958C289.466 289.58 289.652 289.232 289.944 288.989C290.237 288.746 290.613 288.627 290.992 288.658L298.222 288.624C298.601 288.59 298.979 288.706 299.274 288.947C299.569 289.189 299.758 289.536 299.8 289.915L299.82 294.429Z" fill="#E89767"/>
<path d="M302.17 294.644C302.345 294.95 302.396 295.312 302.311 295.655C302.226 295.997 302.013 296.294 301.715 296.483C301.144 296.72 300.415 296.283 300.095 295.502L298.449 291.52C298.273 291.214 298.223 290.852 298.308 290.509C298.392 290.167 298.606 289.87 298.904 289.681C299.476 289.444 300.204 289.881 300.524 290.661L302.17 294.644Z" fill="#E89767"/>
<path d="M286.978 297.893C286.787 297.952 286.587 297.968 286.389 297.941C286.192 297.915 286.003 297.846 285.835 297.739C285.667 297.632 285.524 297.49 285.416 297.323C285.309 297.156 285.238 296.967 285.211 296.77C285.183 296.573 285.198 296.372 285.256 296.181C285.313 295.991 285.411 295.815 285.543 295.666C285.675 295.517 285.838 295.398 286.02 295.318C286.202 295.238 286.4 295.198 286.599 295.202L291.067 294.573C291.257 294.514 291.458 294.497 291.656 294.523C291.854 294.55 292.043 294.619 292.212 294.726C292.38 294.833 292.524 294.975 292.632 295.142C292.74 295.31 292.81 295.499 292.838 295.697C292.866 295.894 292.85 296.096 292.792 296.287C292.735 296.478 292.636 296.654 292.504 296.803C292.371 296.952 292.208 297.071 292.025 297.15C291.842 297.23 291.644 297.269 291.445 297.265L286.978 297.893Z" fill="#E89767"/>
<path d="M290.451 298.925C290.266 299.046 290.055 299.123 289.835 299.15C289.616 299.177 289.393 299.153 289.183 299.081C288.974 299.008 288.784 298.889 288.628 298.732C288.472 298.576 288.354 298.385 288.283 298.175C288.211 297.966 288.189 297.743 288.217 297.523C288.245 297.304 288.323 297.093 288.444 296.909C288.566 296.724 288.729 296.569 288.919 296.456C289.11 296.344 289.323 296.276 289.544 296.259L294.402 294.61C294.588 294.489 294.798 294.412 295.018 294.385C295.238 294.358 295.461 294.382 295.67 294.454C295.88 294.526 296.07 294.646 296.226 294.803C296.382 294.96 296.5 295.151 296.571 295.36C296.643 295.57 296.665 295.793 296.637 296.013C296.608 296.232 296.53 296.443 296.408 296.628C296.286 296.812 296.124 296.967 295.933 297.079C295.742 297.192 295.528 297.259 295.307 297.276L290.451 298.925Z" fill="#E89767"/>
<path d="M294.847 298.537C294.699 298.665 294.525 298.758 294.336 298.809C294.147 298.86 293.949 298.867 293.757 298.83C293.565 298.792 293.384 298.712 293.228 298.595C293.072 298.477 292.944 298.326 292.855 298.152C292.766 297.978 292.718 297.786 292.714 297.59C292.71 297.395 292.751 297.201 292.833 297.024C292.915 296.846 293.037 296.69 293.188 296.566C293.34 296.443 293.518 296.356 293.708 296.311L297.727 294.254C297.875 294.126 298.049 294.033 298.238 293.983C298.427 293.933 298.625 293.926 298.816 293.963C299.008 294 299.189 294.081 299.345 294.198C299.501 294.316 299.628 294.467 299.717 294.641C299.806 294.815 299.854 295.007 299.858 295.202C299.862 295.397 299.821 295.591 299.739 295.768C299.657 295.945 299.536 296.102 299.385 296.225C299.234 296.349 299.056 296.436 298.866 296.481L294.847 298.537Z" fill="#E89767"/>
<path d="M309.538 291.606L310.15 288.245L310.272 261.924L310.422 229.918C310.452 223.463 313.338 222.472 316.892 222.489C321.707 222.511 323.28 232.531 323.247 239.689L323.147 261.989L323.07 289.841L323.379 291.674L320.663 289.797L319.694 292.082L317.714 290.276L316.014 292.065L315.001 289.803L312.901 292.05L311.524 290.041L309.538 291.606Z" fill="#5E2F12"/>
<path d="M288.437 291.503L289.049 288.142L289.171 261.821L289.321 229.815C289.351 223.36 292.237 222.369 295.791 222.387C300.606 222.409 302.181 232.429 302.147 239.587L302.047 261.887L301.97 289.739L302.279 291.572L299.562 289.691L298.594 291.976L296.615 290.17L294.915 291.958L293.902 289.697L291.802 291.944L290.426 289.935L288.437 291.503Z" fill="#5E2F12"/>
<g style="mix-blend-mode:multiply" opacity="0.5">
<mask id="mask22_802_2224" style="mask-type:luminance" maskUnits="userSpaceOnUse" x="276" y="184" width="56" height="75">
<path d="M331.86 184.376H276.515V258.654H331.86V184.376Z" fill="white"/>
</mask>
<g mask="url(#mask22_802_2224)">
<path d="M279.684 202.295C283.984 193.23 292.046 184.333 301.522 184.376L306.949 184.401C320.783 184.466 331.936 197.639 331.86 213.828L331.788 229.459C331.712 245.648 320.438 258.718 306.604 258.653L301.177 258.628C296.045 258.573 291.086 256.762 287.124 253.498C287.176 252.12 287.524 249.138 285.646 248.939L285.651 247.973C285.646 247.66 285.528 247.359 285.319 247.126C285.109 246.893 284.823 246.744 284.512 246.705C284.377 245.846 284.157 245.02 283.932 244.112C283.88 243.906 283.773 243.718 283.624 243.567C283.475 243.416 283.288 243.307 283.083 243.252C283.114 242.796 283.169 242.358 283.225 241.978C283.466 240.368 280.853 239.651 280.725 241.287C280.598 242.851 278.025 208.26 279.125 205.903L276.525 202.45C277.578 202.338 278.637 202.286 279.695 202.295" fill="#161615"/>
</g>
</g>
<path d="M277.889 228.443C277.814 244.631 288.765 257.805 302.353 257.868L307.682 257.893C321.27 257.957 332.343 244.884 332.418 228.693L332.49 213.06C332.566 196.872 321.615 183.698 308.028 183.634L302.698 183.609C289.11 183.547 278.037 196.618 277.961 212.809L277.889 228.443Z" fill="#5E2F12"/>
<path d="M284.679 233.217C284.639 244.11 291.614 252.981 300.258 253.032L303.649 253.052C312.293 253.103 319.334 244.314 319.374 233.42L319.413 222.901C319.454 212.007 312.478 203.136 303.834 203.085L300.443 203.065C291.799 203.014 284.759 211.803 284.718 222.698L284.679 233.217Z" fill="#E89767"/>
<g style="mix-blend-mode:multiply" opacity="0.5">
<mask id="mask23_802_2224" style="mask-type:luminance" maskUnits="userSpaceOnUse" x="320" y="201" width="16" height="10">
<path d="M335.496 201.681H320.023V210.662H335.496V201.681Z" fill="white"/>
</mask>
<g mask="url(#mask23_802_2224)">
<path d="M335.496 202.508L328.703 210.662L320.023 203.019C320.023 203.019 323.132 201.119 324.21 201.849L330.453 208.393L335.496 202.508Z" fill="#161615"/>
</g>
</g>
<g style="mix-blend-mode:multiply" opacity="0.5">
<mask id="mask24_802_2224" style="mask-type:luminance" maskUnits="userSpaceOnUse" x="280" y="195" width="43" height="15">
<path d="M322.75 195.318H280.617V209.045H322.75V195.318Z" fill="white"/>
</mask>
<g mask="url(#mask24_802_2224)">
<path d="M322.75 203.398L302.675 209.047L288.082 196.917L281.993 198.83L280.616 199.375C280.793 198.899 281.07 198.184 281.455 197.331C281.709 196.766 281.949 196.276 282 196.183C282.875 194.569 289.843 195.668 291.371 195.921L305.143 208.252L322.75 203.398Z" fill="#161615"/>
</g>
</g>
<path d="M321.408 120.843C321.408 120.843 319.264 123.613 321.308 124.074C329.865 126.003 351.122 132.286 350.977 147.079C350.777 167.514 343.987 197.092 343.987 197.092L341.759 196.27L343.548 201.621L339.318 199.799L339.367 204.859L335.358 202.159L329.82 208.621L324.02 202.543L303.541 208.266L290.431 196.523L281.524 199.218L278.804 192.323L274.998 193.081L276.798 187.809L272.422 187.249L275.828 181.8L271.328 183.557C271.328 183.557 276.168 149.65 281.774 134.029C286.164 121.797 300.931 121.223 309.914 122.104C310.753 122.188 312.596 120.23 313.322 120.329C313.322 120.329 314.09 123.102 314.722 122.769C316.869 121.869 319.113 121.222 321.409 120.841" fill="#5E2F12"/>
<path d="M283.877 147.663C283.877 147.663 286.702 135.352 296.685 136.492C307.685 137.747 311.224 143.783 312.356 147.324C314.656 144.218 320.137 139.424 330.847 142.673C341.433 145.884 339.977 158.031 339.977 158.031C339.977 158.031 338.105 172.11 330.284 173.361L328.841 180.848C328.841 180.848 324.414 194.936 305.521 192.531V192.546C305.197 192.5 304.878 192.446 304.566 192.398C304.254 192.35 303.941 192.298 303.623 192.242V192.23C284.93 188.63 285.333 173.954 285.333 173.954L286.644 166.377C280.414 162.461 283.879 147.664 283.879 147.664" fill="#E89767"/>
<path d="M315.762 163.764C315.839 163.302 316.051 162.872 316.372 162.531C316.693 162.189 317.108 161.95 317.565 161.844C318.021 161.739 318.499 161.771 318.938 161.936C319.376 162.102 319.756 162.394 320.028 162.776C320.3 163.157 320.454 163.611 320.468 164.079C320.483 164.548 320.358 165.01 320.11 165.408C319.862 165.806 319.502 166.121 319.074 166.314C318.647 166.506 318.172 166.568 317.71 166.491C317.09 166.388 316.536 166.042 316.171 165.531C315.806 165.02 315.658 164.384 315.762 163.764Z" fill="#5E2F12"/>
<path d="M297.174 159.586C297.247 159.146 297.45 158.738 297.756 158.413C298.062 158.088 298.457 157.861 298.892 157.76C299.327 157.66 299.781 157.691 300.199 157.849C300.616 158.007 300.977 158.285 301.236 158.648C301.496 159.011 301.641 159.443 301.655 159.889C301.669 160.335 301.551 160.775 301.314 161.154C301.078 161.533 300.735 161.833 300.328 162.016C299.922 162.2 299.47 162.259 299.03 162.186C298.737 162.137 298.457 162.031 298.205 161.874C297.953 161.717 297.735 161.512 297.563 161.271C297.39 161.029 297.267 160.756 297.201 160.467C297.134 160.178 297.125 159.879 297.174 159.586Z" fill="#5E2F12"/>
<path d="M323.249 179.249C323.249 179.249 303.729 189.225 294.031 172.207C301.831 180.157 323.254 179.227 323.254 179.227L323.249 179.249Z" fill="#341E13"/>
<path d="M304.09 170.055C304.09 170.055 305.176 172.049 306.398 170.787L306.768 169.166L304.108 168.559L304.09 170.055Z" fill="#341E13"/>
<path d="M310.506 171.507C310.506 171.507 308.675 172.849 308.106 171.187L308.459 169.563L311.125 170.144L310.506 171.507Z" fill="#341E13"/>
<path d="M303.956 93.99H183V142.977H303.956V93.99Z" fill="#62C1F1"/>
<path d="M294.078 105.193H235.437V109.523H294.078V105.193Z" fill="#008DD1"/>
<path d="M235.437 115.507H294.078" stroke="#1E2E62" stroke-width="0.454" stroke-miterlimit="10"/>
<path d="M235.437 123.379H294.078" stroke="#1E2E62" stroke-width="0.454" stroke-miterlimit="10"/>
<path d="M235.437 131.25H294.078" stroke="#1E2E62" stroke-width="0.454" stroke-miterlimit="10"/>
<path d="M229.439 118.481C229.439 121.568 228.523 124.586 226.808 127.153C225.093 129.72 222.655 131.72 219.803 132.902C216.951 134.083 213.812 134.392 210.785 133.79C207.757 133.188 204.975 131.701 202.792 129.518C200.61 127.335 199.123 124.554 198.521 121.526C197.918 118.498 198.227 115.36 199.409 112.508C200.59 109.656 202.591 107.218 205.158 105.503C207.725 103.787 210.743 102.872 213.83 102.872C215.882 102.863 217.916 103.261 219.814 104.042C221.711 104.823 223.436 105.972 224.887 107.424C226.338 108.875 227.488 110.599 228.269 112.497C229.05 114.395 229.448 116.429 229.439 118.481Z" fill="#008DD1"/>
<path d="M217.963 121.771H217.957C219.094 120.907 219.932 119.708 220.351 118.343C220.771 116.978 220.752 115.515 220.296 114.161C219.84 112.808 218.971 111.631 217.811 110.798C216.651 109.964 215.259 109.516 213.831 109.516C212.402 109.516 211.01 109.964 209.85 110.798C208.69 111.631 207.821 112.808 207.365 114.161C206.91 115.515 206.89 116.978 207.31 118.343C207.73 119.708 208.567 120.907 209.705 121.771H209.698C208.013 122.353 206.471 123.288 205.175 124.512C203.879 125.736 202.858 127.222 202.181 128.871C203.644 130.515 205.438 131.831 207.446 132.732C209.454 133.633 211.63 134.099 213.831 134.099C216.031 134.099 218.207 133.633 220.215 132.732C222.223 131.831 224.018 130.515 225.481 128.871C224.803 127.222 223.782 125.736 222.486 124.512C221.19 123.288 219.648 122.353 217.963 121.771Z" fill="#FFD500"/>
<g style="mix-blend-mode:multiply" opacity="0.5">
<mask id="mask25_802_2224" style="mask-type:luminance" maskUnits="userSpaceOnUse" x="287" y="150" width="40" height="64">
<path d="M326.886 150.297H287.884V213.823H326.886V150.297Z" fill="white"/>
</mask>
<g mask="url(#mask25_802_2224)">
<path d="M326.886 213.824C325.404 213.114 323.995 212.262 322.678 211.28C321.169 210.143 319.784 208.85 318.545 207.424C313.624 201.417 309.042 195.141 304.82 188.624C303.403 187.097 302.071 185.495 300.828 183.824C300.188 182.964 299.597 182.117 299.047 181.289C295.527 173.675 292.518 165.835 290.039 157.821C289.249 155.27 288.531 152.762 287.883 150.299C288.04 150.459 288.308 150.734 288.636 151.078C303.185 166.334 303.736 179.878 314.369 195.962C317.727 201.018 321.635 205.686 326.023 209.88C326.311 211.195 326.598 212.511 326.886 213.826" fill="#161615"/>
</g>
</g>
<path d="M242.032 141.268C241.676 141.078 241.26 141.036 240.874 141.151C240.488 141.267 240.163 141.53 239.971 141.884L236.305 148.118C236.089 148.458 236.016 148.87 236.103 149.264C236.191 149.658 236.43 150.001 236.77 150.218L241.17 152.803C241.525 152.993 241.94 153.036 242.326 152.92C242.712 152.805 243.037 152.541 243.229 152.187L246.895 145.953C247.11 145.613 247.182 145.201 247.096 144.808C247.009 144.415 246.771 144.072 246.434 143.853L242.032 141.268Z" fill="#E89767"/>
<path d="M245.344 140.178C245.298 140.022 245.219 139.876 245.114 139.752C245.009 139.627 244.879 139.525 244.733 139.453C244.586 139.38 244.427 139.339 244.264 139.331C244.101 139.323 243.938 139.349 243.785 139.407C243.499 139.596 243.292 139.885 243.205 140.217C243.119 140.549 243.158 140.902 243.315 141.207L244.859 144.838C244.905 144.995 244.984 145.141 245.089 145.266C245.195 145.391 245.325 145.493 245.472 145.565C245.619 145.637 245.78 145.677 245.943 145.684C246.107 145.691 246.27 145.664 246.422 145.604C246.705 145.414 246.909 145.126 246.996 144.796C247.082 144.466 247.045 144.116 246.891 143.811L245.344 140.178Z" fill="#E89767"/>
<path d="M233.494 146.195C233.274 146.166 233.05 146.181 232.836 146.24C232.622 146.299 232.422 146.4 232.247 146.537C232.073 146.675 231.928 146.845 231.821 147.04C231.713 147.234 231.646 147.448 231.623 147.669C231.632 148.123 231.817 148.556 232.139 148.876C232.461 149.196 232.895 149.379 233.349 149.385L238.423 149.723C238.643 149.753 238.867 149.738 239.081 149.679C239.296 149.621 239.496 149.52 239.67 149.383C239.845 149.245 239.99 149.074 240.097 148.88C240.204 148.685 240.271 148.471 240.294 148.25C240.287 147.797 240.103 147.364 239.783 147.043C239.462 146.723 239.029 146.54 238.576 146.532L233.494 146.195Z" fill="#E89767"/>
<path d="M232.455 143.012C231.255 142.829 230.188 143.389 230.074 144.263C229.96 145.137 230.836 145.996 232.034 146.176L238.186 147.108C239.381 147.29 240.454 146.731 240.564 145.856C240.674 144.981 239.8 144.123 238.602 143.941L232.455 143.012Z" fill="#E89767"/>
<path d="M234.917 140.083C234.451 139.972 233.959 140.05 233.549 140.3C233.14 140.55 232.847 140.953 232.733 141.419C232.744 141.901 232.94 142.36 233.281 142.702C233.621 143.043 234.079 143.241 234.561 143.253L240.234 143.96C240.702 144.072 241.194 143.994 241.604 143.743C242.013 143.492 242.307 143.089 242.419 142.622C242.41 142.139 242.215 141.679 241.874 141.337C241.534 140.994 241.074 140.797 240.591 140.785L234.917 140.083Z" fill="#E89767"/>
<g style="mix-blend-mode:multiply" opacity="0.6">
<mask id="mask26_802_2224" style="mask-type:luminance" maskUnits="userSpaceOnUse" x="236" y="144" width="12" height="8">
<path d="M247.436 144.519H236.528V151.399H247.436V144.519Z" fill="white"/>
</mask>
<g mask="url(#mask26_802_2224)">
<path d="M237.635 151.398L236.528 149.598L239.48 150.086L239.596 147.444L241.883 148.218L242.844 146.062L244.534 147.278L245.388 144.523L247.434 145.682L247.402 146.582L244.712 148.582L240.812 151.02L237.635 151.398Z" fill="#161514"/>
</g>
</g>
<path d="M263.597 173.09L248.674 145.402L247.968 143.433L246.568 146.583L244.493 144.766L243.714 147.498L241.257 146.518L241.568 149.248L238.521 148L238.378 150.647L235.787 150.026L238.125 153.081L252.274 179.22C252.62 179.81 253.085 180.321 253.641 180.72C254.357 181.164 255.159 181.451 255.994 181.561C256.829 181.67 257.678 181.601 258.484 181.357C261.276 180.59 263.407 177.257 263.594 173.094" fill="#5E2F12"/>
<path d="M251.774 179.507L276.713 205.668C281.743 210.944 284.613 209.777 287.187 207.32C290.671 203.999 284.042 194.698 278.469 188.853L261.092 170.627" fill="#5E2F12"/>
<path d="M297.152 140.995C296.821 140.764 296.413 140.673 296.016 140.742C295.619 140.811 295.265 141.034 295.032 141.363L290.654 147.118C290.398 147.43 290.277 147.83 290.317 148.232C290.356 148.633 290.553 149.002 290.865 149.258L294.925 152.346C295.254 152.577 295.662 152.668 296.058 152.599C296.455 152.53 296.808 152.307 297.041 151.979L301.421 146.223C301.675 145.911 301.795 145.511 301.756 145.11C301.717 144.71 301.521 144.341 301.211 144.084L297.152 140.995Z" fill="#E89767"/>
<path d="M299.526 139.477C299.481 139.32 299.404 139.175 299.299 139.049C299.195 138.924 299.066 138.821 298.92 138.747C298.775 138.674 298.615 138.631 298.452 138.622C298.289 138.613 298.126 138.637 297.973 138.694C297.686 138.881 297.477 139.167 297.388 139.498C297.299 139.829 297.335 140.182 297.489 140.488L299.004 144.131C299.049 144.288 299.126 144.434 299.231 144.56C299.335 144.686 299.464 144.789 299.611 144.862C299.757 144.936 299.917 144.978 300.08 144.986C300.243 144.994 300.407 144.968 300.559 144.91C300.844 144.722 301.051 144.437 301.14 144.107C301.229 143.778 301.195 143.427 301.043 143.121L299.526 139.477Z" fill="#E89767"/>
<path d="M291.044 144.01C290.866 143.878 290.663 143.783 290.447 143.731C290.231 143.679 290.007 143.67 289.788 143.706C289.569 143.741 289.359 143.821 289.171 143.939C288.983 144.057 288.821 144.211 288.693 144.393C288.482 144.795 288.434 145.263 288.561 145.699C288.688 146.136 288.979 146.506 289.373 146.731L293.648 149.484C293.827 149.617 294.03 149.712 294.246 149.765C294.462 149.817 294.686 149.826 294.905 149.79C295.125 149.754 295.334 149.675 295.522 149.556C295.71 149.438 295.873 149.283 295.999 149.1C296.212 148.699 296.261 148.231 296.135 147.795C296.009 147.359 295.718 146.989 295.324 146.763L291.044 144.01Z" fill="#E89767"/>
<path d="M292.252 141.663C291.241 140.995 290.035 141.057 289.566 141.803C289.376 142.275 289.371 142.801 289.553 143.276C289.735 143.75 290.09 144.139 290.547 144.362L295.747 147.781C296.756 148.446 297.965 148.387 298.431 147.639C298.621 147.167 298.625 146.642 298.444 146.167C298.262 145.692 297.908 145.304 297.452 145.079L292.252 141.663Z" fill="#E89767"/>
<path d="M293.417 138.73C293.055 138.416 292.583 138.258 292.104 138.291C291.626 138.324 291.18 138.546 290.864 138.907C290.65 139.339 290.61 139.837 290.754 140.298C290.898 140.758 291.214 141.146 291.636 141.379L296.336 144.626C296.699 144.941 297.172 145.098 297.651 145.065C298.13 145.032 298.576 144.81 298.892 144.448C299.107 144.016 299.146 143.517 299.002 143.056C298.858 142.596 298.542 142.208 298.119 141.975L293.417 138.73Z" fill="#E89767"/>
<g style="mix-blend-mode:multiply" opacity="0.6">
<mask id="mask27_802_2224" style="mask-type:luminance" maskUnits="userSpaceOnUse" x="290" y="144" width="12" height="7">
<path d="M301.361 144.748H290.067V150.66H301.361V144.748Z" fill="white"/>
</mask>
<g mask="url(#mask27_802_2224)">
<path d="M290.953 150.66L290.066 148.738L292.94 149.571L293.368 146.961L295.548 148.002L296.758 145.974L298.289 147.381L299.464 144.746L301.358 146.14L301.22 147.027L298.312 148.697L294.152 150.656L290.953 150.66Z" fill="#161514"/>
</g>
</g>
<path d="M313.99 175.307L302.451 146.046L301.982 144.007L300.223 146.97L298.379 144.919L297.279 147.54L294.956 146.274L294.941 149.022L292.063 147.422L291.611 150.034L289.111 149.11L291.069 152.421L302.022 180.051C302.296 180.677 302.698 181.239 303.203 181.7C303.861 182.226 304.623 182.605 305.439 182.813C306.255 183.021 307.106 183.053 307.935 182.907C310.798 182.476 313.31 179.424 313.989 175.307" fill="#5E2F12"/>
<path d="M300.643 180.409L322.306 209.341C326.676 215.177 329.661 214.358 332.506 212.224C336.359 209.34 330.88 199.319 326.039 192.853L310.948 172.694" fill="#5E2F12"/>
<defs>
<linearGradient id="paint0_linear_802_2224" x1="182.35" y1="104.268" x2="182.869" y2="104.049" gradientUnits="userSpaceOnUse">
<stop stop-color="#004593"/>
<stop offset="1" stop-color="#006CAC"/>
</linearGradient>
</defs>
</svg>
