<svg id="Grupo_14647" data-name="Grupo 14647" xmlns="http://www.w3.org/2000/svg" xmlns:xlink="http://www.w3.org/1999/xlink" width="118.513" height="222.091" viewBox="0 0 218.513 422.091">
  <defs>
    <clipPath id="clip-path">
      <rect id="Rectángulo_3982" data-name="Rectángulo 3982" width="218.513" height="422.091" fill="none"/>
    </clipPath>
  </defs>
  <g id="Grupo_3849" data-name="Grupo 3849" clip-path="url(#clip-path)">
    <path id="Trazado_16371" data-name="Trazado 16371" d="M58.553,332.352v-65.21h.033q-.032-.6-.033-1.207c0-10.481,7.483-18.976,16.712-18.976s16.714,8.5,16.714,18.976c0,.405-.013.808-.034,1.207h.034v65.21Z" transform="translate(15.625 65.902)" fill="#b37141"/>
    <path id="Trazado_16372" data-name="Trazado 16372" d="M63.279,327.416a3.464,3.464,0,0,0,3.727,3.1l17.214.08a3.462,3.462,0,0,0,3.754-3.072l.052-10.752a3.465,3.465,0,0,0-3.728-3.1l-17.218-.081a3.466,3.466,0,0,0-3.75,3.072Z" transform="translate(16.886 83.679)" fill="#e99766"/>
    <path id="Trazado_16373" data-name="Trazado 16373" d="M59.475,324.751c-1.021,1.728-.811,3.738.462,4.481s3.125-.044,4.144-1.776l5.2-8.836c1.011-1.727.807-3.736-.464-4.485s-3.128.046-4.144,1.776Z" transform="translate(15.698 83.752)" fill="#e99766"/>
    <path id="Trazado_16374" data-name="Trazado 16374" d="M91.526,331.815a3.277,3.277,0,1,0,.9-6.408l-10.635-1.495a3.278,3.278,0,1,0-.9,6.408Z" transform="translate(20.7 86.415)" fill="#e99766"/>
    <path id="Trazado_16375" data-name="Trazado 16375" d="M84.208,335.175c2.263.769,4.576-.033,5.169-1.786s-.753-3.8-3.009-4.561L74.8,324.9c-2.258-.766-4.57.033-5.165,1.784s.75,3.8,3.009,4.561Z" transform="translate(18.544 86.623)" fill="#e99766"/>
    <path id="Trazado_16376" data-name="Trazado 16376" d="M73.286,334.933c1.6,1.353,3.764,1.428,4.822.17s.617-3.369-.989-4.72L68.9,323.46c-1.606-1.35-3.763-1.424-4.822-.17s-.618,3.375.989,4.725Z" transform="translate(16.946 86.032)" fill="#e99766"/>
    <path id="Trazado_16377" data-name="Trazado 16377" d="M58.6,310.3l-.38,10.981,5.076-5.146,3.46,5.146,5.019-4.82,4.325,4.561,4.872-4.886,4.386,4.885,4.181-3.583,3.646,4.888L92.2,310.32Z" transform="translate(15.536 82.805)" fill="#5d2f12"/>
    <rect id="Rectángulo_3976" data-name="Rectángulo 3976" width="33.502" height="72.75" transform="translate(74.184 258.306)" fill="#b37141"/>
    <path id="Trazado_16378" data-name="Trazado 16378" d="M90.712,325.373V267.517h.03q-.03-.532-.03-1.072c0-9.3,6.931-16.836,15.48-16.836s15.48,7.537,15.48,16.836q0,.54-.03,1.072h.03v57.857Z" transform="translate(24.207 66.609)" fill="#b37141"/>
    <path id="Trazado_16379" data-name="Trazado 16379" d="M94.84,321.045a3.239,3.239,0,0,0,3.486,2.9l16.105.075a3.239,3.239,0,0,0,3.514-2.872l.049-10.06a3.241,3.241,0,0,0-3.488-2.9L98.4,308.109a3.24,3.24,0,0,0-3.51,2.875Z" transform="translate(25.308 82.216)" fill="#e99766"/>
    <path id="Trazado_16380" data-name="Trazado 16380" d="M91.279,318.55c-.955,1.616-.759,3.5.433,4.2s2.925-.042,3.878-1.665l4.87-8.269c.945-1.619.75-3.5-.44-4.2s-2.926.044-3.878,1.66Z" transform="translate(24.196 82.286)" fill="#e99766"/>
    <path id="Trazado_16381" data-name="Trazado 16381" d="M121.27,325.161a3.067,3.067,0,1,0,.844-6l-9.952-1.4a3.067,3.067,0,1,0-.844,6Z" transform="translate(28.877 84.776)" fill="#e99766"/>
    <path id="Trazado_16382" data-name="Trazado 16382" d="M114.424,328.3c2.116.72,4.281-.03,4.837-1.671s-.7-3.547-2.816-4.269l-10.824-3.669c-2.112-.717-4.276.03-4.838,1.67s.7,3.555,2.816,4.272Z" transform="translate(26.859 84.971)" fill="#e99766"/>
    <path id="Trazado_16383" data-name="Trazado 16383" d="M104.2,328.079a2.865,2.865,0,1,0,3.585-4.253l-7.689-6.482a2.871,2.871,0,1,0-3.586,4.269Z" transform="translate(25.37 84.418)" fill="#e99766"/>
    <path id="Trazado_16384" data-name="Trazado 16384" d="M90.762,305.81l-.346,9.743,4.687-4.561,3.2,4.561,4.644-4.277,4,4.046,4.5-4.335,4.054,4.335,3.869-3.179,3.369,4.336-.911-10.656Z" transform="translate(24.128 81.606)" fill="#5d2f12"/>
    <rect id="Rectángulo_3977" data-name="Rectángulo 3977" width="31.026" height="64.546" transform="translate(114.925 267.814)" fill="#b37141"/>
    <path id="Trazado_16385" data-name="Trazado 16385" d="M146.8,224.264a2.3,2.3,0,0,0,3.175-.679l5.869-8.406a2.3,2.3,0,0,0-.452-3.217h0l-6.306-4.414a2.3,2.3,0,0,0-3.173.674l-5.866,8.408a2.3,2.3,0,0,0,.448,3.215Z" transform="translate(37.247 55.286)" fill="#e99766"/>
    <path id="Trazado_16386" data-name="Trazado 16386" d="M140.966,229.975a1.509,1.509,0,0,0,.371,2.1l5.407,3.788a1.511,1.511,0,0,0,2.1-.372l17.9-29.828a1.508,1.508,0,0,0-.37-2.1l-1.4-.982a1.508,1.508,0,0,0-2.1.37Z" transform="translate(37.545 53.986)" fill="#fdb330"/>
    <path id="Trazado_16387" data-name="Trazado 16387" d="M164.136,203.2l5.616,3.932,2.994-4.277-6.125-4.288Z" transform="translate(43.8 52.989)" fill="#363535"/>
    <path id="Trazado_16388" data-name="Trazado 16388" d="M154.461,197.791c8.379-5.019,8.687-3.839,11.963-1.544,2.707,1.9,3.809,2.684,5.549,3.9a.973.973,0,0,1,.188,1.31l-3,4.281c-1.822-1.2-5.668,2.22-6.185,3.046l-4.032-2.823s1.426-2.738,1.888-3.657c.815-1.629.908-2.083.518-2.624-1.176-1.636-2.116-.35-5.328.771-1.639.571-2.867.588-3.3-.186-.251-.454.144-1.523,1.734-2.477" transform="translate(40.737 51.843)" fill="#363535"/>
    <path id="Trazado_16389" data-name="Trazado 16389" d="M152.871,198.678c.428.774,1.653.755,3.29.184,3.218-1.119,4.16-2.4,5.335-.768a1.218,1.218,0,0,1,.076,1.3,1.06,1.06,0,0,0-.218-.536c-1.177-1.634-2.117-.35-5.33.773-1.635.569-2.864.587-3.3-.187a1,1,0,0,1,.1-.9.586.586,0,0,0,.047.129" transform="translate(40.739 52.655)" fill="#1d1d1d"/>
    <path id="Trazado_16390" data-name="Trazado 16390" d="M160.527,207.2c1.234-1.542,4.907-4.746,6.671-3.583l3-4.279.013-.018a1.117,1.117,0,0,1-.151.788l-3,4.279c-1.509-1-4.412,1.212-6.195,3.048Z" transform="translate(42.837 53.19)" fill="#1d1d1d"/>
    <rect id="Rectángulo_3978" data-name="Rectángulo 3978" width="6.493" height="3.927" transform="matrix(0.574, -0.819, 0.819, 0.574, 211.572, 259.558)" fill="#363535"/>
    <path id="Trazado_16391" data-name="Trazado 16391" d="M154.488,212.24A2.105,2.105,0,0,0,157,210.634q.021-.1.034-.2a2.481,2.481,0,0,0-2.187-2.513l-6.69-1.006a2.115,2.115,0,0,0-2.515,1.618c-.014.062-.024.125-.033.19a2.488,2.488,0,0,0,2.189,2.513Z" transform="translate(38.855 55.204)" fill="#e99766"/>
    <path id="Trazado_16392" data-name="Trazado 16392" d="M156.514,219.065a2.377,2.377,0,0,0,3.167-.484,2.036,2.036,0,0,0-.533-2.829,1.72,1.72,0,0,0-.153-.1L153.54,212.2a2.379,2.379,0,0,0-3.17.483,2.028,2.028,0,0,0,.522,2.82c.053.037.109.071.166.1Z" transform="translate(40.031 56.52)" fill="#e99766"/>
    <path id="Trazado_16393" data-name="Trazado 16393" d="M154.531,222.128a2.644,2.644,0,0,0,3.5-.464,2.2,2.2,0,0,0-.581-3.051,2.159,2.159,0,0,0-.2-.122l-6.048-3.831a2.648,2.648,0,0,0-3.5.465,2.2,2.2,0,0,0,.583,3.054,1.947,1.947,0,0,0,.2.119Z" transform="translate(39.313 57.161)" fill="#e99766"/>
    <path id="Trazado_16394" data-name="Trazado 16394" d="M151.333,224.972a2.535,2.535,0,0,0,3.567-.351.312.312,0,0,0,.025-.032,2.615,2.615,0,0,0-.821-3.562l-3.821-2.5c-1.219-.88-2.706-1.116-3.747.228s-.243,2.842.973,3.719Z" transform="translate(38.975 58.122)" fill="#e99766"/>
    <rect id="Rectángulo_3979" data-name="Rectángulo 3979" width="22.73" height="50.342" transform="translate(116.621 203.874) rotate(-28.998)" fill="#e0eef4"/>
    <path id="Trazado_16395" data-name="Trazado 16395" d="M129.087,185.935h0L158.8,207.411s1.625,1.5-2.163,6.928a58.134,58.134,0,0,1-4.049,4.67,53.274,53.274,0,0,0-4.286,5.009,19.82,19.82,0,0,1-1.879,2.624l-30.467-22-.182-.13a11.428,11.428,0,0,1,13.311-18.581" transform="translate(29.627 49.051)" fill="#e0eef4"/>
    <path id="Trazado_16396" data-name="Trazado 16396" d="M39.9,237.657c0,20.488,1.461,39.019,1.461,39.019s-.7-1.058,9.931,0c17.884,1.78,50.221,6.208,68.335,6.472,28.217.413,30.484-4.82,30.484-4.82s-.063-53.881,0-68.537l.149-35.844c.155-37.124-22.541-67.332-50.7-67.478l-11.044-.058c-28.16-.144-48.458,12.775-48.615,49.894Z" transform="translate(10.647 28.396)" fill="#313b48"/>
    <path id="Trazado_16397" data-name="Trazado 16397" d="M90.094,21.932s2.475,5.79-.765,5.955c-13.586.7-47.749,5.171-51.747,32.343-5.525,37.532-3.614,94.018-3.614,94.018l3.628-.768L33.347,162.7l6.96-1.94-1.516,9.264,6.875-3.626,6.591,13.686,10.564-9.22,29.554,17.285L115.7,170.97l12.8,7.892,6.106-11.739,5.579,2.653.338-6.41,4.44,1.623,4.369-7.975,2.193,3.6a204.468,204.468,0,0,1,5.337-22.1c1.694-3.122-42.372-21.338-42.452-25.565-.073-3.548,33.613,4.473,33.506.627-.522-18.592-1.515-39.658-3.4-53.746-3.191-23.883-23.333-30.41-37.264-31.775-1.3-.125-3.548-4.325-4.681-4.378,0,0-1.961,4.832-2.828,4.013-2.986-2.836-9.641-5.76-9.641-5.76" transform="translate(8.899 5.853)" fill="#5d2f12"/>
    <path id="Trazado_16398" data-name="Trazado 16398" d="M140.963,138.1c2.728-2.415,3.366-5.6,3.936-8.442a31.187,31.187,0,0,0,.052-11.022s.033.284.137,1.577a40.931,40.931,0,0,1-17.893-6.175l17.759,1.648c.291-3.826.357-7.044.355-9.468-.006-3.116-.041-4.463-.887-5.773-1.347-2.084-3.684-2.558-4.694-4.018-2.363-3.422-3.719-11.385-3.719-11.385s.264-6.9-.86-8.793c-.9-1.513-1.212-1.675-1.212-1.675l-.471-.683-1.838-19.825c-3.774-6.438-9.319-15.272-28.644-13.044C82.12,43.411,80.476,66.16,80.476,66.16S78.92,92.6,93.037,97.479l.005,14.208s3.205,27.31,39.242,29.134v.028a12.3,12.3,0,0,0,8.679-2.753" transform="translate(21.462 10.852)" fill="#e99766"/>
    <path id="Trazado_16399" data-name="Trazado 16399" d="M123.6,80.084c.289-2.42-.409-4.492-1.554-4.639s-2.312,1.718-2.608,4.136.41,4.5,1.567,4.632,2.309-1.708,2.6-4.129" transform="translate(31.853 20.13)" fill="#4d230e"/>
    <path id="Trazado_16400" data-name="Trazado 16400" d="M125.559,91.754s1.718,3.2,2.843.419l.057-3.1-3.222-.057Z" transform="translate(33.42 23.755)" fill="#271710"/>
    <path id="Trazado_16401" data-name="Trazado 16401" d="M39.9,233.566c0,20.846,1.267,39.7,1.267,39.7s-.606-1.077,8.578,0c15.449,1.812,40.973,11.255,56.622,11.528,24.373.421,24.83-2.453,24.83-2.453s2.625-66.125,2.154-95.422-1.654-39.779-1.654-39.779L131.1,136.25s-39.3.431-62.963-.839S39.9,130.329,39.9,130.329V233.566Z" transform="translate(10.647 34.779)" fill="#e0eef4"/>
    <rect id="Rectángulo_3980" data-name="Rectángulo 3980" width="34.218" height="59.244" transform="translate(72.104 186.583)" fill="#e0eef4"/>
    <path id="Trazado_16402" data-name="Trazado 16402" d="M91.114,246.737a3.13,3.13,0,0,0,4.368.721,2.737,2.737,0,0,0,.234-.186,3.686,3.686,0,0,0,.08-4.948L89.4,234.56a3.144,3.144,0,0,0-4.387-.713c-.076.056-.149.113-.219.172a3.7,3.7,0,0,0-.084,4.957Z" transform="translate(22.363 62.245)" fill="#e99766"/>
    <path id="Trazado_16403" data-name="Trazado 16403" d="M72.519,251.1A3.421,3.421,0,0,0,76.7,253.5L91.54,250.05a3.42,3.42,0,0,0,2.7-4L91.66,234.9a3.42,3.42,0,0,0-4.176-2.408l-14.84,3.456a3.42,3.42,0,0,0-2.7,4Z" transform="translate(18.648 62.011)" fill="#e99766"/>
    <path id="Trazado_16404" data-name="Trazado 16404" d="M116.88,286.3s-.11,1.622-.329,1.723-1.4-.915-1.4-.915l-8.8-18.872,1.733-.808Z" transform="translate(28.379 71.364)" fill="#232322"/>
    <path id="Trazado_16405" data-name="Trazado 16405" d="M113.137,283.132a2.483,2.483,0,0,0,.464-1.513.967.967,0,0,1,.559-.831l.236.507a5.516,5.516,0,0,0-.3,1.177c-.119.736-.44,1-.772,1.058Z" transform="translate(30.191 74.929)" fill="#626161"/>
    <path id="Trazado_16406" data-name="Trazado 16406" d="M112.139,280.99a2.493,2.493,0,0,0,.464-1.511.959.959,0,0,1,.559-.832l.237.508a5.3,5.3,0,0,0-.3,1.174c-.118.736-.438,1-.769,1.065Z" transform="translate(29.925 74.357)" fill="#626161"/>
    <path id="Trazado_16407" data-name="Trazado 16407" d="M111.14,278.846a2.488,2.488,0,0,0,.465-1.51.96.96,0,0,1,.557-.831l.236.5a5.46,5.46,0,0,0-.3,1.177c-.119.736-.44,1-.77,1.065Z" transform="translate(29.658 73.786)" fill="#626161"/>
    <path id="Trazado_16408" data-name="Trazado 16408" d="M110.141,276.706a2.493,2.493,0,0,0,.464-1.511.967.967,0,0,1,.559-.832l.236.505a5.4,5.4,0,0,0-.3,1.178c-.12.733-.44,1-.773,1.059Z" transform="translate(29.391 73.214)" fill="#626161"/>
    <path id="Trazado_16409" data-name="Trazado 16409" d="M109.142,274.562a2.488,2.488,0,0,0,.465-1.51.96.96,0,0,1,.557-.831l.237.505a5.389,5.389,0,0,0-.3,1.177c-.118.736-.438,1-.769,1.065Z" transform="translate(29.125 72.643)" fill="#626161"/>
    <path id="Trazado_16410" data-name="Trazado 16410" d="M108.143,272.421a2.482,2.482,0,0,0,.464-1.511.96.96,0,0,1,.559-.83l.236.5a5.559,5.559,0,0,0-.3,1.177c-.117.739-.438,1-.768,1.068Z" transform="translate(28.858 72.072)" fill="#626161"/>
    <path id="Trazado_16411" data-name="Trazado 16411" d="M104.043,268.1l1.823,3.911,1.866.448,3.3-1.609.983-1.709-1.823-3.91Z" transform="translate(27.764 70.778)" fill="#ffa800"/>
    <path id="Trazado_16412" data-name="Trazado 16412" d="M112.7,265.806l.308.659-.13.825-.731-.443-.133.845-.731-.443-.129.845-.731-.443-.13.845-.731-.443-.129.845-.734-.442-.13.845-.735-.442-.13.845-.731-.443-.13.845-.731-.443-.132.846-.731-.443-.13.845-.728-.445-.13.845-.637-.391-.042-.091-.011.005-1.767-3.788,9.427-4.4Z" transform="translate(27.166 70.088)" fill="#232322"/>
    <rect id="Rectángulo_3981" data-name="Rectángulo 3981" width="12.776" height="9.862" transform="translate(123.773 328.731) rotate(-25.001)" fill="#ffa800"/>
    <path id="Trazado_16413" data-name="Trazado 16413" d="M98.383,262.453a2.675,2.675,0,0,1-4.225-1.267c-1.518-3.256-4.092-4.1-5.665-3.369s-4.179.955-6.282-3.554c0,0,15.244-10.8,16.173,8.189" transform="translate(21.938 67.034)" fill="#232322"/>
    <path id="Trazado_16414" data-name="Trazado 16414" d="M103.164,241.02a8.09,8.09,0,0,1,7.32,4.648l8.675,18.79-11.653,5.435c-1.046.087-3.115,1.343-4.609-1.858-2.126-4.558-4.967-10.743-4.967-10.743s-3.6-1.676-10.158-.77c0,0-9.493,3.122-13.211,4.343-2.638.867-5.981-6.659-3.434-8.209,0,0,17.583-11.459,32.036-11.635" transform="translate(18.738 64.317)" fill="#ffa800"/>
    <path id="Trazado_16415" data-name="Trazado 16415" d="M96.066,247.419c-5.1.394-14.872,1.254-18.065,4.326-2.359,2.273-4.466,1.68-6.154.179,3.983-2.421,17.565-10.156,29.5-10.863-.209,1.649-1.141,6.033-5.282,6.358" transform="translate(19.172 64.328)" fill="#232322"/>
    <path id="Trazado_16416" data-name="Trazado 16416" d="M99.146,245.751a.57.57,0,0,0-.277.756l7.466,16.009a.57.57,0,0,0,1.034-.48h0L99.9,246.025a.566.566,0,0,0-.754-.274h0" transform="translate(26.369 65.565)" fill="#e74f00"/>
    <path id="Trazado_16417" data-name="Trazado 16417" d="M97.646,246.45a.57.57,0,0,0-.28.753l0,0,7.467,16.009a.569.569,0,0,0,1.034-.478l0,0L98.4,246.724a.568.568,0,0,0-.755-.274h0" transform="translate(25.969 65.752)" fill="#e74f00"/>
    <path id="Trazado_16418" data-name="Trazado 16418" d="M96.147,247.15a.567.567,0,0,0-.281.751l0,.005,7.466,16.01a.57.57,0,0,0,1.035-.478l0-.005L96.9,247.425a.566.566,0,0,0-.754-.275" transform="translate(25.568 65.938)" fill="#e74f00"/>
    <path id="Trazado_16419" data-name="Trazado 16419" d="M94.648,247.849a.57.57,0,0,0-.277.756l7.466,16.009a.57.57,0,0,0,1.034-.479v0L95.4,248.123a.568.568,0,0,0-.755-.274" transform="translate(25.169 66.125)" fill="#e74f00"/>
    <path id="Trazado_16420" data-name="Trazado 16420" d="M87.55,260.728a3.869,3.869,0,0,0,4.45,3,3.456,3.456,0,0,0,2.591-4.143c-.022-.091-.047-.182-.075-.271L90.23,242.92a3.881,3.881,0,0,0-4.395-3.286l-.053.008a4.079,4.079,0,0,0-2.5,5.053Z" transform="translate(22.174 63.936)" fill="#e99766"/>
    <path id="Trazado_16421" data-name="Trazado 16421" d="M80.574,259.429c.56,2.473,2.57,4.1,4.5,3.616s3.029-2.858,2.461-5.333l-2.873-12.67c-.562-2.465-2.572-4.094-4.5-3.618s-3.029,2.863-2.469,5.339Z" transform="translate(20.694 64.402)" fill="#e99766"/>
    <path id="Trazado_16422" data-name="Trazado 16422" d="M73.913,257.382a3.774,3.774,0,0,0,4.3,3.156l.044-.008a3.884,3.884,0,0,0,2.63-4.751l-2.417-11.17a3.776,3.776,0,0,0-4.3-3.157l-.044.008a3.9,3.9,0,0,0-2.639,4.756Z" transform="translate(19.04 64.42)" fill="#e99766"/>
    <path id="Trazado_16423" data-name="Trazado 16423" d="M90.842,193.374h0l11.26,53.441s1.168,4.02-10.107,7.844-23.3-.81-23.3-.81L57.531,200.834l-.044-.205-.042-.208,0-.013a17.067,17.067,0,0,1,33.4-7.035" transform="translate(15.23 47.986)" fill="#e0eef4"/>
    <path id="Trazado_16424" data-name="Trazado 16424" d="M131.65,140.8,131,136.836l-2.282,9.747s-44.562.792-66.244-1.945-24.406-6.051-24.406-6.051l1.611-8.265h.867s7.072,3.562,22.86,4.507c21.943,1.32,68.092,1.505,68.092,1.505Z" transform="translate(10.158 34.777)" fill="#e0eef4"/>
    <path id="Trazado_16425" data-name="Trazado 16425" d="M.176,42.909C.12,42.846.061,42.788,0,42.728c.06.06.119.118.175.181" transform="translate(0 11.402)" fill="#b1b1b1"/>
    <path id="Trazado_16426" data-name="Trazado 16426" d="M12.957,73.007h0c-.068.022-.138.044-.186.063.049-.02.115-.042.186-.063" transform="translate(3.408 19.482)" fill="#ec6a47"/>
    <path id="Trazado_16427" data-name="Trazado 16427" d="M45.564,98.744c6.3-1.772,10.042-8.843,9.522-16.911l8.235-2.316a1.5,1.5,0,0,0,.044.27c.407,1.444,3.059,2,6.195,1.4-7.776,2.843-13.135,4.936-13.1,5.375.578,8.129-3.173,15.287-9.519,17.072-6.955,1.953-14.611-3.241-18-11.811a24.717,24.717,0,0,1-.827-2.406l.522-.146c3.764,7.151,10.63,11.245,16.931,9.472" transform="translate(7.501 21.219)" fill="#7e7e7e"/>
    <path id="Trazado_16428" data-name="Trazado 16428" d="M66.974,77.672c3.478-.537,7.207-1.206,11.127-1.986-4.82,1.713-9.539,3.386-13.792,4.918a4.818,4.818,0,0,0,2.665-2.932" transform="translate(17.161 20.197)" fill="#7e7e7e"/>
    <path id="Trazado_16429" data-name="Trazado 16429" d="M45.453,98.256c-6.3,1.772-13.169-2.323-16.926-9.476l26.449-7.434c.518,8.065-3.22,15.139-9.523,16.91" transform="translate(7.613 21.707)" fill="#4f4f4f"/>
    <path id="Trazado_16430" data-name="Trazado 16430" d="M120.479,47.72c1.34,1.8,3.247,3.374,5.275,3.339a20.45,20.45,0,0,1-4.691,3.073c-.1-2.127-.29-4.265-.584-6.413" transform="translate(32.15 12.734)" fill="#ffac00"/>
    <path id="Trazado_16431" data-name="Trazado 16431" d="M149.565,49.019c-2.328-.448-8.988.429-29.718-4.955-.11-.533-.208-1.064-.331-1.6,5.389,1.214,10.132,2.166,14.191,2.956,8.181,1.591,13.577,2.524,15.857,3.6" transform="translate(31.893 11.332)" fill="#ffac00"/>
    <path id="Trazado_16432" data-name="Trazado 16432" d="M26.433,26.832q-.4.84-.774,1.7.374-.861.774-1.7" transform="translate(6.847 7.16)" fill="#f17700"/>
    <path id="Trazado_16433" data-name="Trazado 16433" d="M25.772,28.294q-.412.956-.793,1.938.382-.981.793-1.938" transform="translate(6.666 7.55)" fill="#f17700"/>
    <path id="Trazado_16434" data-name="Trazado 16434" d="M24.977,30.152q-.3.789-.583,1.594.283-.806.583-1.594" transform="translate(6.51 8.046)" fill="#f17700"/>
    <path id="Trazado_16435" data-name="Trazado 16435" d="M24.391,31.8c-.218.642-.431,1.293-.631,1.953.2-.66.413-1.311.631-1.953" transform="translate(6.34 8.487)" fill="#f17700"/>
    <path id="Trazado_16436" data-name="Trazado 16436" d="M23.87,33.4c-.21.7-.409,1.406-.6,2.123.189-.717.388-1.426.6-2.123" transform="translate(6.21 8.913)" fill="#f17700"/>
    <path id="Trazado_16437" data-name="Trazado 16437" d="M27.18,25.31q-.374.72-.732,1.457.357-.735.732-1.457" transform="translate(7.058 6.754)" fill="#f17700"/>
    <path id="Trazado_16438" data-name="Trazado 16438" d="M47.048,15.361a101.761,101.761,0,0,0-5.933,8.892,53.359,53.359,0,0,0-17.91,24.484A46.9,46.9,0,0,1,35.868,34.269C28.213,51.046,25.589,69.126,35.4,78.03a10.021,10.021,0,0,0,1.922,1.347l2.824,10.046,3.666-1.031,2.962-.832.918,3.281,16.676-4.7-.921-3.275,2.963-.832-.3-1.048A261.518,261.518,0,0,0,123.1,66.1c.679,2.417-5.992,5.212-16.1,8.341C88.16,78.3,70.825,80.764,70.882,80.781a39.05,39.05,0,0,0,9.85,1.041C53.675,89.236,24.144,97.9,26.891,107.384a8.544,8.544,0,0,1-1.984-4.021c-.36-3.2,3.351-4.409,1.4-11.351q-.53-1.9-1-3.765-1.5-5.9-2.406-11.384a101.746,101.746,0,0,1-1.435-20.526,75.172,75.172,0,0,1,1.648-13.275c-.156.725-.307,1.457-.448,2.2A56.237,56.237,0,0,1,47.048,15.361" transform="translate(5.714 4.099)" fill="#f17700"/>
    <path id="Trazado_16439" data-name="Trazado 16439" d="M22.846,37.178q.15-.682.321-1.344l.1-.388q-.226.855-.423,1.732" transform="translate(6.097 9.459)" fill="#f17700"/>
    <path id="Trazado_16440" data-name="Trazado 16440" d="M119.805,44.505a1.164,1.164,0,0,0-.162-.024,24.456,24.456,0,0,0-.593-3.841c.2.766.413,1.543.592,2.315.124.532.22,1.064.331,1.6Z" transform="translate(31.769 10.845)" fill="#ffac00"/>
    <path id="Trazado_16441" data-name="Trazado 16441" d="M146.464,55.441a71.375,71.375,0,0,1-.362,7.414L77.165,82.237c-.723-1.426-3.889-1.817-7.345-.845s-5.955,2.954-5.828,4.548l-8.235,2.315L29.3,95.694l-.522.147-3,.844c-2.743-9.484,26.784-18.148,53.84-25.56,18.823-.075,46.912-8.948,66.847-15.684" transform="translate(6.831 14.795)" fill="#ffac00"/>
    <path id="Trazado_16442" data-name="Trazado 16442" d="M22.846,47.16c.043-.174.084-.353.119-.526q.2-.876.422-1.732c.041-.155.079-.31.119-.464.189-.717.386-1.425.6-2.123l.023-.071c.2-.657.412-1.31.63-1.952.057-.167.115-.332.174-.5q.281-.806.581-1.594c.053-.138.1-.277.157-.414q.382-.982.793-1.94l.068-.151q.371-.861.774-1.7l.041-.09c.061-.128.124-.253.185-.38q.357-.735.734-1.457c.063-.123.124-.245.189-.366q.473-.891.972-1.757l.127-.214q.439-.749.889-1.472l.279-.442q.429-.669.873-1.321c.072-.106.143-.215.217-.322q.553-.8,1.134-1.581l.19-.248q.488-.646.991-1.276l.329-.408q.5-.606,1.008-1.2l.233-.272q.629-.718,1.281-1.41c.082-.089.167-.174.251-.262q.532-.559,1.079-1.1l.37-.369q.557-.547,1.135-1.079l.241-.224q.7-.635,1.41-1.244c.105-.09.213-.179.319-.267q.568-.479,1.148-.943l.419-.333q.621-.488,1.258-.962c.079-.06.157-.122.237-.18q.756-.553,1.527-1.086l.376-.253q.6-.407,1.209-.8l.464-.3q.682-.431,1.375-.845l.227-.136q.8-.481,1.624-.929c.141-.085.289-.157.432-.236q.629-.342,1.264-.67l.493-.253q.749-.378,1.508-.742l.185-.09q.849-.4,1.714-.779l.479-.208q.654-.281,1.311-.551l.517-.21q.823-.329,1.656-.64l.12-.047q.889-.329,1.791-.633l.517-.172q.675-.226,1.359-.442l.531-.171c.608-.186,1.219-.369,1.832-.541A55.9,55.9,0,0,1,84.448.035a57.678,57.678,0,0,1,11.9,1.658,61.475,61.475,0,0,1,14.607,5.679A67.827,67.827,0,0,1,133.4,27.236a72.007,72.007,0,0,1,6.542,10.953,74.406,74.406,0,0,1,4.625,12.2c.1.37.2.734.28,1.093a24.512,24.512,0,0,1,.6,3.845c-1-.124-.87,1.35-.02,3.106-.4,4.14-2.283,5.65-3.417,1.61C131.928,24.208,97.359,2.579,64.8,11.736a72.059,72.059,0,0,0-18.011,7.718A56.235,56.235,0,0,0,22.4,49.362c.139-.739.293-1.472.45-2.2" transform="translate(5.976 0)" fill="#ffd200"/>
    <path id="Trazado_16443" data-name="Trazado 16443" d="M62.994,19.431A55.33,55.33,0,0,1,105.739,29c.505.607.718,1.074.576,1.33C94.7,21.592,79.631,18.788,63.624,21.692A65.609,65.609,0,0,0,35.484,33.438,46.914,46.914,0,0,0,22.822,47.907c6.933-16.687,23.09-25.375,40.172-28.476" transform="translate(6.09 4.928)" fill="#c66201"/>
    <path id="Trazado_16444" data-name="Trazado 16444" d="M67.964,85.634a1.42,1.42,0,0,0-.1-.253L136.8,66a71.349,71.349,0,0,0,.362-7.414c-19.935,6.736-48.024,15.609-66.842,15.68a39.04,39.04,0,0,1-9.849-1.041c-.062-.016,17.276-2.484,36.114-6.344,15.369-3.149,31.741-7.23,40.5-11.668a20.408,20.408,0,0,0,4.691-3.073c-2.028.037-3.936-1.54-5.273-3.334a12.75,12.75,0,0,1-1.233-2.019c-.849-1.756-.984-3.229.022-3.106a1.388,1.388,0,0,1,.162.024l.167.047c20.716,5.382,27.374,4.5,29.7,4.952a1.305,1.305,0,0,1,1.217,1.041c2.206,7.853-10.3,14.263-46.511,24.444-14.02,3.941-28.408,7.553-40.905,10.042-3.918.782-7.649,1.451-11.125,1.988a1.493,1.493,0,0,0-.034-.58" transform="translate(16.136 11.653)" fill="#ffac00"/>
    <path id="Trazado_16445" data-name="Trazado 16445" d="M36.217,60.055l4.615,16.412L37.166,77.5l-2.82-10.049-1.8-6.363Z" transform="translate(8.686 16.026)" fill="#c66201"/>
    <path id="Trazado_16446" data-name="Trazado 16446" d="M35.444,61.394h0l22.6-6.356L62.366,70.4l.3,1.048-2.962.832L56.383,60.489,39.7,65.178l3.317,11.8-2.962.831Z" transform="translate(9.458 14.687)" fill="#ffd200"/>
    <path id="Trazado_16447" data-name="Trazado 16447" d="M38.807,64.031,55.485,59.34l3.318,11.8.921,3.275L43.043,79.1l-.922-3.277Z" transform="translate(10.356 15.835)" fill="#ffac00"/>
    <path id="Trazado_16448" data-name="Trazado 16448" d="M40.737,24.95a59.285,59.285,0,0,1,25.5-11.12c16.93-3.073,35.2.2,47.028,12.81.186,1.856-4.434,4.5-7.093,4.184-.139-.105-.286-.2-.427-.3a55.326,55.326,0,0,0-42.747-9.567C45.906,24.058,29.752,32.744,22.829,49.437A53.364,53.364,0,0,1,40.737,24.95" transform="translate(6.092 3.403)" fill="#ffd200"/>
    <path id="Trazado_16449" data-name="Trazado 16449" d="M34.263,36.337A65.6,65.6,0,0,1,62.4,24.59c16.005-2.907,31.068-.1,42.692,8.636.142-.255-.073-.72-.58-1.328.141.1.288.2.427.3,2.664.321,7.284-2.331,7.093-4.183-11.831-12.6-30.1-15.885-47.028-12.812a59.3,59.3,0,0,0-25.5,11.12,101.192,101.192,0,0,1,5.933-8.892,72.03,72.03,0,0,1,18.01-7.718C96.017.548,130.584,22.177,140.661,58.014c1.136,4.039,3.02,2.535,3.417-1.611a12.6,12.6,0,0,0,1.233,2.019c.3,2.152.483,4.287.585,6.413-8.758,4.438-25.131,8.517-40.5,11.668,10.109-3.118,16.778-5.917,16.1-8.34a261.476,261.476,0,0,1-56.983,14.9l-4.32-15.364-22.6,6.353-3.666,1.032,1.791,6.367A10.028,10.028,0,0,1,33.788,80.1c-9.805-8.907-7.181-26.986.475-43.765" transform="translate(7.319 2.031)" fill="#ffac00"/>
    <path id="Trazado_16450" data-name="Trazado 16450" d="M55.952,80.858a1.393,1.393,0,0,1-.043-.27c-.128-1.589,2.369-3.576,5.825-4.549s6.622-.581,7.348.844a1.421,1.421,0,0,1,.1.253,1.483,1.483,0,0,1,.034.588,4.821,4.821,0,0,1-2.671,2.934,13.856,13.856,0,0,1-3.151,1.3c-.426.119-.846.213-1.257.3-3.133.6-5.786.048-6.19-1.4" transform="translate(14.918 20.148)" fill="#ffac00"/>
  </g>
</svg>
