<svg xmlns="http://www.w3.org/2000/svg" viewBox="0 0 33.25 20.86"><defs><style>.cls-1{fill:#75d4f9;}.cls-2{fill:#fff;}.cls-3{fill:#efe94d;}.cls-4{fill:#84533a;}</style></defs><g id="Capa_2" data-name="Capa 2"><g id="Capa_1-2" data-name="Capa 1"><rect class="cls-1" width="33.23" height="20.86"/><rect class="cls-2" y="6.86" width="33.25" height="7.02"/><path class="cls-3" d="M17.82,10.68a.14.14,0,0,1,0,.07l1.85.86-1.89-.68h0s0,0,0,.06l1.62,1.17-1.72-1a.21.21,0,0,1,0,.06l1.36,1.47-1.48-1.35,0,0,1.06,1.7-1.21-1.6-.06,0,.69,1.88-.85-1.81,0,0h0l.32,2-.49-1.95v0h-.07l-.09,2-.09-2v0h0l-.46,2,.28-2h-.07l-.85,1.83.68-1.89h0l-.05,0-1.18,1.64,1-1.73h0l-.06,0-1.49,1.36,1.36-1.48h0l0,0L14,12.28l1.6-1.21,0-.06-1.89.69,1.81-.86s0,0,0,0l-2,.32,1.93-.49s0-.06,0-.08l-2-.09,2-.09v-.05l-2-.45,2,.27a.19.19,0,0,1,0-.07l-1.82-.84,1.88.67,0,0L13.89,8.7l1.72,1,.05-.06L14.3,8.17l1.48,1.36,0,0-1.07-1.7L16,9.38l.07,0-.69-1.88.85,1.81.06,0-.32-2,.5,1.92h.07l.09-2,.09,2h.06l.45-1.95-.28,2,.08,0,.84-1.81L17.15,9.3l0,0,1.18-1.65-1,1.73h0l.06,0,1.5-1.37L17.54,9.58h0l0,0,1.73-1.07-1.6,1.21h0l0,.06h0l1.91-.7L17.8,10h0s0,0,0,0l2-.33-1.94.5h0s0,0,0,.07l2,.09-2,.09h0v0l2,.46-2-.28Z"/><path class="cls-4" d="M16.83,10.05a.45.45,0,0,1,.64,0h0a.64.64,0,0,0-.32-.13.55.55,0,0,0-.32.12Z"/><path class="cls-4" d="M16.92,10.09a.3.3,0,0,1,.44,0h0A.32.32,0,0,1,16.92,10.09Zm0,0a.39.39,0,0,0,.43,0h0A.31.31,0,0,0,16.92,10.09Z"/><path class="cls-4" d="M17.22,10.07a.09.09,0,1,1-.09-.09A.09.09,0,0,1,17.22,10.07Z"/><path class="cls-4" d="M16.87,10.14a.33.33,0,0,0,.25.08c.09,0,.2,0,.26-.07-.05.09-.17.08-.26.1A.34.34,0,0,1,16.87,10.14Z"/><path class="cls-4" d="M16.49,10.06a.55.55,0,0,0-.32-.12.64.64,0,0,0-.32.13h0a.45.45,0,0,1,.64,0Z"/><path class="cls-4" d="M16.4,10.09a.31.31,0,0,0-.43,0h0A.39.39,0,0,0,16.4,10.09Zm0,0a.34.34,0,0,1-.45,0h0A.31.31,0,0,1,16.4,10.09Z"/><path class="cls-4" d="M16.1,10.07a.09.09,0,0,0,.09.09.09.09,0,0,0,0-.18A.09.09,0,0,0,16.1,10.07Z"/><path class="cls-4" d="M16.45,10.14a.35.35,0,0,1-.26.11c-.09,0-.2,0-.25-.1.05.08.17.06.25.07A.35.35,0,0,0,16.45,10.14Z"/><path class="cls-4" d="M17.48,10a.48.48,0,0,0-.62-.12.34.34,0,0,0-.14.3c0,.11,0,.25.12.31h0a.35.35,0,0,1-.15-.31.38.38,0,0,1,.16-.32.48.48,0,0,1,.64.13Z"/><path class="cls-4" d="M16.37,10.5a.08.08,0,0,0,.09.11c.07,0,.14,0,.2,0l.09,0c.05,0,.08,0,.11,0s.12-.06.07-.11h0c.07,0,0,.17-.08.15s-.11,0-.19,0-.13-.07-.19,0a.09.09,0,0,1-.1-.13Z"/><path class="cls-4" d="M17,10.89a.23.23,0,0,0-.29-.07.24.24,0,0,0-.3.07.22.22,0,0,1,.13-.1.43.43,0,0,1,.16,0,.33.33,0,0,1,.17,0A.69.69,0,0,1,17,10.89Z"/><path class="cls-4" d="M16.44,10.91a.81.81,0,0,1,.22,0,.48.48,0,0,1,.21,0h-.11s-.05,0-.11,0A.71.71,0,0,0,16.44,10.91Z"/><path class="cls-4" d="M16.94,10.92,16.8,11a.2.2,0,0,1-.15.08c-.13,0-.17-.14-.28-.15.11,0,.17.14.28.12a.18.18,0,0,0,.14-.06Z"/><path class="cls-4" d="M16.46,11.23a.25.25,0,0,1,.2-.14.21.21,0,0,1,.18.16A.21.21,0,0,0,16.46,11.23Z"/><path class="cls-4" d="M16.47,10.46a1.06,1.06,0,0,0,.12-.34c0-.11,0-.26-.13-.3a.55.55,0,0,0-.65.13h0a.5.5,0,0,1,.66-.15.35.35,0,0,1,.14.32.69.69,0,0,1-.14.34Z"/></g></g></svg>