<svg xmlns="http://www.w3.org/2000/svg" viewBox="0 0 33.27 20.86"><defs><style>.cls-1{fill:#282626;}.cls-2{fill:#43af50;}.cls-3{fill:#fff915;}.cls-4{fill:#39acc6;}.cls-5{fill:#fff;}</style></defs><g id="Capa_2" data-name="Capa 2"><g id="Capa_1-2" data-name="Capa 1"><polygon class="cls-1" points="0.76 12.77 13.64 4.63 26.68 12.64 13.81 20.74 0.76 12.77"/><path class="cls-1" d="M19.22,12.65a5.22,5.22,0,0,1-.12,1.13A5,5,0,0,1,18.7,15,5.57,5.57,0,0,1,8.08,12.65a5.3,5.3,0,0,1,.23-1.56A5.42,5.42,0,0,1,8.8,9.9a5.57,5.57,0,0,1,10.42,2.75Z"/><path class="cls-1" d="M19.1,13.78A5,5,0,0,1,18.7,15l0,0A11.17,11.17,0,0,0,13.6,11.7a18.72,18.72,0,0,0-5.29-.61A5.42,5.42,0,0,1,8.8,9.9a15.46,15.46,0,0,1,5.07.62A10.14,10.14,0,0,1,19.1,13.78Z"/><path class="cls-1" d="M9.22,10.21a.34.34,0,0,0-.33.39.33.33,0,0,0,.34.36c.19,0,.33-.14.33-.39S9.42,10.2,9.22,10.21Zm0,.67c-.15,0-.23-.13-.24-.29a.27.27,0,0,1,.23-.31c.16,0,.23.15.24.29S9.38,10.88,9.23,10.88Z"/><path class="cls-1" d="M10.11,10.75c0-.08,0-.13-.11-.15h0a.18.18,0,0,0,.14-.18.17.17,0,0,0-.06-.14.29.29,0,0,0-.21-.06H9.69v.72h.1v-.31h.09c.09,0,.12,0,.15.14a.69.69,0,0,0,0,.18h.1A.79.79,0,0,1,10.11,10.75Zm-.23-.19h-.1v-.26h.1c.1,0,.16,0,.16.14A.14.14,0,0,1,9.88,10.56Z"/><path class="cls-1" d="M10.79,10.33a.46.46,0,0,0-.29-.11h-.2l0,.72.17,0a.52.52,0,0,0,.33-.09.37.37,0,0,0,.12-.28A.33.33,0,0,0,10.79,10.33Zm-.34.56h-.09l0-.58h.12c.2,0,.29.12.28.29A.28.28,0,0,1,10.45,10.89Z"/><path class="cls-1" d="M11.43,10.38V10.3l-.4,0L11,11l.41,0V11l-.31,0,0-.26.29,0v-.07l-.28,0,0-.23Z"/><path class="cls-1" d="M12.16,10.39l-.18.34-.11.23h0c0-.08,0-.16,0-.25l-.07-.37-.12,0-.15.72h.08l.07-.31c0-.1,0-.23.06-.32a1.77,1.77,0,0,0,0,.3l.07.36h.07l.18-.34a2.1,2.1,0,0,0,.13-.26h0a3.11,3.11,0,0,0,0,.32l0,.32h.09l.06-.73Z"/><path class="cls-1" d="M13.44,11l-.08,0a.48.48,0,0,1-.13.19l-.12-.24h0c.13,0,.19-.08.21-.15a.16.16,0,0,0-.13-.19.17.17,0,0,0-.22.13.3.3,0,0,0,0,.16h0a.27.27,0,0,0-.19.18.2.2,0,0,0,.17.25.31.31,0,0,0,.23,0l.05.09.11,0-.09-.16A.57.57,0,0,0,13.44,11Zm-.38-.27a.09.09,0,0,1,.11-.08.08.08,0,0,1,.06.11c0,.06-.07.09-.15.11A.22.22,0,0,1,13.06,10.73Zm-.06.51a.14.14,0,0,1-.11-.17A.17.17,0,0,1,13,11l.15.27A.2.2,0,0,1,13,11.24Z"/><path class="cls-1" d="M14.45,11a.32.32,0,0,0-.18-.12l-.17-.05-.23.69.09,0,.09-.27.07,0a.33.33,0,0,0,.24,0,.23.23,0,0,0,.1-.13A.2.2,0,0,0,14.45,11Zm-.08.14a.16.16,0,0,1-.22.1l-.08,0,.1-.27.08,0C14.35,11,14.4,11.08,14.37,11.17Z"/><path class="cls-1" d="M15,11.24a.38.38,0,0,0-.18-.13l-.18,0-.25.68.09,0,.11-.3.08,0c.08,0,.11.08.09.18s0,.16,0,.18l.1,0a.82.82,0,0,1,0-.21.18.18,0,0,0,0-.18h0a.19.19,0,0,0,.19-.13A.2.2,0,0,0,15,11.24Zm-.09.13a.14.14,0,0,1-.2.07l-.09,0,.09-.26.09,0C14.91,11.22,15,11.28,14.93,11.37Z"/><path class="cls-1" d="M15.52,11.38a.36.36,0,0,0-.47.22.34.34,0,1,0,.47-.22Zm.06.44c-.07.15-.2.24-.34.18a.25.25,0,0,1-.09-.36c.06-.15.19-.25.34-.19A.27.27,0,0,1,15.58,11.82Z"/><path class="cls-1" d="M16.28,11.77a.37.37,0,0,0-.53.14.38.38,0,0,0,0,.29.41.41,0,0,0,.19.22,1.28,1.28,0,0,0,.22.07l.17-.31-.21-.12,0,.07.13.07-.1.19a.24.24,0,0,1-.12,0,.26.26,0,0,1-.11-.39.27.27,0,0,1,.4-.12.29.29,0,0,1,.13.1l.06,0A.4.4,0,0,0,16.28,11.77Z"/><path class="cls-1" d="M16.89,12.38a.17.17,0,0,0,0-.14c0-.06-.06-.11-.15-.17L16.62,12l-.4.61.08.05.17-.26.07,0c.08.05.09.1.05.2a.88.88,0,0,0-.06.17l.09,0a.74.74,0,0,1,.06-.2.19.19,0,0,0,0-.18h0A.19.19,0,0,0,16.89,12.38Zm-.3,0-.08-.06.15-.22.08.05c.08,0,.12.13.07.2A.15.15,0,0,1,16.59,12.37Z"/><path class="cls-1" d="M17.4,12.63l.05-.07-.32-.23-.44.58.33.25,0-.06-.24-.2.15-.21.23.18.05-.07L17,12.63l.14-.18Z"/><path class="cls-1" d="M17.76,12.8a.23.23,0,0,0-.32,0,.23.23,0,0,0,0,.28c.05.1.05.16,0,.21a.13.13,0,0,1-.2,0,.41.41,0,0,1-.1-.14l-.07,0a.34.34,0,0,0,.12.16.22.22,0,0,0,.33,0c.07-.08.06-.17,0-.28s-.06-.15,0-.21a.14.14,0,0,1,.18,0,.19.19,0,0,1,.08.12l.07,0A.33.33,0,0,0,17.76,12.8Z"/><path class="cls-1" d="M18.17,13.17a.22.22,0,0,0-.31,0c-.07.08-.06.17,0,.28s0,.15,0,.21a.14.14,0,0,1-.2,0,.33.33,0,0,1-.09-.16l-.07,0a.38.38,0,0,0,.1.17c.13.11.26.1.33,0s.07-.17,0-.29-.06-.15,0-.2.1-.06.18,0l.08.12.07,0A.63.63,0,0,0,18.17,13.17Z"/><path class="cls-1" d="M18.63,13.61a.35.35,0,0,0-.51,0,.34.34,0,0,0,0,.5.35.35,0,0,0,.52,0A.33.33,0,0,0,18.63,13.61Zm-.09.43c-.12.12-.28.16-.39.05a.26.26,0,0,1,0-.37c.11-.12.27-.17.38-.06S18.63,13.93,18.54,14Z"/><path class="cls-1" d="M17.11,14.72a.07.07,0,0,1-.07.06s-.07,0-.07-.06a.08.08,0,0,1,.07-.07A.07.07,0,0,1,17.11,14.72Z"/><path class="cls-1" d="M16.62,14.75a.07.07,0,1,1-.07-.07A.07.07,0,0,1,16.62,14.75Z"/><path class="cls-1" d="M16.57,15.1a.06.06,0,0,1-.06.06.06.06,0,0,1-.06-.06.05.05,0,0,1,.06-.06A.06.06,0,0,1,16.57,15.1Z"/><path class="cls-1" d="M16.47,15.31a0,0,0,0,1,0,0,.06.06,0,0,1-.06,0,.06.06,0,0,1,.06-.06A.06.06,0,0,1,16.47,15.31Z"/><path class="cls-1" d="M16.25,15.42a.06.06,0,0,1-.06.06.06.06,0,0,1,0-.12A.06.06,0,0,1,16.25,15.42Z"/><path class="cls-1" d="M15.93,15.5a.06.06,0,0,1,0,.06.06.06,0,0,1-.06-.06s0-.05.06-.05A0,0,0,0,1,15.93,15.5Z"/><path class="cls-1" d="M16.17,15.89a.07.07,0,0,1-.06.07.07.07,0,0,1,0-.14A.07.07,0,0,1,16.17,15.89Z"/><path class="cls-1" d="M16.19,16.21a.07.07,0,0,1-.14,0,.07.07,0,0,1,.14,0Z"/><path class="cls-1" d="M15,15.51a0,0,0,0,1,0,.05.05.05,0,1,1,0-.1A0,0,0,0,1,15,15.51Z"/><path class="cls-1" d="M14.7,15.51a0,0,0,0,1,0,.05.05.05,0,0,1,0-.1A0,0,0,0,1,14.7,15.51Z"/><path class="cls-1" d="M14.81,15.91a0,0,0,0,1,0,.05,0,0,0,0,1,0-.05,0,0,0,0,1,0,0A0,0,0,0,1,14.81,15.91Z"/><path class="cls-1" d="M13.48,16.49a.07.07,0,0,1-.07.06.06.06,0,0,1-.06-.06.07.07,0,0,1,.06-.07A.07.07,0,0,1,13.48,16.49Z"/><path class="cls-1" d="M13.41,14.85a.07.07,0,0,1-.06.07.07.07,0,0,1,0-.14A.07.07,0,0,1,13.41,14.85Z"/><circle class="cls-1" cx="13.77" cy="14.34" r="0.07"/><path class="cls-1" d="M13.33,13.86a.07.07,0,0,1-.14,0,.07.07,0,0,1,.14,0Z"/><path class="cls-1" d="M12.84,14.2a.07.07,0,0,1-.14,0,.07.07,0,0,1,.14,0Z"/><path class="cls-1" d="M13.08,14.44a0,0,0,0,1-.08,0,0,0,0,0,1,.08,0Z"/><path class="cls-1" d="M14.64,12.6a.07.07,0,0,1-.07.07.07.07,0,0,1,0-.14A.07.07,0,0,1,14.64,12.6Z"/><path class="cls-1" d="M15.17,10.63a.07.07,0,0,1-.14,0,.07.07,0,0,1,.14,0Z"/><path class="cls-1" d="M11.69,13a.07.07,0,0,1-.06.07.07.07,0,0,1-.07-.07.07.07,0,0,1,.07-.06A.06.06,0,0,1,11.69,13Z"/><path class="cls-1" d="M11.12,15.5a.08.08,0,0,1-.07.07.07.07,0,0,1,0-.14A.08.08,0,0,1,11.12,15.5Z"/><path class="cls-1" d="M10.16,15.12a0,0,0,0,1-.1,0,.05.05,0,0,1,.1,0Z"/><path class="cls-1" d="M10.2,14.7a.05.05,0,0,1,0,.05.05.05,0,1,1,0-.1A.05.05,0,0,1,10.2,14.7Z"/><path class="cls-1" d="M9.93,14.33a0,0,0,0,1-.1,0,.05.05,0,0,1,.1,0Z"/><path class="cls-1" d="M9.38,14.39a.07.07,0,1,1-.07-.07A.07.07,0,0,1,9.38,14.39Z"/><path class="cls-1" d="M8.85,14.64a0,0,0,0,1-.08,0,0,0,0,0,1,.08,0A0,0,0,0,1,8.85,14.64Z"/><path class="cls-1" d="M8.9,11.84a.07.07,0,0,1-.07.06s-.07,0-.07-.06a.08.08,0,0,1,.07-.07A.07.07,0,0,1,8.9,11.84Z"/><polygon class="cls-1" points="1.81 12.04 14.69 3.9 27.73 11.91 14.86 20.02 1.81 12.04"/><path class="cls-1" d="M20.28,11.92a5.93,5.93,0,0,1-.12,1.13,5.47,5.47,0,0,1-.41,1.22A5.56,5.56,0,0,1,9.14,11.92a5.3,5.3,0,0,1,.22-1.56,5.45,5.45,0,0,1,.5-1.19,5.57,5.57,0,0,1,10.42,2.75Z"/><path class="cls-1" d="M20.16,13.05a5.47,5.47,0,0,1-.41,1.22s0,0,0,0A11.17,11.17,0,0,0,14.65,11a18.72,18.72,0,0,0-5.29-.61,5.45,5.45,0,0,1,.5-1.19,15.36,15.36,0,0,1,5.07.63A10.14,10.14,0,0,1,20.16,13.05Z"/><path class="cls-1" d="M10.27,9.48a.34.34,0,0,0-.33.39c0,.23.15.37.34.36a.33.33,0,0,0,.33-.39C10.6,9.62,10.47,9.47,10.27,9.48Zm0,.68c-.16,0-.24-.14-.25-.29s.07-.31.23-.31.24.14.24.29S10.43,10.15,10.29,10.16Z"/><path class="cls-1" d="M11.16,10c0-.08-.05-.13-.11-.15h0a.2.2,0,0,0,.14-.19.18.18,0,0,0-.06-.14.27.27,0,0,0-.2-.06h-.19v.72h.1V9.9h.09c.09,0,.12,0,.15.14a1.34,1.34,0,0,0,0,.18h.1A1.82,1.82,0,0,1,11.16,10Zm-.23-.19h-.1V9.56h.09c.1,0,.17,0,.17.14A.15.15,0,0,1,10.93,9.83Z"/><path class="cls-1" d="M11.84,9.6a.43.43,0,0,0-.29-.11h-.2l0,.72.17,0a.46.46,0,0,0,.33-.09.37.37,0,0,0,.12-.28A.34.34,0,0,0,11.84,9.6Zm-.33.56h-.1l0-.57h.11a.26.26,0,0,1,.28.3A.27.27,0,0,1,11.51,10.16Z"/><path class="cls-1" d="M12.48,9.65V9.57l-.39,0-.07.73.41,0v-.08l-.32,0,0-.26.29,0V9.88l-.28,0,0-.23Z"/><path class="cls-1" d="M13.22,9.67,13,10a1.17,1.17,0,0,0-.11.23h0c0-.08,0-.16,0-.25l-.07-.37-.12,0-.15.72h.09l.06-.31c0-.1,0-.23.06-.32,0,.09,0,.19,0,.3l.08.36h.06l.18-.33a2.19,2.19,0,0,0,.13-.27h0a3.11,3.11,0,0,0,0,.32l0,.32h.09l.05-.73Z"/><path class="cls-1" d="M14.49,10.27l-.08,0a.62.62,0,0,1-.12.19,2.36,2.36,0,0,1-.13-.23h0c.13,0,.19-.08.21-.15a.15.15,0,0,0-.12-.19A.17.17,0,0,0,14,10a.22.22,0,0,0,0,.16h0a.24.24,0,0,0-.19.17.23.23,0,0,0,.18.26.35.35,0,0,0,.22,0,.9.9,0,0,1,.05.09l.11,0-.09-.16A.5.5,0,0,0,14.49,10.27ZM14.11,10a.1.1,0,0,1,.12-.08.09.09,0,0,1,0,.11c0,.06-.07.09-.15.11A.22.22,0,0,1,14.11,10Zm0,.52a.14.14,0,0,1-.11-.18.15.15,0,0,1,.12-.12l.15.27A.21.21,0,0,1,14.06,10.52Z"/><path class="cls-1" d="M15.5,10.3a.28.28,0,0,0-.18-.12l-.17,0-.23.68.09,0,.09-.27.07,0a.38.38,0,0,0,.24,0,.23.23,0,0,0,.1-.13A.2.2,0,0,0,15.5,10.3Zm-.08.15a.16.16,0,0,1-.22.09l-.08,0,.1-.27.08,0C15.4,10.29,15.45,10.35,15.42,10.45Z"/><path class="cls-1" d="M16.07,10.51a.33.33,0,0,0-.18-.13l-.17-.05-.26.68.09,0,.11-.3.09,0c.07,0,.1.08.08.18s0,.16,0,.18l.1,0a1.11,1.11,0,0,1,0-.21.18.18,0,0,0,0-.18h0a.19.19,0,0,0,.19-.13A.2.2,0,0,0,16.07,10.51Zm-.09.13a.14.14,0,0,1-.2.07l-.09,0,.09-.25.09,0C16,10.49,16,10.55,16,10.64Z"/><path class="cls-1" d="M16.58,10.65a.35.35,0,0,0-.47.22.33.33,0,1,0,.61.26A.34.34,0,0,0,16.58,10.65Zm.05.44c-.07.15-.2.24-.34.18a.25.25,0,0,1-.09-.36c.07-.15.2-.25.34-.19A.27.27,0,0,1,16.63,11.09Z"/><path class="cls-1" d="M17.34,11a.38.38,0,0,0-.54.14.39.39,0,0,0,0,.29.41.41,0,0,0,.19.22,1.28,1.28,0,0,0,.22.07l.17-.31-.21-.12,0,.07.13.07-.1.19a.24.24,0,0,1-.12,0,.26.26,0,0,1-.11-.39.27.27,0,0,1,.4-.12.38.38,0,0,1,.13.1l.06-.05A.44.44,0,0,0,17.34,11Z"/><path class="cls-1" d="M17.94,11.66a.17.17,0,0,0,0-.15c0-.06-.06-.11-.14-.17l-.16-.08-.4.6.08.05.17-.26.08,0c.07.05.08.1,0,.2a.82.82,0,0,0-.05.17l.08,0a1.56,1.56,0,0,1,.06-.2.17.17,0,0,0,0-.18h0A.19.19,0,0,0,17.94,11.66Zm-.3,0-.08-.05.15-.23.08.05a.15.15,0,0,1,.07.21C17.81,11.69,17.73,11.7,17.64,11.64Z"/><path class="cls-1" d="M18.45,11.9l.05-.06-.31-.24-.45.58.33.25.05-.06-.25-.19L18,12l.22.18.05-.07-.23-.17.14-.18Z"/><path class="cls-1" d="M18.81,12.07a.22.22,0,0,0-.31,0,.23.23,0,0,0,0,.29c0,.09.06.15,0,.2a.14.14,0,0,1-.2,0,.56.56,0,0,1-.1-.15l-.07,0a.42.42,0,0,0,.12.16.22.22,0,0,0,.33,0c.07-.08.06-.16,0-.28s-.07-.15,0-.2a.13.13,0,0,1,.18,0,.36.36,0,0,1,.09.12l.07,0A.37.37,0,0,0,18.81,12.07Z"/><path class="cls-1" d="M19.22,12.45a.21.21,0,0,0-.31,0c-.06.08-.05.17,0,.29s0,.15,0,.2a.14.14,0,0,1-.2,0,.35.35,0,0,1-.09-.15l-.07,0a.35.35,0,0,0,.1.16A.24.24,0,0,0,19,13a.22.22,0,0,0,0-.29c-.05-.09-.05-.15,0-.2s.1-.06.18,0a.4.4,0,0,1,.08.12l.07,0A.32.32,0,0,0,19.22,12.45Z"/><path class="cls-1" d="M19.68,12.88a.36.36,0,0,0-.51,0,.34.34,0,1,0,.49.46A.33.33,0,0,0,19.68,12.88Zm-.09.43c-.12.12-.28.16-.39,0a.26.26,0,0,1,0-.37c.12-.12.27-.16.38-.05A.25.25,0,0,1,19.59,13.31Z"/><path class="cls-1" d="M18.16,14a.06.06,0,0,1-.06.06A.07.07,0,0,1,18,14a.07.07,0,0,1,.07-.07A.07.07,0,0,1,18.16,14Z"/><path class="cls-1" d="M17.67,14A.07.07,0,1,1,17.6,14,.07.07,0,0,1,17.67,14Z"/><path class="cls-1" d="M17.62,14.37a.06.06,0,1,1-.06-.06A.06.06,0,0,1,17.62,14.37Z"/><path class="cls-1" d="M17.53,14.58a.06.06,0,0,1-.12,0,.06.06,0,0,1,.12,0Z"/><path class="cls-1" d="M17.3,14.69a.06.06,0,0,1-.06.06.06.06,0,0,1,0-.12A.06.06,0,0,1,17.3,14.69Z"/><path class="cls-1" d="M17,14.77a.06.06,0,0,1-.05.06.06.06,0,0,1-.06-.06.06.06,0,0,1,.06,0A0,0,0,0,1,17,14.77Z"/><path class="cls-1" d="M17.23,15.16a.07.07,0,1,1-.07-.07A.07.07,0,0,1,17.23,15.16Z"/><path class="cls-1" d="M17.24,15.48a.07.07,0,0,1-.06.07.07.07,0,0,1-.07-.07.07.07,0,0,1,.07-.06A.06.06,0,0,1,17.24,15.48Z"/><path class="cls-1" d="M16.09,14.78a.05.05,0,0,1-.05.05,0,0,0,0,1,0-.05,0,0,0,0,1,0,0S16.09,14.76,16.09,14.78Z"/><path class="cls-1" d="M15.75,14.78a0,0,0,0,1-.05.05,0,0,0,0,1,0-.05s0,0,0,0A.05.05,0,0,1,15.75,14.78Z"/><path class="cls-1" d="M15.87,15.18a0,0,0,0,1,0,.05s0,0,0-.05a0,0,0,0,1,0,0A0,0,0,0,1,15.87,15.18Z"/><path class="cls-1" d="M14.54,15.76a.07.07,0,1,1-.07-.07A.07.07,0,0,1,14.54,15.76Z"/><path class="cls-1" d="M14.47,14.12a.07.07,0,1,1-.07-.07A.07.07,0,0,1,14.47,14.12Z"/><path class="cls-1" d="M14.89,13.61a.07.07,0,0,1-.06.07.07.07,0,1,1,0-.14A.07.07,0,0,1,14.89,13.61Z"/><path class="cls-1" d="M14.38,13.13a.07.07,0,0,1-.07.07.07.07,0,0,1-.06-.07.06.06,0,0,1,.06-.06A.07.07,0,0,1,14.38,13.13Z"/><path class="cls-1" d="M13.89,13.48a.07.07,0,0,1-.14,0,.07.07,0,0,1,.14,0Z"/><path class="cls-1" d="M14.13,13.71s0,0,0,0a0,0,0,0,1,0,0,0,0,0,0,1,0,0A0,0,0,0,1,14.13,13.71Z"/><path class="cls-1" d="M15.69,11.87a.07.07,0,0,1-.07.07.07.07,0,0,1-.06-.07.06.06,0,0,1,.06-.06A.07.07,0,0,1,15.69,11.87Z"/><path class="cls-1" d="M16.22,9.9a.07.07,0,0,1-.07.07.07.07,0,0,1,0-.14A.07.07,0,0,1,16.22,9.9Z"/><path class="cls-1" d="M12.75,12.27a.07.07,0,0,1-.14,0,.07.07,0,0,1,.14,0Z"/><path class="cls-1" d="M12.17,14.77a.07.07,0,1,1-.07-.07A.07.07,0,0,1,12.17,14.77Z"/><path class="cls-1" d="M11.21,14.39a.05.05,0,1,1-.1,0,.05.05,0,0,1,.1,0Z"/><path class="cls-1" d="M11.25,14a.05.05,0,0,1-.05,0,0,0,0,0,1,0-.1A.05.05,0,0,1,11.25,14Z"/><path class="cls-1" d="M11,13.6a0,0,0,0,1-.05.05,0,0,0,0,1,0-.05,0,0,0,0,1,0,0A0,0,0,0,1,11,13.6Z"/><path class="cls-1" d="M10.43,13.66a.07.07,0,1,1-.07-.07A.07.07,0,0,1,10.43,13.66Z"/><path class="cls-1" d="M9.9,13.91a0,0,0,0,1-.08,0,0,0,0,0,1,.08,0A0,0,0,0,1,9.9,13.91Z"/><path class="cls-1" d="M10,11.11a.07.07,0,0,1-.07.07.07.07,0,0,1,0-.14A.07.07,0,0,1,10,11.11Z"/><rect class="cls-2" width="33.27" height="20.86"/><polygon class="cls-3" points="3.68 10.5 16.56 2.36 29.61 10.37 16.73 18.48 3.68 10.5"/><path class="cls-4" d="M22.15,10.38A5.22,5.22,0,0,1,22,11.51a5.47,5.47,0,0,1-.41,1.22A5.56,5.56,0,0,1,11,10.38a5.65,5.65,0,0,1,.22-1.56,5.45,5.45,0,0,1,.5-1.19,5.57,5.57,0,0,1,10.42,2.75Z"/><path class="cls-5" d="M22,11.51a5.47,5.47,0,0,1-.41,1.22l0,0a11.14,11.14,0,0,0-5.07-3.28,18.81,18.81,0,0,0-5.3-.61,5.45,5.45,0,0,1,.5-1.19,15.36,15.36,0,0,1,5.07.63A10.14,10.14,0,0,1,22,11.51Z"/><path class="cls-2" d="M12.14,7.94a.35.35,0,0,0-.33.39c0,.23.15.37.34.36a.33.33,0,0,0,.33-.39C12.47,8.08,12.34,7.93,12.14,7.94Zm0,.68a.26.26,0,0,1-.24-.29c0-.16.06-.31.22-.31s.24.14.24.29S12.3,8.61,12.16,8.62Z"/><path class="cls-2" d="M13,8.48a.17.17,0,0,0-.1-.15h0a.2.2,0,0,0,.13-.19A.22.22,0,0,0,13,8a.31.31,0,0,0-.21-.06h-.18v.72h.09V8.36h.09c.09,0,.13,0,.15.14a.5.5,0,0,0,.05.18h.1A.68.68,0,0,1,13,8.48Zm-.23-.19h-.1V8h.09c.1,0,.17.05.17.14A.15.15,0,0,1,12.8,8.29Z"/><path class="cls-2" d="M13.71,8.06A.43.43,0,0,0,13.42,8h-.2l0,.72.17,0a.49.49,0,0,0,.34-.09.4.4,0,0,0,.11-.28A.31.31,0,0,0,13.71,8.06Zm-.33.56h-.1l0-.57h.11a.27.27,0,0,1,.29.3A.28.28,0,0,1,13.38,8.62Z"/><path class="cls-2" d="M14.36,8.11V8L14,8l-.07.73.41,0V8.68l-.32,0,0-.26.28,0V8.34l-.28,0,0-.23Z"/><path class="cls-2" d="M15.09,8.13l-.18.33a2.29,2.29,0,0,0-.11.23h0a2.42,2.42,0,0,0,0-.25l-.08-.37-.12,0-.15.72h.09l.06-.31c0-.1,0-.23.06-.32,0,.09,0,.19.05.3l.07.36h.06L15,8.49l.13-.27h0c0,.09,0,.22,0,.32l0,.32h.09l0-.73Z"/><path class="cls-2" d="M16.36,8.73l-.08,0a.62.62,0,0,1-.12.19L16,8.67h0c.12,0,.18-.08.2-.15a.15.15,0,0,0-.12-.19.17.17,0,0,0-.22.13.18.18,0,0,0,0,.16h0a.24.24,0,0,0-.2.17.23.23,0,0,0,.18.26.39.39,0,0,0,.23,0l0,.09.12,0A.89.89,0,0,1,16.2,9,.48.48,0,0,0,16.36,8.73ZM16,8.46a.11.11,0,0,1,.12-.08.08.08,0,0,1,0,.11c0,.06-.06.09-.15.11A.22.22,0,0,1,16,8.46ZM15.93,9a.14.14,0,0,1-.11-.18A.16.16,0,0,1,16,8.68c.05.11.11.21.14.27A.21.21,0,0,1,15.93,9Z"/><path class="cls-2" d="M17.37,8.76a.29.29,0,0,0-.17-.12.86.86,0,0,0-.18,0l-.23.68.09,0L17,9l.07,0a.38.38,0,0,0,.24,0,.24.24,0,0,0,.09-.3Zm-.08.15c0,.09-.11.12-.22.09L17,9l.09-.27.09,0C17.28,8.75,17.32,8.81,17.29,8.91Z"/><path class="cls-2" d="M17.94,9a.35.35,0,0,0-.17-.13l-.18-.05-.26.68.09,0,.11-.3.09,0c.08,0,.1.08.08.18a.62.62,0,0,0,0,.18l.09,0s0-.1,0-.21a.18.18,0,0,0-.05-.18h0a.19.19,0,0,0,.19-.13A.19.19,0,0,0,17.94,9Zm-.08.13a.15.15,0,0,1-.21.07l-.09,0,.09-.25.09,0C17.84,9,17.89,9,17.86,9.1Z"/><path class="cls-2" d="M18.45,9.11a.36.36,0,0,0-.47.22.34.34,0,1,0,.47-.22Zm.06.44c-.07.15-.21.24-.34.18a.26.26,0,0,1-.1-.36c.07-.15.2-.25.34-.19A.28.28,0,0,1,18.51,9.55Z"/><path class="cls-2" d="M19.21,9.5a.36.36,0,0,0-.53.14.34.34,0,0,0,0,.29.37.37,0,0,0,.19.22,1,1,0,0,0,.21.07l.17-.31L19,9.79l0,.07.13.07-.11.19-.12,0a.26.26,0,0,1-.1-.39.27.27,0,0,1,.4-.12.44.44,0,0,1,.12.1l.06-.05A.44.44,0,0,0,19.21,9.5Z"/><path class="cls-2" d="M19.81,10.12a.17.17,0,0,0,0-.15.33.33,0,0,0-.15-.17.79.79,0,0,0-.16-.08l-.4.6.08,0,.18-.26.07.05c.07.05.08.1,0,.2a.68.68,0,0,0-.05.17l.08.05a1,1,0,0,1,.07-.2.22.22,0,0,0,0-.18h0A.19.19,0,0,0,19.81,10.12Zm-.3,0-.08,0,.15-.23.09,0a.14.14,0,0,1,.06.21C19.68,10.15,19.6,10.16,19.51,10.1Z"/><path class="cls-2" d="M20.32,10.36l.05-.06-.31-.24-.44.58.32.25,0-.06-.25-.19.16-.22.22.18.05-.07-.23-.17.15-.18Z"/><path class="cls-2" d="M20.68,10.53a.22.22,0,0,0-.31,0c-.07.08-.05.18,0,.29s.06.15,0,.2a.14.14,0,0,1-.2,0,.35.35,0,0,1-.09-.15l-.07,0a.38.38,0,0,0,.11.16.22.22,0,0,0,.33,0c.07-.08.06-.16,0-.28s-.06-.15,0-.2.1-.06.18,0a.3.3,0,0,1,.08.12l.07,0A.28.28,0,0,0,20.68,10.53Z"/><path class="cls-2" d="M21.1,10.91a.21.21,0,0,0-.31,0c-.07.08-.06.17,0,.29s.05.15,0,.2-.12,0-.2,0a.49.49,0,0,1-.09-.15l-.07,0a.31.31,0,0,0,.11.16.23.23,0,0,0,.33,0,.22.22,0,0,0,0-.29c0-.09-.05-.15,0-.2A.12.12,0,0,1,21,11a.4.4,0,0,1,.08.12l.07,0A.38.38,0,0,0,21.1,10.91Z"/><path class="cls-2" d="M21.55,11.34a.36.36,0,0,0-.51,0,.34.34,0,1,0,.49.46A.33.33,0,0,0,21.55,11.34Zm-.09.43c-.12.12-.27.16-.38.05a.25.25,0,0,1,0-.37.24.24,0,1,1,.34.32Z"/><path class="cls-5" d="M20,12.45a.07.07,0,0,1-.14,0,.07.07,0,0,1,.14,0Z"/><path class="cls-5" d="M19.54,12.48a.07.07,0,0,1-.07.07.07.07,0,0,1,0-.14A.07.07,0,0,1,19.54,12.48Z"/><path class="cls-5" d="M19.49,12.83a.06.06,0,1,1-.06-.06A.06.06,0,0,1,19.49,12.83Z"/><path class="cls-5" d="M19.4,13a.06.06,0,0,1-.06.05,0,0,0,0,1-.05-.05.06.06,0,0,1,.05-.06A.06.06,0,0,1,19.4,13Z"/><path class="cls-5" d="M19.17,13.15a.06.06,0,0,1-.05.06.06.06,0,0,1,0-.12A.06.06,0,0,1,19.17,13.15Z"/><path class="cls-5" d="M18.86,13.23a.06.06,0,0,1-.12,0,.06.06,0,0,1,.12,0Z"/><path class="cls-5" d="M19.1,13.62a.07.07,0,1,1-.07-.07A.07.07,0,0,1,19.1,13.62Z"/><path class="cls-5" d="M19.12,13.94a.08.08,0,0,1-.07.07.07.07,0,0,1-.07-.07.07.07,0,0,1,.07-.06S19.12,13.91,19.12,13.94Z"/><path class="cls-5" d="M18,13.24a0,0,0,0,1-.05,0,0,0,0,0,1,0,0,0,0,0,0,1,0,0A0,0,0,0,1,18,13.24Z"/><path class="cls-5" d="M17.62,13.24a0,0,0,0,1,0,0,0,0,0,0,1,0,0,.05.05,0,0,1,0-.05S17.62,13.22,17.62,13.24Z"/><path class="cls-5" d="M17.74,13.64a0,0,0,0,1,0,0,0,0,0,0,1,0,0,0,0,0,0,1,0,0A0,0,0,0,1,17.74,13.64Z"/><path class="cls-5" d="M16.41,14.22a.07.07,0,0,1-.14,0,.07.07,0,0,1,.14,0Z"/><path class="cls-5" d="M16.34,12.58a.07.07,0,1,1-.07-.07A.07.07,0,0,1,16.34,12.58Z"/><path class="cls-5" d="M16.77,12.07a.08.08,0,0,1-.07.07.07.07,0,0,1,0-.14A.08.08,0,0,1,16.77,12.07Z"/><path class="cls-5" d="M16.25,11.59a.07.07,0,0,1-.06.07.07.07,0,0,1-.07-.07.07.07,0,0,1,.07-.06A.06.06,0,0,1,16.25,11.59Z"/><path class="cls-5" d="M15.76,11.94a.07.07,0,0,1-.14,0,.07.07,0,0,1,.14,0Z"/><circle class="cls-5" cx="15.96" cy="12.17" r="0.04"/><path class="cls-5" d="M17.56,10.33s0,.07-.06.07a.07.07,0,0,1-.07-.07.07.07,0,0,1,.07-.06A.06.06,0,0,1,17.56,10.33Z"/><path class="cls-5" d="M18.09,8.36a.07.07,0,0,1-.06.07.07.07,0,0,1,0-.14A.07.07,0,0,1,18.09,8.36Z"/><path class="cls-5" d="M14.62,10.73a.07.07,0,0,1-.14,0,.07.07,0,1,1,.14,0Z"/><path class="cls-5" d="M14,13.23a.07.07,0,0,1-.07.07.07.07,0,0,1,0-.14A.07.07,0,0,1,14,13.23Z"/><path class="cls-5" d="M13.09,12.85a.06.06,0,1,1-.05,0A.06.06,0,0,1,13.09,12.85Z"/><path class="cls-5" d="M13.12,12.43a.05.05,0,0,1-.1,0,0,0,0,0,1,.1,0A0,0,0,0,1,13.12,12.43Z"/><path class="cls-5" d="M12.85,12.06a0,0,0,0,1,0,0,0,0,0,0,1,0,0,0,0,0,0,1,0,0A0,0,0,0,1,12.85,12.06Z"/><path class="cls-5" d="M12.3,12.12a.07.07,0,0,1-.07.07.07.07,0,0,1,0-.14A.07.07,0,0,1,12.3,12.12Z"/><path class="cls-5" d="M11.77,12.37a0,0,0,1,1-.08,0,0,0,0,0,1,.08,0A0,0,0,0,1,11.77,12.37Z"/><path class="cls-5" d="M11.82,9.57a.07.07,0,0,1-.06.07.07.07,0,1,1,0-.14A.07.07,0,0,1,11.82,9.57Z"/></g></g></svg>