<svg xmlns="http://www.w3.org/2000/svg" viewBox="0 0 33.77 22.51"><defs><style>.cls-1{fill:#fff;}.cls-2{fill:#1e6d50;}.cls-3{fill:#1d86bf;}.cls-4{fill:#e40001;}.cls-5,.cls-6{fill:none;stroke-miterlimit:10;}.cls-5{stroke:#ffe742;stroke-width:0.67px;}.cls-6{stroke:#966200;stroke-linecap:round;stroke-width:0.17px;}.cls-7{fill:#ffe742;}.cls-8{fill:#ffce29;}.cls-9{fill:#d72b1f;}</style></defs><g id="Capa_2" data-name="Capa 2"><g id="Capa_19" data-name="Capa 19"><rect class="cls-1" width="33.77" height="22.51"/><path class="cls-2" d="M18.5,8.51a.15.15,0,0,0,0-.13s-.08-.05-.1,0a.33.33,0,0,0,.07-.16c0-.06,0-.12-.09-.11a.18.18,0,0,0-.05-.24.12.12,0,0,0-.05-.14.1.1,0,0,0-.13.06s0-.08,0-.1a.06.06,0,0,0-.08,0,.32.32,0,0,0,0-.16s-.11,0-.14,0a.32.32,0,0,0-.09-.15.11.11,0,0,0-.16,0,.14.14,0,0,0-.11-.11.13.13,0,0,0-.14.05.11.11,0,0,0-.1-.06.12.12,0,0,0-.09.08.08.08,0,0,0-.07,0,.06.06,0,0,0-.06.06.16.16,0,0,0-.13-.06s-.05,0-.07,0,0,0-.06,0a.67.67,0,0,0-.3.1.2.2,0,0,0-.06.13s-.07,0-.1,0a.37.37,0,0,0-.15.25s0,0-.06,0,0,0-.05.07a.39.39,0,0,0,0,.15S16,8,16,8a.76.76,0,0,1,0,.15.06.06,0,0,0-.07,0,.32.32,0,0,0,0,.27h-.06a.33.33,0,0,0,.1.3l-.1,0c0,.11.07.15.13.22s.05.13.14.11a.06.06,0,0,0,0,.09s.06,0,.09,0h.1a.09.09,0,0,0,0,.09h.1s0,.05,0,.05.05,0,.07,0l.15.05a.53.53,0,0,0,.44-.1.25.25,0,0,0,0,.09.12.12,0,0,0,.09-.09.14.14,0,0,0,.13.09.11.11,0,0,0,0-.08.44.44,0,0,0,.35.07c.06,0,.14-.07.12-.14a.18.18,0,0,0,.27-.09h.12s.08,0,.09-.06,0-.09-.05-.07a.48.48,0,0,0,.23-.17s0-.06,0-.09a0,0,0,0,0-.06-.05A.24.24,0,0,0,18.5,8.51Zm-.63.12a.07.07,0,0,0-.11,0,.16.16,0,0,0-.06.13c-.05-.11-.11.06-.13.08s-.16-.06-.17.06a.09.09,0,0,0-.13,0s-.06.07-.09.11-.19-.22-.28-.09a.15.15,0,0,0-.06,0,.09.09,0,0,0-.11,0,.22.22,0,0,0,0-.14.06.06,0,0,0-.11,0,.24.24,0,0,0,0-.12.07.07,0,0,0-.08-.05.09.09,0,0,0,0-.11.07.07,0,0,0-.06,0h0s0,0,0-.05a.06.06,0,0,0,0-.07s.08,0,.09-.07a.19.19,0,0,0,0-.13s.1,0,.09-.05a.08.08,0,0,0,.11,0,.16.16,0,0,0,0-.12c0,.06.14,0,.14,0a.07.07,0,0,0,.1.06.22.22,0,0,0,.09-.1.06.06,0,0,0,.05.06.05.05,0,0,0,.07,0,.08.08,0,0,0,.08.07.07.07,0,0,0,.08,0s0,.06.07.06a.18.18,0,0,0,.09,0,.09.09,0,0,0,0,.11.25.25,0,0,0,.12,0,.12.12,0,0,0,0,.13.11.11,0,0,0,.12,0,.1.1,0,0,0,0,.12.09.09,0,0,0,.11,0,.1.1,0,0,0-.05.1.08.08,0,0,0,.08.07A.2.2,0,0,0,17.87,8.63Z"/><path class="cls-3" d="M15.75,11.74a2.19,2.19,0,0,0-.29-1.4A1,1,0,0,0,16,9.6a.73.73,0,0,0,.69.31A.78.78,0,0,0,17,9.74c.07-.06.23-.21.23-.33,0,.7,0,1.4,0,2.09a.64.64,0,0,0,0,.24Z"/><path class="cls-4" d="M15.45,12.77a4.36,4.36,0,0,1,.21-.64c0-.13.06-.26.09-.39h2.93c.07.32.23.61.28.93a1.42,1.42,0,0,1,0,.58,1,1,0,0,1-.32.57,1.7,1.7,0,0,1-.73.24.89.89,0,0,0-.66.52.77.77,0,0,0-.63-.47,2.43,2.43,0,0,1-.73-.21,1.15,1.15,0,0,1-.41-.63A1.06,1.06,0,0,1,15.45,12.77Z"/><path class="cls-1" d="M17.23,11.74V10a5,5,0,0,1,0-.55s.05.1.08.15a1.07,1.07,0,0,0,.14.16.58.58,0,0,0,.36.17.68.68,0,0,0,.65-.31.85.85,0,0,0,.51.7,2.42,2.42,0,0,0-.28.75,1.72,1.72,0,0,0,0,.39,2.08,2.08,0,0,0,0,.35h-.42C18.18,11.76,17.23,11.77,17.23,11.74Z"/><line class="cls-5" x1="17.23" y1="9.48" x2="17.23" y2="11.76"/><line class="cls-5" x1="15.76" y1="11.73" x2="18.66" y2="11.75"/><path class="cls-5" d="M15.45,12.77a4.36,4.36,0,0,1,.21-.64,2.23,2.23,0,0,0-.2-1.79A1,1,0,0,0,16,9.6a.73.73,0,0,0,.69.31.83.83,0,0,0,.61-.5.73.73,0,0,0,.57.47.68.68,0,0,0,.65-.31.85.85,0,0,0,.51.7,2.25,2.25,0,0,0-.29,1.52c.07.3.22.58.27.88a1.42,1.42,0,0,1,0,.58,1,1,0,0,1-.32.57,1.7,1.7,0,0,1-.73.24.89.89,0,0,0-.66.52.77.77,0,0,0-.63-.47,2.43,2.43,0,0,1-.73-.21,1.15,1.15,0,0,1-.41-.63A1.06,1.06,0,0,1,15.45,12.77Z"/><path class="cls-2" d="M17.82,10.59l-.1,0h0s0,0,0,0a.08.08,0,0,1,0-.05l-.11,0h0s0,0,0-.05l0,0-.12,0h0s0,0,0,0l0,0a.17.17,0,0,1-.15,0,.19.19,0,0,1,.13-.06.25.25,0,0,1,0-.15,0,0,0,0,1,0,0h0a.24.24,0,0,1,.09.06.17.17,0,0,1,0-.1h0s0,0,0,0,0,.07,0,.09,0-.05,0-.08a.28.28,0,0,1,.05.16.29.29,0,0,1,0-.09h0l0,0a.49.49,0,0,1,0,.12.14.14,0,0,1,0-.06h0s0,0,0,0a.34.34,0,0,1,0,.1.07.07,0,0,1,.08-.08l-.1-.08a.06.06,0,0,1,.06,0,.17.17,0,0,1-.14-.09.1.1,0,0,1,.09,0,.17.17,0,0,1,0-.12.13.13,0,0,1,.08.07A.18.18,0,0,1,18,10h0v0a.48.48,0,0,1,0,.12.16.16,0,0,1,.1-.1.2.2,0,0,1,0,.11s0,0,0,0h0a.06.06,0,0,1,0,.06l0,.13a.47.47,0,0,1,.08-.14.16.16,0,0,1,0,.09.24.24,0,0,1,.05-.14v.08a.16.16,0,0,1,0-.11h0v0a.28.28,0,0,1,0,.09.11.11,0,0,1,.1-.08l0,0,0,0a0,0,0,0,1,0,0v0l-.08.09a.08.08,0,0,1,.11,0l-.06,0,0,0v0h0a.34.34,0,0,1-.17.05l.05,0v0s0,0,0,0a.25.25,0,0,1-.17,0,.36.36,0,0,1,.07.1.14.14,0,0,1-.16,0,.16.16,0,0,1,0,.09s0,0,0,0h0s0,0-.05-.06a.3.3,0,0,1,0,.1v0h0a.16.16,0,0,1-.07-.07.31.31,0,0,1,0,.08h0a.25.25,0,0,1,0-.12s-.08.11-.11,0S17.8,10.6,17.82,10.59Z"/><path class="cls-2" d="M17.92,11a.09.09,0,0,0-.1.05l-.08.1h0s0,0,0,0a.32.32,0,0,1,0-.14l-.09.08h0s0,0,0,0a.16.16,0,0,1,0-.09l-.11,0s0,0,0,0h0s0-.05.06-.05h-.16s0,0,0,0l.08,0a.18.18,0,0,1-.09,0s0,0,0,0h.07a.21.21,0,0,1-.09-.15.21.21,0,0,1,.12,0l0,0a.34.34,0,0,1,0-.1.1.1,0,0,1,.08,0l0,.09a.43.43,0,0,0,0,0h0s0,0,0,0l0,.11a.16.16,0,0,1,0-.09h0s0,0,0,0a.34.34,0,0,1,0,.1.1.1,0,0,1,.06-.08.17.17,0,0,1,0,.12l.05,0h0s0,0,0,.05a.08.08,0,0,0,0,0s0,0,0,0V11Z"/><path class="cls-2" d="M18.09,10.86a.19.19,0,0,1,0-.13h0s0,0,0,0l0,0a.21.21,0,0,1,0-.12h0l0,.07a.2.2,0,0,1,.06-.13.16.16,0,0,1,0,.09.18.18,0,0,1,.06-.14.29.29,0,0,1,0,.09.26.26,0,0,1,.07-.11s.05,0,.06,0v0l0,.08c0-.05.16-.08.12,0l0,.06.07,0a.29.29,0,0,1-.13.16l0,0h0a.16.16,0,0,1-.1,0,.11.11,0,0,1,.07.11h0a.3.3,0,0,1-.15-.07.19.19,0,0,1,0,.13v0a0,0,0,0,1,0,0l-.1-.15a.22.22,0,0,1,0,.14s0,0,0,0h0a.25.25,0,0,1-.08-.12.66.66,0,0,1,0,.14s0,.06,0,0,0,0,0,0,0-.09,0-.13a.11.11,0,0,1,0,.08s0,0,0-.07,0,0-.06,0a.13.13,0,0,0,0-.1C18,10.83,18,10.78,18.09,10.86Z"/><path class="cls-6" d="M18,11.66c0-.42,0-.84,0-1.26"/><path class="cls-6" d="M17.59,10.36a.3.3,0,0,1,.15.05.63.63,0,0,1,.23.2,3.25,3.25,0,0,1,.23-.29"/><path class="cls-6" d="M17.57,10.8a1,1,0,0,1,.21.09A.76.76,0,0,1,18,11a1,1,0,0,1,.19-.14,1.09,1.09,0,0,1,.24-.07"/><path class="cls-1" d="M15.88,10.78v0h0l0,0a.19.19,0,0,0,0,.13A.16.16,0,0,1,16,11c.08.17,0,.39,0,.57v0h0a.14.14,0,0,0,.11,0,.32.32,0,0,1-.05-.19.49.49,0,0,1,0-.12.29.29,0,0,1,0-.09.7.7,0,0,0,0-.25c.08,0,.15,0,.21.07l.12,0h.11a5,5,0,0,0,0,.55h.12a.75.75,0,0,1,0-.47s0,0,0-.07a.35.35,0,0,1,.05-.08.45.45,0,0,0,.12-.33s0-.1,0-.15a.28.28,0,0,1,0-.09h0a.17.17,0,0,0,.12,0,.06.06,0,0,0,.06,0,0,0,0,0,0,0-.07s0,0-.07,0,0-.05,0-.06-.06,0-.07,0v-.12h0s-.05,0-.06.06,0,0,0,.08a1.11,1.11,0,0,0,0,.19,1.21,1.21,0,0,1,0,.19.12.12,0,0,1-.08.1.12.12,0,0,1-.1,0,1.13,1.13,0,0,0-.18-.12.42.42,0,0,0-.27,0A.28.28,0,0,0,15.88,10.78Z"/><path class="cls-7" d="M16.16,12.56a.12.12,0,0,1,0-.13.09.09,0,0,1,.11,0,.11.11,0,0,1,0-.11.08.08,0,0,1,.1,0,.09.09,0,0,1,.05-.09.08.08,0,0,1,.1,0,.12.12,0,0,1,.18-.08.12.12,0,0,1,.2,0,.08.08,0,0,1,.1-.05.2.2,0,0,1,.08.08.09.09,0,0,1,.1,0,.1.1,0,0,1,0,.1.07.07,0,0,1,.09,0,.25.25,0,0,1,0,.12.07.07,0,0,1,.09,0,.09.09,0,0,1,0,.1.09.09,0,0,1,.1.05.11.11,0,0,1,0,.11.06.06,0,0,1,.09,0,.11.11,0,0,1,0,.11.06.06,0,0,1,.08,0,.08.08,0,0,1,0,.09s.06,0,.08,0a.35.35,0,0,0,0,.11.1.1,0,0,0,.05,0,.21.21,0,0,0,.25,0,.31.31,0,0,0,.08-.29c0-.08-.09-.16-.17-.14s-.08,0-.12.1a0,0,0,0,1,0,0s0,0,0-.06a.31.31,0,0,1,.13-.3.23.23,0,0,1,.28,0l.05.07.06.07a1.7,1.7,0,0,1,0,.22s0,.07,0,.11,0,.12-.06.19,0,.13-.06.17-.11,0-.16.07l-.07.05a.18.18,0,0,1-.21,0,.05.05,0,0,0,0,0h0a.09.09,0,0,1-.09,0,.17.17,0,0,1,0-.12.23.23,0,0,1-.14,0,.1.1,0,0,1-.05-.12.07.07,0,0,1-.09,0,.08.08,0,0,1,0-.09.14.14,0,0,1-.09,0s0-.07,0-.09a.08.08,0,0,1-.14-.05.05.05,0,0,1-.07,0l-.07,0s0,0,0,.07H17s0,.09,0,.1a.25.25,0,0,1-.06.25.27.27,0,0,1-.31,0,1.72,1.72,0,0,1-.31-.24.89.89,0,0,1-.25-.32.16.16,0,0,1,0-.15S16.14,12.51,16.16,12.56Z"/><path class="cls-8" d="M16.21,12.87a.1.1,0,0,0-.12-.12c-.07,0-.1.11-.07.17s-.11.08-.11.15a.17.17,0,0,0,.13.14.24.24,0,0,0,0,.2c0,.07.1.12.15.07a.11.11,0,0,0,.05.13.13.13,0,0,0,.13,0,.17.17,0,0,0,.07.17.12.12,0,0,0,.16,0,.11.11,0,0,0,.07.13.09.09,0,0,0,.12-.05.14.14,0,0,0,.12.1.17.17,0,0,0,.13-.1.17.17,0,0,0,.05.15.11.11,0,0,0,.13,0,.12.12,0,0,0,0-.14.1.1,0,0,0,.12,0,.14.14,0,0,0,.06-.13.09.09,0,0,0,.11.08.16.16,0,0,0,.07-.14c0,.09.15.07.18,0-.06.13.11.19.19.12a.19.19,0,0,0,0-.09c0-.11-.2-.22-.22-.1,0-.05,0-.12,0-.15s-.12,0-.13,0a.13.13,0,0,0-.07-.16c-.05,0-.11,0-.13.09a.12.12,0,0,0-.12-.14.15.15,0,0,0-.1.16.1.1,0,0,0-.1-.1c-.05,0-.09,0-.1.09a.11.11,0,0,0-.07-.14.13.13,0,0,0-.14.07.17.17,0,0,0,0-.17.12.12,0,0,0-.16,0,.11.11,0,0,0,0-.16.16.16,0,0,0-.16,0,.16.16,0,0,0,0-.15S16.22,12.8,16.21,12.87Z"/><path class="cls-2" d="M16,15a2.3,2.3,0,0,1-1.6-1,8.58,8.58,0,0,0,.83.35c-.32-.38-.87-.37-1.15-.8l.51.17a5.62,5.62,0,0,1-.69-.69l.4.19-.49-.68a1.73,1.73,0,0,1,.82.58A3.69,3.69,0,0,0,13.91,12l-.09.29L13.76,12a.22.22,0,0,1,0-.16c0-.08.15,0,.22,0l-.26-.5a2.8,2.8,0,0,1,.38.32,1.86,1.86,0,0,1-.38-.87c.25.31.48.63.7,1a1.9,1.9,0,0,0-.5-1.14.69.69,0,0,0,0,.32.78.78,0,0,1-.09-.24.32.32,0,0,1,0-.24.13.13,0,0,1,.2,0,1.17,1.17,0,0,1-.13-.45,1.62,1.62,0,0,1,.27.41,1.71,1.71,0,0,1-.09-.64,1.46,1.46,0,0,0,.17.3,1.38,1.38,0,0,1,0-.7l.24.76a5.32,5.32,0,0,1,.06-.81,1.91,1.91,0,0,1,.29-.63l0,.65a1.54,1.54,0,0,1,.93-.81,3,3,0,0,0-.81,1A1.07,1.07,0,0,1,15.57,9a3.5,3.5,0,0,0-.47.54,1.36,1.36,0,0,1,.73-.4,2.51,2.51,0,0,0-.93,1.08,1.08,1.08,0,0,1,.54-.38,4.85,4.85,0,0,0-.46.63,1.67,1.67,0,0,0-.22.78,1.13,1.13,0,0,1,.45-.59,2.47,2.47,0,0,0-.29.71.92.92,0,0,1,.48-.49,1.8,1.8,0,0,0-.43.9,1,1,0,0,1,.58-.51,2.49,2.49,0,0,0-.45.69.73.73,0,0,1,.4-.3,1.33,1.33,0,0,0-.38,1.3,1,1,0,0,1,.19-.59,2.72,2.72,0,0,0,.13,1.47,2.12,2.12,0,0,0,.39.61,1.79,1.79,0,0,0,.37.31,2.55,2.55,0,0,0,.53.18c.45.12.9.15,1.34.24a1.14,1.14,0,0,1,.79.38.35.35,0,0,1-.34,0,2.06,2.06,0,0,1-.33-.17,2.41,2.41,0,0,0-2.18.16.43.43,0,0,1-.18.06.15.15,0,0,1-.14-.12c0-.09.07-.16.15-.2a2.41,2.41,0,0,1,1.07-.17C16.61,15.15,16.31,15.08,16,15Z"/><path class="cls-2" d="M19.57,9.66a.73.73,0,0,1-.54.06.86.86,0,0,1-.26-.21l-.17-.2a.29.29,0,0,1,.16,0A.65.65,0,0,0,18.48,9a.35.35,0,0,1,.34-.12,1.06,1.06,0,0,1-.13-.47.6.6,0,0,1,.51.14l.05-.42a1.85,1.85,0,0,1,.38.36.8.8,0,0,1,.13.19.86.86,0,0,1,0,.39,1.11,1.11,0,0,1-.14.51,2.65,2.65,0,0,1,.14.62,4.14,4.14,0,0,1,0,.61,4.48,4.48,0,0,0-.06-.63C19.74,10.16,19.61,9.64,19.57,9.66Z"/><path class="cls-2" d="M19.84,11.48v-.11c-.36-.14-.72-.24-.89-.67l.17,0a1.15,1.15,0,0,0-.08-.28.4.4,0,0,1,.35.06.87.87,0,0,1-.13-.44l.18.07.08-.29a.64.64,0,0,1,.22.29A.66.66,0,0,1,20,9.79a1.76,1.76,0,0,1,.13.5.86.86,0,0,1,.2-.26.53.53,0,0,0,.05.18,1,1,0,0,1,0,.72.65.65,0,0,1,.19,0,1.66,1.66,0,0,1-.25.34.34.34,0,0,1-.16.1l-.11.05c-.06,0-.07,0-.09.11a6.91,6.91,0,0,0-.16.79c0,.12,0,.24,0,.37a1.12,1.12,0,0,0,0,.37s0,0,0-.06a3.66,3.66,0,0,1,0-.81C19.76,11.93,19.83,11.7,19.84,11.48Z"/><path class="cls-2" d="M19.49,13.39a1.17,1.17,0,0,0-.23-.52,3.76,3.76,0,0,1-.25-.58,3.58,3.58,0,0,1-.13-.86l.15.1v-.38a.74.74,0,0,1,.31.32.55.55,0,0,0,0-.18.85.85,0,0,1,.3.37,3.38,3.38,0,0,1,.16.48,1.54,1.54,0,0,1,.68-.7l0,.66.27-.26a4.4,4.4,0,0,0-.05.51,1.16,1.16,0,0,1-.38.68,1.54,1.54,0,0,1-.56.31l-.07,0,0,0a2.36,2.36,0,0,1-.55.84s.05-.11.07-.13l.08-.11c.07-.12.13-.25.19-.38a1.55,1.55,0,0,0,.08-.23Z"/><path class="cls-2" d="M17.91,14.93a1,1,0,0,0,.34-.2l.12-.12a.72.72,0,0,1,.27-.12.08.08,0,0,1,.08,0,.07.07,0,0,1,0,.09s-.05,0-.08,0a.59.59,0,0,0-.27.14.29.29,0,0,0,.22-.06.27.27,0,0,0,.05-.15c0-.12,0-.23,0-.34a.86.86,0,0,1,.25-.49,4.87,4.87,0,0,0,.35-.42.8.8,0,0,1,0,.46c.18-.16.44-.11.65-.21a1.65,1.65,0,0,1-.27.62l.48,0a2.57,2.57,0,0,0-.21.24,2.1,2.1,0,0,1-.22.3.75.75,0,0,1-.78.13h-.06a4.93,4.93,0,0,1-.76.28c-.1,0-.88.24-.9.13s.26-.14.32-.15A2.52,2.52,0,0,0,17.91,14.93Z"/><path class="cls-4" d="M19.91,9.78a.42.42,0,0,0,0-.84.42.42,0,0,0,0,.84Z"/><path class="cls-4" d="M20.06,10h0a.29.29,0,0,0,.16,0,.39.39,0,0,0,.14-.08.29.29,0,0,0,.08-.14.29.29,0,0,0,0-.16l0-.11a.35.35,0,0,0-.1-.19l-.09-.06a.37.37,0,0,0-.21-.06h0a.32.32,0,0,0-.16,0,.26.26,0,0,0-.13.08.42.42,0,0,0-.09.14.29.29,0,0,0,0,.16l0,.11a.52.52,0,0,0,.11.19l.08.06a.42.42,0,0,0,.21.06Z"/><path class="cls-4" d="M19.34,10.3a.42.42,0,0,0,0-.84.42.42,0,0,0,0,.84Z"/><path class="cls-4" d="M19.69,11.91a.42.42,0,0,0,0-.84.42.42,0,0,0,0,.84Z"/><path class="cls-4" d="M20.09,11.92a.42.42,0,0,0,0-.84.42.42,0,0,0,0,.84Z"/><path class="cls-4" d="M20.19,13.72a.42.42,0,0,0,0-.83.42.42,0,0,0,0,.83Z"/><path class="cls-4" d="M20,14a.42.42,0,0,0,0-.84A.42.42,0,0,0,20,14Z"/><path class="cls-4" d="M19.26,13.57a.42.42,0,0,0,0-.83.42.42,0,0,0,0,.83Z"/><path class="cls-4" d="M16.94,14.46a.57.57,0,0,0-.48,0c-.06,0-.13.09-.12.16a.14.14,0,0,0,.08.1.74.74,0,0,0,.41.1.72.72,0,0,1,.21,0l.07.05a.59.59,0,0,1,0,.08s0,0-.07,0a.2.2,0,0,0,.07.27l-.12.14a.38.38,0,0,1-.17.08.56.56,0,0,1-.38-.05,2.55,2.55,0,0,1-.28-.21.84.84,0,0,0-.52-.18.38.38,0,0,0-.21,0,.1.1,0,0,0-.05.08.11.11,0,0,0,0,.06c.06.06.14,0,.22,0a.68.68,0,0,1,.53.14,1.35,1.35,0,0,0,.35.29.51.51,0,0,0,.42,0,.65.65,0,0,0,.19-.18s.12-.19.17-.17a.42.42,0,0,0,.11.18.63.63,0,0,0,.82.08c.15-.11.28-.28.45-.3s.2,0,.3,0a.06.06,0,0,0,.07-.05.13.13,0,0,0,0-.06.35.35,0,0,0-.13-.14.38.38,0,0,0-.37,0,1.5,1.5,0,0,0-.33.29.52.52,0,0,1-.36.16.64.64,0,0,1-.41-.22.21.21,0,0,0,.1-.19.2.2,0,0,0-.12-.16,1.17,1.17,0,0,1,.41-.1.59.59,0,0,0,.35-.18s0,0,0-.06a.14.14,0,0,0-.08-.12.55.55,0,0,0-.79.34l0,.07s0,0-.06,0A.8.8,0,0,0,16.94,14.46Z"/><rect class="cls-9" width="10.24" height="22.51"/><rect class="cls-9" x="23.52" width="10.24" height="22.51"/></g></g></svg>